<?xml version="1.0" encoding="UTF-8"?>
<!DOCTYPE svg PUBLIC "-//W3C//DTD SVG 1.1//EN" "http://www.w3.org/Graphics/SVG/1.1/DTD/svg11.dtd">
<svg version="1.2" width="100mm" height="60mm" viewBox="0 0 10000 6000" preserveAspectRatio="xMidYMid" fill-rule="evenodd" stroke-width="28.222" stroke-linejoin="round" xmlns="http://www.w3.org/2000/svg" xmlns:ooo="http://xml.openoffice.org/svg/export" xmlns:xlink="http://www.w3.org/1999/xlink" xmlns:presentation="http://sun.com/xmlns/staroffice/presentation" xmlns:smil="http://www.w3.org/2001/SMIL20/" xmlns:anim="urn:oasis:names:tc:opendocument:xmlns:animation:1.0" xml:space="preserve">
 <defs class="ClipPathGroup">
  <clipPath id="presentation_clip_path" clipPathUnits="userSpaceOnUse">
   <rect x="0" y="0" width="10000" height="6000"/>
  </clipPath>
  <clipPath id="presentation_clip_path_shrink" clipPathUnits="userSpaceOnUse">
   <rect x="10" y="6" width="9980" height="5988"/>
  </clipPath>
 </defs>
 <defs class="TextShapeIndex">
  <g ooo:slide="id1" ooo:id-list="id3 id4 id5 id6 id7 id8 id9 id10 id11 id12 id13 id14 id15 id16 id17 id18 id19 id20 id21 id22 id23 id24 id25 id26 id27 id28 id29 id30 id31 id32 id33 id34 id35 id36 id37 id38 id39 id40 id41 id42 id43 id44 id45 id46 id47 id48 id49"/>
 </defs>
 <defs class="EmbeddedBulletChars">
  <g id="bullet-char-template-57356" transform="scale(0.00048828125,-0.00048828125)">
   <path d="M 580,1141 L 1163,571 580,0 -4,571 580,1141 Z"/>
  </g>
  <g id="bullet-char-template-57354" transform="scale(0.00048828125,-0.00048828125)">
   <path d="M 8,1128 L 1137,1128 1137,0 8,0 8,1128 Z"/>
  </g>
  <g id="bullet-char-template-10146" transform="scale(0.00048828125,-0.00048828125)">
   <path d="M 174,0 L 602,739 174,1481 1456,739 174,0 Z M 1358,739 L 309,1346 659,739 1358,739 Z"/>
  </g>
  <g id="bullet-char-template-10132" transform="scale(0.00048828125,-0.00048828125)">
   <path d="M 2015,739 L 1276,0 717,0 1260,543 174,543 174,936 1260,936 717,1481 1274,1481 2015,739 Z"/>
  </g>
  <g id="bullet-char-template-10007" transform="scale(0.00048828125,-0.00048828125)">
   <path d="M 0,-2 C -7,14 -16,27 -25,37 L 356,567 C 262,823 215,952 215,954 215,979 228,992 255,992 264,992 276,990 289,987 310,991 331,999 354,1012 L 381,999 492,748 772,1049 836,1024 860,1049 C 881,1039 901,1025 922,1006 886,937 835,863 770,784 769,783 710,716 594,584 L 774,223 C 774,196 753,168 711,139 L 727,119 C 717,90 699,76 672,76 641,76 570,178 457,381 L 164,-76 C 142,-110 111,-127 72,-127 30,-127 9,-110 8,-76 1,-67 -2,-52 -2,-32 -2,-23 -1,-13 0,-2 Z"/>
  </g>
  <g id="bullet-char-template-10004" transform="scale(0.00048828125,-0.00048828125)">
   <path d="M 285,-33 C 182,-33 111,30 74,156 52,228 41,333 41,471 41,549 55,616 82,672 116,743 169,778 240,778 293,778 328,747 346,684 L 369,508 C 377,444 397,411 428,410 L 1163,1116 C 1174,1127 1196,1133 1229,1133 1271,1133 1292,1118 1292,1087 L 1292,965 C 1292,929 1282,901 1262,881 L 442,47 C 390,-6 338,-33 285,-33 Z"/>
  </g>
  <g id="bullet-char-template-9679" transform="scale(0.00048828125,-0.00048828125)">
   <path d="M 813,0 C 632,0 489,54 383,161 276,268 223,411 223,592 223,773 276,916 383,1023 489,1130 632,1184 813,1184 992,1184 1136,1130 1245,1023 1353,916 1407,772 1407,592 1407,412 1353,268 1245,161 1136,54 992,0 813,0 Z"/>
  </g>
  <g id="bullet-char-template-8226" transform="scale(0.00048828125,-0.00048828125)">
   <path d="M 346,457 C 273,457 209,483 155,535 101,586 74,649 74,723 74,796 101,859 155,911 209,963 273,989 346,989 419,989 480,963 531,910 582,859 608,796 608,723 608,648 583,586 532,535 482,483 420,457 346,457 Z"/>
  </g>
  <g id="bullet-char-template-8211" transform="scale(0.00048828125,-0.00048828125)">
   <path d="M -4,459 L 1135,459 1135,606 -4,606 -4,459 Z"/>
  </g>
  <g id="bullet-char-template-61548" transform="scale(0.00048828125,-0.00048828125)">
   <path d="M 173,740 C 173,903 231,1043 346,1159 462,1274 601,1332 765,1332 928,1332 1067,1274 1183,1159 1299,1043 1357,903 1357,740 1357,577 1299,437 1183,322 1067,206 928,148 765,148 601,148 462,206 346,322 231,437 173,577 173,740 Z"/>
  </g>
 </defs>
 <g>
  <g id="id2" class="Master_Slide">
   <g id="bg-id2" class="Background"/>
   <g id="bo-id2" class="BackgroundObjects"/>
  </g>
 </g>
 <g class="SlideGroup">
  <g>
   <g id="container-id1">
    <g id="id1" class="Slide" clip-path="url(#presentation_clip_path)">
     <g class="Page">
      <g class="Group">
       <g class="com.sun.star.drawing.ClosedBezierShape">
        <g id="id3">
         <rect class="BoundingBox" stroke="none" fill="none" x="5092" y="636" width="1318" height="1461"/>
         <path fill="rgb(241,167,32)" stroke="none" d="M 5620,1990 L 5790,1990 C 5787,2049 5621,2052 5620,1990 Z M 5586,1963 C 5573,1932 5603,1934 5624,1935 5647,1935 5670,1935 5693,1935 5720,1935 5810,1924 5820,1943 5841,1985 5741,1972 5715,1972 5691,1972 5592,1978 5586,1963 Z M 5572,1911 C 5567,1873 5583,1904 5571,1848 5566,1825 5565,1815 5552,1798 5488,1712 5413,1622 5457,1486 5536,1245 5874,1248 5949,1487 5989,1613 5924,1711 5855,1798 5840,1817 5830,1870 5830,1877 5831,1893 5839,1881 5836,1902 5831,1928 5733,1916 5706,1916 5672,1916 5598,1922 5572,1911 Z M 5953,1423 C 5948,1399 5963,1402 6011,1373 6039,1356 6067,1334 6084,1343 6085,1362 6075,1363 6058,1372 6026,1389 5975,1427 5953,1423 Z M 5435,1395 C 5452,1404 5459,1406 5454,1422 5436,1428 5398,1400 5379,1389 5346,1371 5311,1358 5327,1342 5337,1332 5410,1382 5435,1395 Z M 5694,1125 L 5713,1125 5715,1213 C 5715,1255 5721,1274 5699,1276 5685,1258 5692,1199 5691,1174 L 5694,1125 Z M 5511,1206 C 5531,1244 5570,1294 5561,1314 5545,1318 5541,1306 5533,1291 5526,1280 5519,1267 5513,1255 5505,1242 5472,1197 5482,1187 5498,1171 5505,1195 5511,1206 Z M 5859,1317 C 5827,1310 5843,1300 5871,1249 5887,1221 5902,1186 5921,1183 5933,1197 5927,1199 5917,1217 5909,1229 5904,1239 5898,1250 5885,1272 5870,1300 5859,1317 Z M 5181,2096 L 6322,2096 C 6376,2096 6408,2068 6408,2014 L 6408,1441 C 6408,1403 6390,1370 6371,1350 6350,1327 6320,1314 6292,1299 L 6210,1252 C 6055,1162 5868,1049 5716,966 5653,931 5159,636 5134,636 5115,636 5108,639 5100,655 5088,680 5095,963 5095,998 L 5093,1388 C 5102,1518 5095,1820 5095,1980 5095,2019 5092,2039 5109,2064 5123,2085 5148,2096 5181,2096 Z"/>
        </g>
       </g>
       <g class="com.sun.star.drawing.ClosedBezierShape">
        <g id="id4">
         <rect class="BoundingBox" stroke="none" fill="none" x="5094" y="2226" width="1316" height="1460"/>
         <path fill="rgb(34,74,121)" stroke="none" d="M 6005,2752 C 6005,2802 6005,2852 6005,2901 6005,2966 6012,2979 5961,3005 5839,3067 5568,3067 5452,3004 5403,2977 5411,2963 5411,2897 5411,2849 5410,2800 5411,2752 5434,2752 5527,2779 5557,2787 5593,2795 5677,2821 5710,2821 5764,2820 5971,2750 6005,2752 Z M 6091,2688 C 6008,2704 5916,2731 5833,2752 5692,2787 5712,2784 5573,2749 5489,2728 5403,2708 5318,2686 5266,2672 5210,2669 5203,2641 5191,2592 5259,2590 5296,2581 5380,2559 5466,2538 5551,2517 5703,2479 5678,2470 5810,2504 L 6193,2599 C 6205,2604 6257,2656 6153,2671 6153,2741 6153,2811 6153,2880 6153,2974 6165,2929 6169,2970 6178,3071 6036,3047 6086,2941 6094,2924 6091,2914 6091,2893 6091,2825 6090,2756 6091,2688 Z M 5095,2311 L 5095,3629 C 5095,3729 5173,3668 5219,3642 5322,3582 5537,3452 5629,3406 L 6331,3000 C 6354,2987 6357,2990 6369,2974 6388,2949 6408,2923 6408,2880 L 6408,2307 C 6408,2278 6402,2261 6386,2247 6359,2222 6341,2229 6331,2229 L 5172,2229 C 5159,2229 5165,2224 5144,2231 5110,2242 5095,2272 5095,2311 Z"/>
        </g>
       </g>
       <g class="com.sun.star.drawing.ClosedBezierShape">
        <g id="id5">
         <rect class="BoundingBox" stroke="none" fill="none" x="3652" y="636" width="1311" height="1460"/>
         <path fill="rgb(34,74,121)" stroke="none" d="M 3883,1540 C 3891,1523 3932,1494 3958,1481 3975,1473 3996,1470 4009,1463 4025,1456 4020,1450 4037,1426 4145,1274 4340,1235 4499,1339 L 4561,1395 C 4568,1404 4559,1388 4567,1405 4541,1405 4336,1408 4321,1403 4304,1396 4300,1377 4265,1383 4183,1398 4225,1527 4303,1490 4335,1473 4307,1473 4363,1473 4417,1473 4472,1473 4526,1473 4574,1473 4634,1465 4672,1485 4735,1517 4790,1583 4801,1676 4673,1680 4522,1676 4388,1676 4351,1676 4330,1682 4312,1669 4265,1636 4214,1666 4219,1717 4224,1766 4280,1777 4315,1752 4333,1740 4362,1744 4388,1744 4415,1744 4443,1744 4470,1744 4579,1744 4688,1745 4797,1744 4797,1814 4720,1893 4678,1916 4595,1959 4516,1947 4418,1947 4344,1947 4053,1956 3993,1936 3969,1929 3913,1903 3900,1880 3978,1881 4057,1878 4135,1880 4168,1880 4154,1886 4178,1897 4192,1904 4211,1904 4225,1898 4296,1868 4246,1758 4175,1796 4151,1809 4168,1812 4130,1812 L 3845,1812 C 3815,1728 3810,1702 3838,1610 3907,1603 4006,1609 4079,1609 4200,1609 4139,1611 4181,1627 4215,1641 4247,1619 4256,1593 4268,1557 4244,1525 4215,1519 4193,1515 4180,1521 4167,1530 4148,1544 4153,1540 4121,1540 4044,1540 3962,1539 3883,1540 Z M 3652,1433 L 3652,2023 C 3652,2051 3668,2073 3686,2084 3709,2099 3926,2092 3962,2092 L 4211,2093 C 4227,2094 4230,2092 4249,2093 4257,2093 4255,2093 4263,2094 L 4340,2094 C 4353,2093 4338,2094 4349,2094 L 4387,2094 C 4395,2094 4403,2093 4407,2093 4416,2093 4436,2094 4446,2094 4457,2094 4471,2093 4482,2093 4492,2093 4496,2094 4504,2094 4517,2094 4500,2093 4516,2094 L 4742,2093 C 4782,2093 4898,2098 4923,2088 4940,2080 4962,2059 4962,2036 L 4962,670 C 4962,646 4947,636 4927,636 4904,636 4619,806 4595,821 L 3858,1247 C 3776,1296 3652,1340 3652,1433 Z"/>
        </g>
       </g>
       <g class="com.sun.star.drawing.ClosedBezierShape">
        <g id="id6">
         <rect class="BoundingBox" stroke="none" fill="none" x="3652" y="2225" width="1311" height="1461"/>
         <path fill="rgb(241,167,32)" stroke="none" d="M 4328,2470 C 4340,2482 4366,2509 4376,2516 4394,2510 4402,2503 4424,2505 L 4454,2556 C 4445,2571 4433,2579 4422,2588 L 4442,2653 C 4464,2660 4472,2655 4488,2668 L 4491,2727 C 4480,2735 4463,2738 4446,2743 L 4431,2806 C 4447,2821 4537,2872 4543,2878 L 4560,2863 C 4555,2829 4546,2836 4582,2821 4601,2829 4594,2843 4622,2830 4648,2819 4629,2790 4667,2799 4690,2805 4667,2815 4693,2827 4719,2838 4719,2823 4737,2815 L 4764,2828 C 4762,2856 4752,2850 4771,2867 4789,2882 4785,2874 4811,2872 4816,2881 4823,2890 4827,2902 L 4811,2919 4820,2951 4845,2958 4847,2994 C 4816,3000 4821,3003 4814,3037 4827,3044 4825,3041 4833,3052 4821,3087 4822,3080 4788,3077 4778,3102 4768,3089 4772,3113 4775,3133 4770,3135 4746,3143 4743,3141 4711,3109 4693,3146 4686,3161 4695,3164 4655,3164 L 4647,3139 4614,3132 C 4603,3142 4609,3141 4595,3148 4559,3136 4565,3141 4570,3106 4558,3098 4553,3089 4543,3088 4521,3084 4551,3087 4537,3088 4532,3088 4528,3091 4517,3091 L 4503,3065 C 4512,3051 4512,3058 4519,3044 4506,3003 4518,3018 4484,3005 L 4483,2971 4508,2963 4512,2938 4386,2885 C 4371,2910 4357,2918 4345,2936 4361,2980 4364,2980 4336,2996 4311,3011 4298,3025 4273,2982 L 4206,3002 C 4202,3030 4207,3065 4130,3047 L 4118,3004 C 4043,2996 4064,2973 4028,3022 4004,3022 3984,3005 3966,2997 3960,2936 3999,2970 3949,2928 3940,2920 3935,2914 3928,2905 L 3885,2918 C 3823,2859 3860,2852 3879,2829 3852,2745 3872,2773 3815,2756 L 3811,2691 C 3823,2684 3841,2681 3857,2675 L 3870,2612 C 3856,2595 3849,2600 3838,2582 3840,2561 3857,2534 3869,2524 L 3917,2533 C 3926,2514 3940,2498 3957,2487 3953,2468 3945,2462 3945,2440 3994,2399 4002,2399 4029,2438 L 4096,2418 4102,2386 C 4113,2357 4171,2372 4172,2373 4180,2379 4178,2407 4188,2413 L 4253,2430 C 4269,2396 4279,2384 4326,2417 4347,2432 4333,2445 4328,2470 Z M 3652,2298 L 3652,2884 C 3652,2939 3688,2979 3729,3000 L 4838,3641 C 4870,3658 4904,3685 4936,3685 4950,3685 4962,3666 4962,3650 L 4962,2285 C 4962,2247 4920,2225 4880,2225 L 3734,2225 C 3688,2225 3652,2253 3652,2298 Z"/>
        </g>
       </g>
       <g class="com.sun.star.drawing.ClosedBezierShape">
        <g id="id7">
         <rect class="BoundingBox" stroke="none" fill="none" x="3819" y="1280" width="985" height="671"/>
         <path fill="rgb(254,254,254)" stroke="none" d="M 3883,1540 C 3962,1538 4044,1539 4122,1540 4153,1540 4149,1544 4167,1530 4181,1521 4194,1515 4216,1519 4245,1525 4269,1557 4257,1593 4248,1619 4216,1641 4182,1628 4140,1611 4200,1609 4079,1609 4006,1609 3907,1603 3838,1610 3810,1702 3815,1728 3846,1812 L 4131,1813 C 4169,1813 4151,1810 4176,1797 4246,1759 4297,1868 4225,1898 4211,1904 4193,1904 4179,1898 4154,1886 4169,1881 4135,1880 4058,1879 3978,1881 3900,1880 3914,1903 3969,1929 3993,1936 4054,1956 4344,1948 4419,1948 4517,1948 4596,1959 4678,1916 4721,1894 4798,1814 4798,1745 4688,1746 4580,1745 4471,1745 4444,1745 4416,1745 4389,1745 4362,1745 4334,1740 4316,1752 4281,1777 4225,1766 4220,1717 4215,1666 4266,1636 4313,1669 4331,1682 4352,1676 4389,1676 4522,1676 4673,1680 4802,1676 4791,1582 4735,1517 4673,1485 4635,1465 4575,1473 4527,1473 4472,1473 4417,1473 4363,1473 4308,1472 4336,1473 4303,1489 4226,1527 4184,1397 4266,1383 4300,1377 4304,1396 4321,1402 4337,1408 4541,1405 4568,1405 4560,1387 4568,1404 4562,1395 L 4500,1339 C 4340,1235 4145,1274 4038,1426 4021,1449 4026,1455 4010,1463 3996,1469 3975,1473 3958,1480 3932,1494 3891,1523 3883,1540 Z"/>
        </g>
       </g>
       <g class="com.sun.star.drawing.ClosedBezierShape">
        <g id="id8">
         <rect class="BoundingBox" stroke="none" fill="none" x="3810" y="2368" width="1039" height="797"/>
         <path fill="rgb(254,254,254)" stroke="none" d="M 4656,2966 L 4679,2969 C 4682,2984 4682,2985 4673,2997 L 4654,2997 C 4646,2981 4647,2981 4656,2966 Z M 4598,2886 C 4603,2883 4608,2880 4614,2876 4714,2826 4827,2939 4766,3042 4701,3151 4525,3094 4551,2960 4582,2962 4650,3016 4678,3002 4715,2976 4665,2954 4648,2944 4625,2930 4606,2914 4582,2904 L 4598,2886 Z M 4132,2735 C 4108,2696 4140,2668 4168,2687 4188,2700 4189,2748 4132,2735 Z M 4314,2854 C 4136,3048 3840,2830 3958,2609 4065,2408 4401,2468 4364,2764 L 4234,2686 C 4193,2660 4132,2615 4096,2678 4081,2703 4087,2738 4104,2755 4126,2777 4288,2834 4314,2854 Z M 4329,2470 C 4334,2446 4348,2433 4326,2417 4279,2384 4269,2396 4253,2430 L 4188,2413 C 4178,2407 4180,2379 4172,2373 4171,2372 4113,2357 4102,2386 L 4096,2418 4029,2438 C 4002,2400 3994,2400 3945,2440 3945,2463 3953,2468 3957,2487 3940,2498 3926,2514 3917,2534 L 3869,2524 C 3857,2535 3840,2561 3838,2583 3849,2601 3856,2595 3870,2613 L 3857,2676 C 3841,2682 3823,2685 3811,2691 L 3815,2756 C 3872,2773 3852,2745 3879,2829 3860,2852 3823,2859 3885,2918 L 3928,2905 C 3935,2914 3940,2920 3949,2928 3999,2970 3960,2936 3966,2997 3984,3005 4004,3022 4028,3022 4064,2973 4043,2996 4118,3004 L 4130,3048 C 4208,3065 4202,3031 4206,3003 L 4274,2982 C 4298,3025 4311,3011 4337,2996 4364,2980 4362,2980 4346,2936 4358,2919 4371,2910 4386,2886 L 4512,2938 4509,2963 4483,2971 4484,3005 C 4519,3018 4506,3003 4519,3044 4512,3058 4512,3051 4504,3065 L 4518,3091 C 4528,3091 4532,3088 4537,3088 4551,3087 4521,3085 4544,3088 4553,3089 4559,3099 4571,3106 4565,3141 4559,3136 4596,3149 4609,3141 4603,3142 4614,3132 L 4647,3139 4655,3164 C 4696,3164 4686,3161 4693,3146 4712,3109 4743,3141 4746,3143 4771,3135 4776,3134 4772,3113 4769,3089 4779,3103 4789,3077 4823,3081 4821,3087 4833,3052 4825,3041 4827,3044 4815,3037 4821,3003 4816,3001 4847,2994 L 4845,2958 4821,2952 4811,2919 4827,2902 C 4823,2890 4817,2882 4811,2872 4785,2874 4789,2882 4772,2867 4753,2851 4763,2856 4764,2828 L 4738,2815 C 4720,2823 4719,2838 4693,2827 4667,2815 4691,2806 4667,2800 4630,2790 4648,2819 4623,2830 4594,2843 4602,2829 4582,2821 4546,2836 4556,2830 4560,2863 L 4544,2878 C 4537,2872 4447,2821 4432,2807 L 4447,2744 C 4464,2739 4480,2736 4492,2727 L 4488,2669 C 4473,2656 4465,2660 4443,2654 L 4423,2588 C 4433,2580 4446,2571 4455,2556 L 4424,2505 C 4402,2503 4394,2510 4377,2516 4366,2509 4340,2482 4329,2470 Z"/>
        </g>
       </g>
       <g class="com.sun.star.drawing.ClosedBezierShape">
        <g id="id9">
         <rect class="BoundingBox" stroke="none" fill="none" x="5444" y="1306" width="520" height="614"/>
         <path fill="rgb(254,254,254)" stroke="none" d="M 5573,1911 C 5598,1922 5672,1916 5706,1916 5733,1916 5832,1928 5836,1902 5839,1881 5831,1893 5831,1877 5830,1870 5841,1817 5856,1798 5924,1711 5990,1613 5950,1486 5874,1248 5536,1245 5458,1486 5413,1622 5489,1712 5552,1798 5565,1815 5566,1825 5571,1848 5583,1904 5567,1873 5573,1911 Z"/>
        </g>
       </g>
       <g class="com.sun.star.drawing.ClosedBezierShape">
        <g id="id10">
         <rect class="BoundingBox" stroke="none" fill="none" x="5201" y="2482" width="1017" height="554"/>
         <path fill="rgb(254,254,254)" stroke="none" d="M 6091,2689 C 6090,2756 6091,2825 6091,2893 6091,2914 6094,2924 6086,2941 6036,3047 6178,3071 6169,2970 6165,2929 6152,2974 6153,2880 6153,2810 6152,2741 6153,2672 6257,2657 6204,2605 6193,2600 L 5810,2504 C 5678,2470 5703,2479 5550,2517 5466,2538 5380,2560 5296,2581 5259,2591 5191,2592 5203,2642 5210,2670 5265,2673 5318,2686 5403,2708 5489,2728 5573,2750 5712,2784 5692,2787 5833,2752 5916,2731 6008,2704 6091,2689 Z"/>
        </g>
       </g>
       <g class="com.sun.star.drawing.ClosedBezierShape">
        <g id="id11">
         <rect class="BoundingBox" stroke="none" fill="none" x="5410" y="2752" width="597" height="301"/>
         <path fill="rgb(254,254,254)" stroke="none" d="M 6005,2752 C 5971,2750 5764,2819 5711,2820 5677,2821 5594,2796 5558,2787 5528,2779 5434,2752 5411,2752 5410,2800 5411,2848 5411,2897 5411,2963 5403,2977 5453,3004 5568,3067 5839,3067 5961,3005 6013,2980 6005,2966 6005,2901 6005,2851 6006,2802 6005,2752 Z"/>
        </g>
       </g>
       <g class="com.sun.star.drawing.ClosedBezierShape">
        <g id="id12">
         <rect class="BoundingBox" stroke="none" fill="none" x="5525" y="4804" width="614" height="562"/>
         <path fill="rgb(241,167,32)" stroke="none" d="M 5525,5347 C 5619,5347 5603,5354 5610,5316 5622,5246 5667,5082 5667,5028 5670,5032 5670,5031 5673,5036 L 5835,5364 C 5840,5345 5864,5302 5874,5283 5888,5255 5900,5227 5914,5198 5928,5170 5940,5146 5954,5118 L 5982,5055 C 5988,5039 5982,5042 5994,5033 5994,5085 6035,5243 6051,5313 6059,5354 6041,5347 6137,5347 6137,5326 6082,5105 6075,5072 6066,5030 6055,4982 6044,4937 6038,4917 6022,4815 6007,4804 6000,4837 5870,5103 5841,5173 5835,5189 5839,5188 5827,5196 5825,5179 5795,5112 5787,5094 5766,5054 5664,4817 5646,4804 L 5540,5276 C 5535,5294 5525,5329 5525,5347 Z"/>
        </g>
       </g>
       <g class="com.sun.star.drawing.ClosedBezierShape">
        <g id="id13">
         <rect class="BoundingBox" stroke="none" fill="none" x="6463" y="4158" width="425" height="424"/>
         <path fill="rgb(34,74,121)" stroke="none" d="M 6464,4577 L 6571,4577 6572,4323 C 6585,4331 6576,4322 6584,4336 6592,4346 6598,4354 6607,4365 6615,4376 6623,4385 6631,4396 6653,4425 6762,4559 6774,4581 L 6886,4581 6886,4158 6774,4158 6774,4408 C 6763,4402 6732,4360 6723,4348 6706,4325 6691,4307 6674,4285 L 6576,4158 6464,4158 6464,4577 Z"/>
        </g>
       </g>
       <g class="com.sun.star.drawing.ClosedBezierShape">
        <g id="id14">
         <rect class="BoundingBox" stroke="none" fill="none" x="3118" y="4821" width="445" height="529"/>
         <path fill="rgb(0,172,166)" stroke="none" d="M 3282,5270 L 3204,5270 3204,4899 C 3336,4899 3464,4886 3475,5081 3478,5149 3444,5235 3370,5260 3348,5267 3309,5270 3282,5270 Z M 3118,5348 C 3200,5348 3325,5354 3398,5335 3488,5312 3562,5217 3562,5115 3562,5019 3558,4951 3483,4883 3452,4854 3422,4839 3379,4832 3308,4818 3195,4822 3118,4822 L 3118,5348 Z"/>
        </g>
       </g>
       <g class="com.sun.star.drawing.ClosedBezierShape">
        <g id="id15">
         <rect class="BoundingBox" stroke="none" fill="none" x="3930" y="2491" width="438" height="440"/>
         <path fill="rgb(241,167,32)" stroke="none" d="M 4313,2854 C 4288,2834 4126,2777 4104,2755 4087,2738 4081,2703 4096,2678 4132,2615 4193,2660 4233,2686 L 4363,2764 C 4401,2468 4065,2408 3958,2609 3840,2830 4136,3048 4313,2854 Z"/>
        </g>
       </g>
       <g class="com.sun.star.drawing.ClosedBezierShape">
        <g id="id16">
         <rect class="BoundingBox" stroke="none" fill="none" x="3686" y="4821" width="433" height="540"/>
         <path fill="rgb(0,172,166)" stroke="none" d="M 3686,5153 C 3686,5277 3754,5360 3876,5360 3943,5360 4020,5359 4067,5305 4097,5271 4117,5220 4117,5157 L 4117,4821 4031,4821 4031,5140 C 4031,5327 3843,5293 3804,5247 3785,5224 3773,5193 3773,5153 L 3773,4821 3686,4821 3686,5153 Z"/>
        </g>
       </g>
       <g class="com.sun.star.drawing.ClosedBezierShape">
        <g id="id17">
         <rect class="BoundingBox" stroke="none" fill="none" x="7695" y="4158" width="373" height="433"/>
         <path fill="rgb(34,74,121)" stroke="none" d="M 7695,4421 C 7695,4478 7712,4515 7742,4543 7816,4614 8066,4630 8066,4396 L 8066,4158 7954,4158 7954,4408 C 7954,4522 7807,4511 7807,4421 L 7807,4158 7695,4158 7695,4421 Z"/>
        </g>
       </g>
       <g class="com.sun.star.drawing.ClosedBezierShape">
        <g id="id18">
         <rect class="BoundingBox" stroke="none" fill="none" x="7212" y="4158" width="451" height="424"/>
         <path fill="rgb(34,74,121)" stroke="none" d="M 7377,4353 C 7366,4373 7352,4390 7338,4408 L 7234,4550 C 7225,4562 7220,4567 7213,4581 L 7346,4581 7442,4447 7532,4581 7662,4581 C 7659,4554 7530,4399 7506,4353 L 7574,4257 C 7586,4239 7636,4172 7640,4158 L 7506,4158 7437,4262 7381,4158 7243,4158 C 7287,4224 7333,4287 7377,4353 Z"/>
        </g>
       </g>
       <g class="com.sun.star.drawing.ClosedBezierShape">
        <g id="id19">
         <rect class="BoundingBox" stroke="none" fill="none" x="3484" y="4116" width="488" height="475"/>
         <path fill="rgb(34,74,121)" stroke="none" d="M 3739,4521 L 3717,4521 C 3589,4521 3503,4344 3610,4238 3625,4223 3637,4211 3656,4202 3816,4127 3966,4319 3851,4465 3831,4491 3783,4521 3739,4521 Z M 3484,4344 L 3484,4366 C 3484,4480 3594,4590 3708,4590 3789,4590 3842,4580 3903,4517 3970,4450 3991,4350 3950,4258 3874,4087 3611,4057 3509,4248 3497,4269 3484,4312 3484,4344 Z"/>
        </g>
       </g>
       <g class="com.sun.star.drawing.PolyPolygonShape">
        <g id="id20">
         <rect class="BoundingBox" stroke="none" fill="none" x="2700" y="4821" width="295" height="528"/>
         <path fill="rgb(0,172,166)" stroke="none" d="M 2700,5347 L 2994,5347 2994,5270 2787,5270 2787,5102 2994,5102 2994,5024 2787,5024 2787,4895 2994,4895 2994,4821 2700,4821 2700,5347 Z"/>
        </g>
       </g>
       <g class="com.sun.star.drawing.ClosedBezierShape">
        <g id="id21">
         <rect class="BoundingBox" stroke="none" fill="none" x="6162" y="4804" width="511" height="545"/>
         <path fill="rgb(241,167,32)" stroke="none" d="M 6417,4968 L 6452,5054 C 6465,5082 6476,5113 6490,5140 L 6348,5140 C 6350,5129 6360,5108 6365,5097 6371,5084 6377,5070 6384,5056 6397,5027 6409,5001 6417,4968 Z M 6162,5347 L 6253,5347 C 6264,5326 6274,5303 6284,5279 L 6308,5225 C 6313,5216 6308,5213 6322,5213 L 6512,5213 C 6526,5213 6540,5254 6549,5276 6559,5302 6569,5324 6581,5347 L 6671,5347 6576,5144 C 6566,5121 6555,5100 6545,5076 L 6452,4873 C 6443,4856 6425,4823 6421,4804 L 6413,4804 C 6406,4832 6393,4850 6383,4873 L 6162,5347 Z"/>
        </g>
       </g>
       <g class="com.sun.star.drawing.ClosedBezierShape">
        <g id="id22">
         <rect class="BoundingBox" stroke="none" fill="none" x="4745" y="4804" width="507" height="545"/>
         <path fill="rgb(0,172,166)" stroke="none" d="M 5000,4968 C 5010,5008 5034,5058 5052,5097 5059,5113 5065,5120 5069,5140 L 4927,5140 C 4950,5097 4994,4984 4998,4973 L 5000,4968 Z M 4746,5347 L 4837,5347 4880,5248 C 4885,5237 4891,5230 4893,5213 L 5103,5213 C 5110,5240 5152,5316 5160,5347 L 5250,5347 C 5243,5319 5174,5185 5157,5142 L 5064,4939 C 5052,4916 5010,4814 4996,4804 4991,4824 4974,4851 4965,4872 L 4776,5278 C 4770,5290 4767,5299 4762,5311 4755,5325 4749,5332 4746,5347 Z"/>
        </g>
       </g>
       <g class="com.sun.star.drawing.ClosedBezierShape">
        <g id="id23">
         <rect class="BoundingBox" stroke="none" fill="none" x="4237" y="4808" width="450" height="553"/>
         <path fill="rgb(0,172,166)" stroke="none" d="M 4238,5084 C 4238,5237 4359,5360 4497,5360 4576,5360 4617,5356 4682,5313 L 4682,5218 C 4661,5223 4648,5250 4583,5270 4328,5349 4244,5007 4426,4910 4493,4874 4588,4888 4652,4928 4666,4937 4670,4943 4682,4951 L 4686,4860 C 4662,4854 4615,4808 4518,4808 4432,4808 4364,4844 4320,4887 4270,4938 4238,5008 4238,5084 Z"/>
        </g>
       </g>
       <g class="com.sun.star.drawing.ClosedBezierShape">
        <g id="id24">
         <rect class="BoundingBox" stroke="none" fill="none" x="4543" y="4128" width="388" height="455"/>
         <path fill="rgb(34,74,121)" stroke="none" d="M 4690,4512 L 4616,4512 4616,4193 C 4675,4193 4755,4189 4796,4220 4866,4273 4869,4413 4805,4476 4778,4503 4743,4512 4690,4512 Z M 4543,4581 C 4646,4581 4776,4591 4847,4539 4926,4480 4944,4358 4919,4274 4911,4245 4895,4215 4877,4196 4825,4144 4783,4128 4699,4128 L 4543,4128 4543,4581 Z"/>
        </g>
       </g>
       <g class="com.sun.star.drawing.ClosedBezierShape">
        <g id="id25">
         <rect class="BoundingBox" stroke="none" fill="none" x="6954" y="4808" width="343" height="554"/>
         <path fill="rgb(241,167,32)" stroke="none" d="M 7205,5196 C 7205,5306 7097,5289 7060,5263 7034,5246 7036,5235 7024,5209 7012,5215 7006,5218 6991,5224 6976,5230 6970,5236 6955,5239 6978,5339 7044,5360 7136,5360 7228,5360 7295,5293 7295,5200 7295,5049 7097,5048 7065,4974 7057,4953 7059,4933 7070,4915 7099,4865 7196,4883 7210,4933 L 7278,4899 C 7271,4867 7247,4846 7222,4831 7202,4820 7147,4806 7115,4810 7043,4819 6986,4850 6973,4926 6940,5111 7205,5103 7205,5196 Z"/>
        </g>
       </g>
       <g class="com.sun.star.drawing.ClosedBezierShape">
        <g id="id26">
         <rect class="BoundingBox" stroke="none" fill="none" x="8121" y="4146" width="313" height="444"/>
         <path fill="rgb(34,74,121)" stroke="none" d="M 8139,4274 L 8139,4309 C 8139,4410 8316,4405 8316,4447 8316,4489 8298,4495 8256,4495 8210,4495 8193,4463 8165,4456 8155,4473 8123,4531 8122,4546 8141,4551 8148,4564 8187,4576 8297,4611 8432,4577 8432,4456 8432,4395 8432,4368 8361,4333 8320,4313 8256,4312 8256,4274 8256,4242 8286,4240 8307,4240 8341,4240 8353,4260 8376,4266 8383,4237 8408,4209 8415,4180 8374,4158 8297,4136 8237,4152 8186,4166 8139,4213 8139,4274 Z"/>
        </g>
       </g>
       <g class="com.sun.star.drawing.ClosedBezierShape">
        <g id="id27">
         <rect class="BoundingBox" stroke="none" fill="none" x="2355" y="4110" width="408" height="485"/>
         <path fill="rgb(34,74,121)" stroke="none" d="M 2356,4581 L 2425,4581 2425,4270 2506,4353 C 2513,4361 2518,4366 2525,4373 L 2761,4594 2761,4128 2692,4128 2692,4435 2356,4111 2356,4581 Z"/>
        </g>
       </g>
       <g class="com.sun.star.drawing.ClosedBezierShape">
        <g id="id28">
         <rect class="BoundingBox" stroke="none" fill="none" x="6958" y="4158" width="244" height="426"/>
         <path fill="rgb(34,74,121)" stroke="none" d="M 7193,4413 L 7193,4323 7080,4322 C 7072,4321 7075,4320 7071,4318 L 7072,4253 7201,4253 7201,4158 6959,4158 6960,4571 C 6966,4587 6993,4581 7033,4581 7089,4581 7145,4581 7201,4581 L 7201,4486 7072,4486 7072,4413 7193,4413 Z"/>
        </g>
       </g>
       <g class="com.sun.star.drawing.ClosedBezierShape">
        <g id="id29">
         <rect class="BoundingBox" stroke="none" fill="none" x="4995" y="4128" width="377" height="463"/>
         <path fill="rgb(34,74,121)" stroke="none" d="M 4996,4373 C 4996,4491 5026,4589 5160,4589 5222,4589 5285,4590 5328,4543 5351,4518 5370,4472 5370,4425 L 5370,4128 5298,4128 5298,4382 C 5298,4465 5279,4511 5200,4521 5129,4531 5073,4491 5073,4417 L 5073,4128 4996,4128 4996,4373 Z"/>
        </g>
       </g>
       <g class="com.sun.star.drawing.ClosedBezierShape">
        <g id="id30">
         <rect class="BoundingBox" stroke="none" fill="none" x="3160" y="4128" width="313" height="454"/>
         <path fill="rgb(34,74,121)" stroke="none" d="M 3271,4193 C 3299,4193 3327,4198 3339,4222 3359,4265 3348,4316 3280,4318 L 3239,4318 3239,4193 3271,4193 Z M 3161,4581 L 3230,4581 3230,4378 3243,4378 C 3247,4392 3269,4416 3278,4429 L 3352,4528 C 3366,4546 3380,4562 3390,4581 L 3472,4581 C 3466,4560 3338,4399 3321,4373 3338,4372 3352,4367 3364,4361 3463,4310 3437,4128 3304,4128 L 3161,4128 3161,4581 Z"/>
        </g>
       </g>
       <g class="com.sun.star.drawing.ClosedBezierShape">
        <g id="id31">
         <rect class="BoundingBox" stroke="none" fill="none" x="5839" y="4110" width="442" height="472"/>
         <path fill="rgb(34,74,121)" stroke="none" d="M 6055,4258 L 6063,4258 C 6067,4297 6112,4369 6120,4400 L 5999,4400 C 6009,4378 6018,4353 6029,4331 6038,4313 6054,4282 6055,4258 Z M 5839,4581 L 5917,4581 C 5921,4571 5923,4564 5928,4554 5934,4541 5938,4535 5942,4524 L 5969,4465 6150,4465 C 6153,4478 6155,4480 6161,4492 L 6202,4581 6279,4581 6224,4463 C 6199,4411 6074,4125 6055,4111 L 5839,4581 Z"/>
        </g>
       </g>
       <g class="com.sun.star.drawing.ClosedBezierShape">
        <g id="id32">
         <rect class="BoundingBox" stroke="none" fill="none" x="1567" y="4115" width="395" height="476"/>
         <path fill="rgb(34,74,121)" stroke="none" d="M 1568,4353 C 1568,4485 1676,4589 1784,4589 1848,4589 1871,4593 1930,4564 1966,4546 1956,4537 1956,4469 1941,4472 1936,4479 1925,4486 1854,4533 1745,4538 1685,4468 1658,4436 1647,4393 1649,4347 1656,4189 1813,4148 1924,4217 1936,4224 1942,4233 1956,4236 1956,4206 1954,4187 1960,4163 1915,4138 1880,4115 1809,4115 1671,4115 1568,4225 1568,4353 Z"/>
        </g>
       </g>
       <g class="com.sun.star.drawing.ClosedBezierShape">
        <g id="id33">
         <rect class="BoundingBox" stroke="none" fill="none" x="5438" y="4115" width="391" height="477"/>
         <path fill="rgb(34,74,121)" stroke="none" d="M 5439,4339 C 5439,4412 5454,4472 5505,4523 5511,4529 5528,4542 5534,4546 5599,4594 5694,4601 5768,4577 5793,4569 5802,4562 5823,4551 L 5823,4465 C 5760,4507 5751,4521 5663,4521 5477,4521 5452,4185 5685,4185 5755,4185 5787,4218 5823,4237 5823,4174 5852,4162 5768,4132 5706,4110 5644,4110 5583,4134 5553,4146 5534,4161 5512,4180 5473,4210 5439,4283 5439,4339 Z"/>
        </g>
       </g>
       <g class="com.sun.star.drawing.ClosedBezierShape">
        <g id="id34">
         <rect class="BoundingBox" stroke="none" fill="none" x="4220" y="4128" width="257" height="454"/>
         <path fill="rgb(34,74,121)" stroke="none" d="M 4292,4301 L 4294,4188 4475,4188 4475,4128 4220,4128 4220,4575 C 4226,4583 4219,4578 4230,4580 4233,4581 4243,4581 4247,4581 L 4469,4579 C 4476,4575 4475,4568 4475,4555 4476,4503 4477,4512 4423,4512 4389,4512 4326,4516 4295,4510 L 4294,4370 C 4343,4366 4403,4371 4454,4369 4481,4369 4475,4361 4475,4335 4475,4292 4481,4301 4402,4301 4365,4301 4329,4301 4292,4301 Z"/>
        </g>
       </g>
       <g class="com.sun.star.drawing.ClosedBezierShape">
        <g id="id35">
         <rect class="BoundingBox" stroke="none" fill="none" x="2033" y="4128" width="256" height="454"/>
         <path fill="rgb(34,74,121)" stroke="none" d="M 2282,4516 L 2282,4515 2115,4514 2146,4514 C 2132,4514 2119,4512 2107,4509 L 2106,4371 C 2144,4365 2220,4371 2266,4369 2292,4369 2288,4361 2288,4335 2288,4292 2294,4301 2214,4301 2177,4301 2141,4301 2104,4301 L 2106,4188 2288,4188 2288,4128 2033,4128 2033,4575 C 2037,4581 2034,4581 2059,4581 L 2281,4579 C 2288,4575 2288,4568 2288,4555 2288,4550 2288,4528 2288,4524 2287,4521 2285,4518 2282,4516 Z M 2279,4515 L 2169,4514 C 2214,4513 2260,4506 2279,4515 Z"/>
        </g>
       </g>
       <g class="com.sun.star.drawing.ClosedBezierShape">
        <g id="id36">
         <rect class="BoundingBox" stroke="none" fill="none" x="2803" y="4128" width="317" height="455"/>
         <path fill="rgb(34,74,121)" stroke="none" d="M 2804,4188 L 2924,4188 2924,4581 C 2976,4581 3002,4588 3002,4568 L 3002,4188 3119,4188 3119,4128 2804,4128 2804,4188 Z"/>
        </g>
       </g>
       <g class="com.sun.star.drawing.PolyPolygonShape">
        <g id="id37">
         <rect class="BoundingBox" stroke="none" fill="none" x="6748" y="4821" width="88" height="528"/>
         <path fill="rgb(241,167,32)" stroke="none" d="M 6748,5347 L 6835,5347 6835,4821 6748,4821 6748,5347 Z"/>
        </g>
       </g>
       <g class="com.sun.star.drawing.ClosedBezierShape">
        <g id="id38">
         <rect class="BoundingBox" stroke="none" fill="none" x="4547" y="2863" width="237" height="238"/>
         <path fill="rgb(241,167,32)" stroke="none" d="M 4581,2904 C 4605,2913 4624,2929 4647,2944 4665,2954 4714,2976 4677,3001 4649,3016 4582,2962 4550,2960 4524,3094 4701,3151 4766,3042 4826,2939 4713,2825 4613,2876 4607,2879 4602,2882 4597,2886 L 4581,2904 Z"/>
        </g>
       </g>
       <g class="com.sun.star.drawing.ClosedBezierShape">
        <g id="id39">
         <rect class="BoundingBox" stroke="none" fill="none" x="5582" y="1930" width="243" height="45"/>
         <path fill="rgb(254,254,254)" stroke="none" d="M 5821,1943 C 5811,1922 5720,1934 5693,1934 5670,1934 5647,1934 5624,1934 5603,1933 5573,1931 5586,1962 5592,1978 5691,1971 5715,1971 5741,1971 5842,1985 5821,1943 Z"/>
        </g>
       </g>
       <g class="com.sun.star.drawing.ClosedBezierShape">
        <g id="id40">
         <rect class="BoundingBox" stroke="none" fill="none" x="5620" y="1989" width="172" height="48"/>
         <path fill="rgb(254,254,254)" stroke="none" d="M 5620,1990 C 5621,2052 5787,2049 5790,1990 L 5620,1990 Z"/>
        </g>
       </g>
       <g class="com.sun.star.drawing.ClosedBezierShape">
        <g id="id41">
         <rect class="BoundingBox" stroke="none" fill="none" x="5322" y="1340" width="136" height="84"/>
         <path fill="rgb(254,254,254)" stroke="none" d="M 5454,1422 C 5459,1406 5453,1404 5435,1395 5411,1381 5338,1332 5327,1342 5311,1358 5347,1371 5379,1389 5398,1400 5437,1428 5454,1422 Z"/>
        </g>
       </g>
       <g class="com.sun.star.drawing.ClosedBezierShape">
        <g id="id42">
         <rect class="BoundingBox" stroke="none" fill="none" x="5841" y="1182" width="89" height="137"/>
         <path fill="rgb(254,254,254)" stroke="none" d="M 5859,1317 C 5870,1300 5885,1272 5898,1250 5904,1240 5910,1230 5917,1217 5928,1199 5934,1197 5922,1183 5902,1186 5887,1222 5872,1250 5844,1300 5827,1310 5859,1317 Z"/>
        </g>
       </g>
       <g class="com.sun.star.drawing.ClosedBezierShape">
        <g id="id43">
         <rect class="BoundingBox" stroke="none" fill="none" x="5480" y="1181" width="85" height="135"/>
         <path fill="rgb(254,254,254)" stroke="none" d="M 5562,1314 C 5571,1294 5531,1244 5511,1206 5505,1195 5498,1170 5482,1186 5473,1197 5506,1243 5513,1255 5520,1267 5527,1280 5534,1292 5542,1307 5546,1318 5562,1314 Z"/>
        </g>
       </g>
       <g class="com.sun.star.drawing.ClosedBezierShape">
        <g id="id44">
         <rect class="BoundingBox" stroke="none" fill="none" x="5952" y="1340" width="134" height="85"/>
         <path fill="rgb(254,254,254)" stroke="none" d="M 5953,1423 C 5976,1427 6027,1389 6059,1372 6076,1362 6085,1362 6084,1343 6067,1334 6040,1355 6012,1372 5964,1402 5948,1399 5953,1423 Z"/>
        </g>
       </g>
       <g class="com.sun.star.drawing.ClosedBezierShape">
        <g id="id45">
         <rect class="BoundingBox" stroke="none" fill="none" x="5689" y="1124" width="29" height="154"/>
         <path fill="rgb(254,254,254)" stroke="none" d="M 5691,1174 C 5692,1199 5685,1258 5699,1276 5721,1274 5716,1255 5716,1213 L 5714,1125 5694,1125 5691,1174 Z"/>
        </g>
       </g>
       <g class="com.sun.star.drawing.ClosedBezierShape">
        <g id="id46">
         <rect class="BoundingBox" stroke="none" fill="none" x="6463" y="4322" width="123" height="261"/>
         <path fill="rgb(168,184,198)" stroke="none" d="M 6464,4577 L 6551,4581 C 6583,4581 6576,4584 6576,4516 6576,4454 6576,4393 6576,4331 L 6584,4335 C 6577,4321 6585,4330 6572,4323 L 6572,4577 6464,4577 Z"/>
        </g>
       </g>
       <g class="com.sun.star.drawing.ClosedBezierShape">
        <g id="id47">
         <rect class="BoundingBox" stroke="none" fill="none" x="7070" y="4316" width="129" height="98"/>
         <path fill="rgb(168,184,198)" stroke="none" d="M 7193,4413 C 7198,4402 7196,4378 7196,4361 7196,4339 7203,4321 7183,4318 7163,4314 7095,4318 7070,4318 7074,4320 7072,4321 7080,4322 L 7193,4323 7193,4413 Z"/>
        </g>
       </g>
       <g class="com.sun.star.drawing.ClosedBezierShape">
        <g id="id48">
         <rect class="BoundingBox" stroke="none" fill="none" x="4131" y="2684" width="57" height="58"/>
         <path fill="rgb(241,167,32)" stroke="none" d="M 4159,2685 C 4175,2685 4187,2697 4187,2712 4187,2728 4175,2740 4159,2740 4144,2740 4131,2728 4131,2712 4131,2697 4144,2685 4159,2685 Z"/>
        </g>
       </g>
       <g class="com.sun.star.drawing.ClosedBezierShape">
        <g id="id49">
         <rect class="BoundingBox" stroke="none" fill="none" x="4634" y="2956" width="35" height="35"/>
         <path fill="rgb(241,167,32)" stroke="none" d="M 4651,2957 C 4660,2957 4667,2964 4667,2973 4667,2982 4660,2989 4651,2989 4642,2989 4634,2982 4634,2973 4634,2964 4642,2957 4651,2957 Z"/>
        </g>
       </g>
      </g>
     </g>
    </g>
   </g>
  </g>
 </g>
</svg>