<?xml version="1.0" encoding="UTF-8"?>
<!DOCTYPE svg PUBLIC "-//W3C//DTD SVG 1.1//EN" "http://www.w3.org/Graphics/SVG/1.1/DTD/svg11.dtd">
<svg version="1.2" width="100mm" height="60mm" viewBox="0 0 10000 6000" preserveAspectRatio="xMidYMid" fill-rule="evenodd" stroke-width="28.222" stroke-linejoin="round" xmlns="http://www.w3.org/2000/svg" xmlns:ooo="http://xml.openoffice.org/svg/export" xmlns:xlink="http://www.w3.org/1999/xlink" xmlns:presentation="http://sun.com/xmlns/staroffice/presentation" xmlns:smil="http://www.w3.org/2001/SMIL20/" xmlns:anim="urn:oasis:names:tc:opendocument:xmlns:animation:1.0" xml:space="preserve">
 <defs class="ClipPathGroup">
  <clipPath id="presentation_clip_path" clipPathUnits="userSpaceOnUse">
   <rect x="0" y="0" width="10000" height="6000"/>
  </clipPath>
  <clipPath id="presentation_clip_path_shrink" clipPathUnits="userSpaceOnUse">
   <rect x="10" y="6" width="9980" height="5988"/>
  </clipPath>
 </defs>
 <defs class="TextShapeIndex">
  <g ooo:slide="id1" ooo:id-list="id3 id4 id5 id6 id7 id8 id9 id10 id11 id12 id13 id14 id15 id16 id17 id18 id19 id20 id21 id22 id23 id24 id25 id26 id27 id28 id29 id30 id31 id32 id33 id34"/>
 </defs>
 <defs class="EmbeddedBulletChars">
  <g id="bullet-char-template-57356" transform="scale(0.00048828125,-0.00048828125)">
   <path d="M 580,1141 L 1163,571 580,0 -4,571 580,1141 Z"/>
  </g>
  <g id="bullet-char-template-57354" transform="scale(0.00048828125,-0.00048828125)">
   <path d="M 8,1128 L 1137,1128 1137,0 8,0 8,1128 Z"/>
  </g>
  <g id="bullet-char-template-10146" transform="scale(0.00048828125,-0.00048828125)">
   <path d="M 174,0 L 602,739 174,1481 1456,739 174,0 Z M 1358,739 L 309,1346 659,739 1358,739 Z"/>
  </g>
  <g id="bullet-char-template-10132" transform="scale(0.00048828125,-0.00048828125)">
   <path d="M 2015,739 L 1276,0 717,0 1260,543 174,543 174,936 1260,936 717,1481 1274,1481 2015,739 Z"/>
  </g>
  <g id="bullet-char-template-10007" transform="scale(0.00048828125,-0.00048828125)">
   <path d="M 0,-2 C -7,14 -16,27 -25,37 L 356,567 C 262,823 215,952 215,954 215,979 228,992 255,992 264,992 276,990 289,987 310,991 331,999 354,1012 L 381,999 492,748 772,1049 836,1024 860,1049 C 881,1039 901,1025 922,1006 886,937 835,863 770,784 769,783 710,716 594,584 L 774,223 C 774,196 753,168 711,139 L 727,119 C 717,90 699,76 672,76 641,76 570,178 457,381 L 164,-76 C 142,-110 111,-127 72,-127 30,-127 9,-110 8,-76 1,-67 -2,-52 -2,-32 -2,-23 -1,-13 0,-2 Z"/>
  </g>
  <g id="bullet-char-template-10004" transform="scale(0.00048828125,-0.00048828125)">
   <path d="M 285,-33 C 182,-33 111,30 74,156 52,228 41,333 41,471 41,549 55,616 82,672 116,743 169,778 240,778 293,778 328,747 346,684 L 369,508 C 377,444 397,411 428,410 L 1163,1116 C 1174,1127 1196,1133 1229,1133 1271,1133 1292,1118 1292,1087 L 1292,965 C 1292,929 1282,901 1262,881 L 442,47 C 390,-6 338,-33 285,-33 Z"/>
  </g>
  <g id="bullet-char-template-9679" transform="scale(0.00048828125,-0.00048828125)">
   <path d="M 813,0 C 632,0 489,54 383,161 276,268 223,411 223,592 223,773 276,916 383,1023 489,1130 632,1184 813,1184 992,1184 1136,1130 1245,1023 1353,916 1407,772 1407,592 1407,412 1353,268 1245,161 1136,54 992,0 813,0 Z"/>
  </g>
  <g id="bullet-char-template-8226" transform="scale(0.00048828125,-0.00048828125)">
   <path d="M 346,457 C 273,457 209,483 155,535 101,586 74,649 74,723 74,796 101,859 155,911 209,963 273,989 346,989 419,989 480,963 531,910 582,859 608,796 608,723 608,648 583,586 532,535 482,483 420,457 346,457 Z"/>
  </g>
  <g id="bullet-char-template-8211" transform="scale(0.00048828125,-0.00048828125)">
   <path d="M -4,459 L 1135,459 1135,606 -4,606 -4,459 Z"/>
  </g>
  <g id="bullet-char-template-61548" transform="scale(0.00048828125,-0.00048828125)">
   <path d="M 173,740 C 173,903 231,1043 346,1159 462,1274 601,1332 765,1332 928,1332 1067,1274 1183,1159 1299,1043 1357,903 1357,740 1357,577 1299,437 1183,322 1067,206 928,148 765,148 601,148 462,206 346,322 231,437 173,577 173,740 Z"/>
  </g>
 </defs>
 <g>
  <g id="id2" class="Master_Slide">
   <g id="bg-id2" class="Background"/>
   <g id="bo-id2" class="BackgroundObjects"/>
  </g>
 </g>
 <g class="SlideGroup">
  <g>
   <g id="container-id1">
    <g id="id1" class="Slide" clip-path="url(#presentation_clip_path)">
     <g class="Page">
      <g class="Group">
       <g class="com.sun.star.drawing.ClosedBezierShape">
        <g id="id3">
         <rect class="BoundingBox" stroke="none" fill="none" x="393" y="2478" width="2477" height="1697"/>
         <path fill="rgb(158,32,46)" stroke="none" d="M 394,3528 C 394,3624 377,3691 468,3750 588,3831 859,3983 990,4055 1045,4086 1163,4162 1208,4173 L 1396,4098 C 1408,4094 1415,4092 1427,4087 L 1461,4069 C 1464,3972 1472,3983 1423,3932 1314,3816 1327,3662 1325,3505 L 1147,3414 1065,3379 C 1060,3437 1062,3514 1063,3573 1063,3629 1068,3600 1087,3643 1097,3665 1104,3696 1104,3721 1045,3750 1027,3740 978,3719 980,3689 983,3659 998,3635 1023,3596 1020,3620 1020,3558 1019,3488 1018,3417 1019,3347 L 1215,3254 C 1224,3241 1545,3086 1608,3051 1670,3018 1687,3047 1746,3077 L 2148,3280 C 2188,3302 2243,3332 2282,3347 2264,3368 2237,3377 2208,3392 L 1979,3507 C 1974,3669 1996,3804 1877,3932 1829,3983 1840,3980 1842,4075 L 2065,4160 C 2093,4158 2418,3972 2470,3942 2553,3894 2812,3764 2845,3698 2880,3629 2864,3208 2864,3097 2864,2900 2874,2671 2862,2478 L 2820,2479 C 2275,2527 1902,2654 1451,2843 1150,2969 878,3138 633,3335 L 394,3528 Z"/>
        </g>
       </g>
       <g class="com.sun.star.drawing.ClosedBezierShape">
        <g id="id4">
         <rect class="BoundingBox" stroke="none" fill="none" x="394" y="1991" width="2472" height="1538"/>
         <path fill="rgb(254,254,254)" stroke="none" d="M 2340,1992 C 2218,1986 1828,2117 1719,2161 1527,2239 1361,2328 1206,2434 1007,2571 970,2625 823,2742 803,2757 794,2771 775,2787 715,2837 584,2977 533,3042 519,3061 504,3072 489,3091 472,3112 418,3179 394,3193 L 394,3528 633,3336 C 878,3139 1150,2969 1450,2844 1902,2655 2275,2527 2820,2480 2834,2467 2838,2464 2862,2464 2864,2433 2865,2386 2862,2356 2860,2325 2843,2303 2842,2283 L 2816,2277 C 2731,2247 2210,2342 2102,2365 1808,2426 1694,2495 1486,2551 1487,2550 1489,2548 1490,2547 1491,2547 1493,2545 1494,2543 L 1549,2511 C 1894,2327 2089,2243 2488,2183 2543,2175 2606,2173 2660,2159 2661,2178 2591,2125 2581,2119 2557,2103 2526,2088 2498,2073 2458,2051 2366,1986 2340,1992 Z"/>
        </g>
       </g>
       <g class="com.sun.star.drawing.ClosedBezierShape">
        <g id="id5">
         <rect class="BoundingBox" stroke="none" fill="none" x="394" y="1600" width="1948" height="1595"/>
         <path fill="rgb(17,27,78)" stroke="none" d="M 394,2347 L 394,3193 C 418,3179 472,3112 489,3091 504,3072 519,3061 533,3042 584,2977 715,2837 775,2787 794,2771 803,2757 823,2742 970,2625 1007,2571 1206,2434 1362,2328 1528,2239 1719,2161 1828,2117 2218,1986 2340,1992 2307,1950 1750,1655 1666,1600 L 1603,1600 C 1582,1611 1543,1625 1519,1637 1490,1652 1466,1667 1440,1681 1383,1710 1338,1738 1283,1769 L 659,2124 C 609,2153 473,2231 437,2269 412,2295 412,2315 394,2347 Z"/>
        </g>
       </g>
       <g class="com.sun.star.drawing.ClosedBezierShape">
        <g id="id6">
         <rect class="BoundingBox" stroke="none" fill="none" x="5711" y="2014" width="1222" height="1500"/>
         <path fill="rgb(158,32,46)" stroke="none" d="M 5743,2270 C 5623,2857 6016,2827 6467,2913 6584,2935 6642,2952 6641,3084 6641,3152 6636,3174 6594,3209 6560,3237 6514,3252 6461,3255 6396,3258 6179,3262 6128,3244 6037,3213 6001,3142 5995,3025 L 5712,3024 C 5712,3159 5741,3266 5822,3363 5835,3380 5841,3386 5858,3400 5867,3406 5869,3408 5878,3415 L 5903,3439 C 5929,3443 5996,3481 6045,3494 6164,3525 6524,3514 6628,3487 6741,3457 6825,3396 6873,3323 6940,3222 6953,2964 6892,2855 6874,2822 6845,2794 6822,2774 6770,2732 6695,2699 6615,2679 6535,2657 6443,2645 6360,2632 6171,2599 5966,2606 6018,2381 6036,2305 6119,2274 6209,2272 6420,2268 6606,2232 6618,2466 L 6901,2466 C 6899,2323 6870,2312 6835,2208 6827,2204 6768,2135 6746,2116 6716,2091 6666,2063 6620,2047 6483,1999 6083,2001 5929,2075 5884,2097 5843,2128 5816,2157 5757,2220 5761,2254 5743,2270 Z"/>
        </g>
       </g>
       <g class="com.sun.star.drawing.ClosedBezierShape">
        <g id="id7">
         <rect class="BoundingBox" stroke="none" fill="none" x="7061" y="2033" width="1259" height="1479"/>
         <path fill="rgb(158,32,46)" stroke="none" d="M 8318,3043 L 8319,2038 8040,2039 C 8032,2296 8039,2668 8039,2946 8039,2969 8039,2988 8037,3011 L 8028,3061 C 8028,3059 8026,3065 8025,3067 7970,3268 7838,3255 7692,3255 7563,3255 7411,3271 7362,3068 7328,2929 7373,2254 7351,2033 L 7068,2034 C 7056,2090 7064,2717 7064,2831 7064,2968 7055,3079 7101,3200 7182,3416 7367,3508 7592,3509 7812,3510 8062,3532 8212,3329 8261,3264 8325,3150 8318,3043 Z"/>
        </g>
       </g>
       <g class="com.sun.star.drawing.ClosedBezierShape">
        <g id="id8">
         <rect class="BoundingBox" stroke="none" fill="none" x="4308" y="2033" width="1404" height="1462"/>
         <path fill="rgb(158,32,46)" stroke="none" d="M 5016,2390 L 5206,2910 4818,2911 C 4821,2900 4975,2464 5003,2409 L 5012,2395 C 5013,2393 5014,2391 5016,2390 Z M 4799,2234 C 4781,2300 4552,2873 4540,2899 L 4309,3493 4597,3494 C 4619,3489 4624,3456 4638,3419 L 4741,3155 5281,3154 5411,3493 5711,3494 5702,3454 C 5678,3430 5302,2435 5247,2302 5228,2242 5181,2120 5148,2086 5090,2025 4985,2032 4881,2035 L 4799,2234 Z"/>
        </g>
       </g>
       <g class="com.sun.star.drawing.ClosedBezierShape">
        <g id="id9">
         <rect class="BoundingBox" stroke="none" fill="none" x="1099" y="3036" width="1184" height="1365"/>
         <path fill="rgb(254,254,254)" stroke="none" d="M 1215,3254 C 1202,3316 1181,3298 1169,3300 1169,3300 1140,3298 1142,3328 1144,3360 1149,3337 1150,3333 L 1100,3349 C 1102,3350 1104,3352 1106,3353 1107,3354 1110,3356 1111,3358 1143,3379 1112,3376 1151,3375 1212,3373 1144,3359 1193,3356 1201,3370 1195,3358 1200,3370 1188,3377 1188,3385 1173,3384 L 1159,3377 C 1153,3427 1169,3403 1147,3414 L 1324,3505 C 1326,3663 1314,3816 1423,3932 1472,3984 1464,3972 1461,4069 L 1427,4087 C 1415,4092 1408,4094 1396,4098 L 1208,4173 C 1220,4202 1451,4320 1489,4342 L 1584,4400 1673,4400 1989,4218 C 2003,4209 2039,4186 2039,4186 2040,4186 2041,4185 2041,4185 2042,4184 2043,4183 2043,4183 2043,4183 2045,4182 2045,4182 L 2064,4160 1842,4076 C 1839,3981 1828,3984 1877,3932 1996,3805 1973,3669 1978,3507 L 2208,3391 C 2237,3377 2264,3368 2282,3347 2243,3332 2188,3302 2147,3280 L 1746,3077 C 1686,3047 1669,3018 1608,3051 1545,3086 1224,3241 1215,3254 Z"/>
        </g>
       </g>
       <g class="com.sun.star.drawing.PolyPolygonShape">
        <g id="id10">
         <rect class="BoundingBox" stroke="none" fill="none" x="3375" y="2033" width="1094" height="1462"/>
         <path fill="rgb(158,32,46)" stroke="none" d="M 4390,2929 L 4387,2675 3664,2672 3665,2285 4468,2283 4465,2034 3379,2037 3376,3491 3664,3494 3664,2928 4390,2929 Z"/>
        </g>
       </g>
       <g class="com.sun.star.drawing.ClosedBezierShape">
        <g id="id11">
         <rect class="BoundingBox" stroke="none" fill="none" x="8528" y="2037" width="1080" height="1461"/>
         <path fill="rgb(158,32,46)" stroke="none" d="M 8529,3323 C 8528,3415 8598,3474 8682,3489 8733,3498 9547,3499 9607,3491 L 9607,3245 8818,3242 C 8808,3231 8813,3243 8810,3226 L 8809,2037 8529,2037 8529,3323 Z"/>
        </g>
       </g>
       <g class="com.sun.star.drawing.ClosedBezierShape">
        <g id="id12">
         <rect class="BoundingBox" stroke="none" fill="none" x="6824" y="3824" width="488" height="477"/>
         <path fill="rgb(17,27,78)" stroke="none" d="M 7225,4298 C 7235,4278 7306,3872 7310,3825 L 7220,3827 C 7210,3882 7178,4110 7160,4138 7127,4091 7099,4030 7073,3982 7045,3932 7015,3874 6988,3825 L 6908,3825 6824,4300 6916,4300 6971,3986 6991,4008 C 6993,4010 6998,4022 7001,4027 7007,4040 7012,4050 7020,4064 L 7145,4299 7225,4298 Z"/>
        </g>
       </g>
       <g class="com.sun.star.drawing.ClosedBezierShape">
        <g id="id13">
         <rect class="BoundingBox" stroke="none" fill="none" x="3816" y="3820" width="449" height="482"/>
         <path fill="rgb(17,27,78)" stroke="none" d="M 3917,4216 C 3916,4174 3955,3937 3971,3909 4166,3895 4190,3897 4156,4081 4127,4242 4079,4220 3917,4216 Z M 3816,4270 C 3865,4307 3837,4300 3950,4300 4097,4300 4217,4317 4249,4094 4281,3870 4292,3796 3883,3827 3888,3869 3858,3997 3849,4047 3837,4108 3814,4210 3816,4270 Z"/>
        </g>
       </g>
       <g class="com.sun.star.drawing.ClosedBezierShape">
        <g id="id14">
         <rect class="BoundingBox" stroke="none" fill="none" x="4884" y="3895" width="528" height="430"/>
         <path fill="rgb(246,246,247)" stroke="none" d="M 5165,4244 C 5184,4239 5178,4225 5185,4255 5191,4284 5188,4254 5179,4276 L 5173,4299 C 5207,4330 5272,4332 5308,4301 5323,4290 5355,4229 5349,4200 5326,4218 5300,4271 5290,4299 L 5189,4299 C 5209,4243 5387,3966 5410,3896 5386,3904 5412,3886 5390,3911 L 5382,3921 C 5375,3931 5375,3944 5365,3942 L 5338,3928 C 5307,3907 5354,3904 5303,3910 L 5317,3943 C 5318,3945 5334,3923 5317,3967 5306,3996 5332,3968 5303,3982 5233,3964 5317,3990 5268,3937 L 5250,3920 C 5238,3907 5257,3920 5230,3896 L 5238,3986 C 5228,3989 5243,3987 5216,3991 L 5152,3993 C 5150,3991 5150,3986 5149,3987 L 5144,3968 C 5140,3950 5139,3922 5110,3909 5088,3899 5012,3901 4987,3905 4917,3918 4910,3992 4896,4065 4880,4154 4865,4221 4971,4223 5089,4224 5084,4211 5123,4123 L 5212,4122 C 5209,4173 5180,4209 5165,4244 Z"/>
        </g>
       </g>
       <g class="com.sun.star.drawing.ClosedBezierShape">
        <g id="id15">
         <rect class="BoundingBox" stroke="none" fill="none" x="6348" y="3816" width="460" height="495"/>
         <path fill="rgb(17,27,78)" stroke="none" d="M 6536,3910 C 6564,3899 6734,3864 6711,4008 6698,4089 6691,4185 6628,4213 6603,4225 6512,4226 6485,4218 6445,4206 6439,4161 6445,4112 6458,4013 6463,3938 6536,3910 Z M 6801,4026 C 6832,3843 6724,3801 6550,3821 6400,3838 6377,3953 6353,4098 6324,4281 6431,4325 6605,4305 6757,4288 6776,4173 6801,4026 Z"/>
        </g>
       </g>
       <g class="com.sun.star.drawing.ClosedBezierShape">
        <g id="id16">
         <rect class="BoundingBox" stroke="none" fill="none" x="1485" y="2159" width="1332" height="394"/>
         <path fill="rgb(158,32,46)" stroke="none" d="M 2816,2278 C 2813,2260 2810,2258 2790,2242 2740,2204 2711,2197 2682,2178 L 2660,2159 C 2606,2173 2543,2175 2488,2183 2089,2244 1893,2327 1549,2511 L 1494,2543 C 1493,2545 1491,2547 1490,2547 1489,2548 1487,2550 1486,2551 1693,2495 1808,2426 2101,2365 2210,2342 2731,2248 2816,2278 Z"/>
        </g>
       </g>
       <g class="com.sun.star.drawing.ClosedBezierShape">
        <g id="id17">
         <rect class="BoundingBox" stroke="none" fill="none" x="3391" y="3820" width="433" height="482"/>
         <path fill="rgb(17,27,78)" stroke="none" d="M 3752,4251 L 3756,4218 3489,4217 3511,4098 3758,4098 3770,4016 3524,4016 3545,3907 3799,3907 C 3817,3897 3811,3912 3819,3872 3823,3857 3823,3837 3823,3821 3732,3839 3566,3817 3463,3827 3436,3947 3414,4089 3395,4212 3379,4316 3428,4300 3518,4300 3593,4299 3668,4300 3743,4299 L 3752,4251 Z"/>
        </g>
       </g>
       <g class="com.sun.star.drawing.ClosedBezierShape">
        <g id="id18">
         <rect class="BoundingBox" stroke="none" fill="none" x="4818" y="2389" width="390" height="524"/>
         <path fill="rgb(246,246,246)" stroke="none" d="M 5016,2390 C 5015,2391 5013,2393 5012,2394 L 5003,2408 C 4975,2464 4821,2900 4818,2911 L 5206,2910 5016,2390 Z"/>
        </g>
       </g>
       <g class="com.sun.star.drawing.ClosedBezierShape">
        <g id="id19">
         <rect class="BoundingBox" stroke="none" fill="none" x="4304" y="3824" width="467" height="485"/>
         <path fill="rgb(17,27,78)" stroke="none" d="M 4678,3825 C 4663,3904 4649,3985 4636,4065 4622,4159 4617,4221 4512,4222 4373,4224 4394,4176 4416,4059 4427,4000 4453,3878 4454,3825 L 4363,3827 C 4346,3928 4317,4044 4306,4143 4291,4281 4386,4308 4512,4307 4637,4305 4693,4247 4717,4138 4733,4064 4768,3896 4770,3825 L 4678,3825 Z"/>
        </g>
       </g>
       <g class="com.sun.star.drawing.ClosedBezierShape">
        <g id="id20">
         <rect class="BoundingBox" stroke="none" fill="none" x="4793" y="3814" width="447" height="496"/>
         <path fill="rgb(17,27,78)" stroke="none" d="M 5165,4244 C 5180,4208 5210,4173 5213,4122 L 5123,4123 C 5085,4211 5089,4224 4971,4222 4865,4221 4880,4154 4896,4065 4910,3992 4917,3919 4987,3905 5012,3901 5089,3899 5111,3909 5140,3922 5140,3950 5144,3968 L 5150,3987 C 5150,3986 5151,3991 5152,3993 L 5217,3991 C 5243,3987 5229,3989 5239,3986 L 5230,3896 C 5213,3885 5206,3838 5124,3823 4954,3792 4836,3844 4807,4035 4790,4146 4769,4261 4881,4296 4925,4311 5001,4311 5049,4304 5124,4292 5137,4258 5165,4244 Z"/>
        </g>
       </g>
       <g class="com.sun.star.drawing.ClosedBezierShape">
        <g id="id21">
         <rect class="BoundingBox" stroke="none" fill="none" x="5688" y="3817" width="449" height="495"/>
         <path fill="rgb(17,27,78)" stroke="none" d="M 6094,4191 L 6110,4122 6023,4122 C 6001,4155 6007,4219 5908,4222 5829,4225 5773,4224 5781,4136 5785,4093 5802,3992 5818,3957 5849,3892 5908,3902 5994,3904 6036,3920 6043,3935 6041,3993 6071,3993 6107,3997 6134,3986 6150,3835 6032,3808 5894,3819 5764,3831 5726,3916 5703,4037 5678,4170 5668,4280 5809,4304 5899,4319 5994,4311 6055,4245 6069,4230 6080,4199 6094,4191 Z"/>
        </g>
       </g>
       <g class="com.sun.star.drawing.ClosedBezierShape">
        <g id="id22">
         <rect class="BoundingBox" stroke="none" fill="none" x="7275" y="3825" width="455" height="477"/>
         <path fill="rgb(17,27,78)" stroke="none" d="M 7477,4110 C 7489,4080 7550,3964 7570,3946 L 7600,4111 7477,4110 Z M 7433,4192 L 7614,4191 7634,4300 7729,4300 C 7714,4208 7690,4116 7671,4026 7662,3980 7653,3935 7643,3887 7629,3820 7611,3825 7542,3826 L 7338,4183 C 7322,4213 7286,4269 7275,4299 L 7375,4299 7433,4192 Z"/>
        </g>
       </g>
       <g class="com.sun.star.drawing.ClosedBezierShape">
        <g id="id23">
         <rect class="BoundingBox" stroke="none" fill="none" x="5188" y="3825" width="456" height="476"/>
         <path fill="rgb(17,27,78)" stroke="none" d="M 5477,3946 C 5502,3980 5509,4063 5512,4110 L 5389,4109 5477,3946 Z M 5410,3896 C 5386,3966 5209,4243 5189,4299 L 5290,4299 C 5300,4271 5326,4218 5349,4200 5358,4189 5326,4192 5367,4191 L 5527,4191 5546,4300 5642,4299 C 5628,4209 5603,4113 5585,4025 5541,3822 5563,3824 5455,3826 L 5410,3896 Z"/>
        </g>
       </g>
       <g class="com.sun.star.drawing.ClosedBezierShape">
        <g id="id24">
         <rect class="BoundingBox" stroke="none" fill="none" x="3488" y="3809" width="399" height="495"/>
         <path fill="rgb(246,246,247)" stroke="none" d="M 3823,3821 C 3823,3837 3823,3857 3819,3872 3811,3912 3817,3897 3799,3907 L 3545,3907 3524,4016 3770,4016 3758,4098 3511,4098 3489,4217 3756,4218 3752,4251 C 3770,4274 3756,4237 3784,4303 3803,4272 3803,4296 3800,4261 L 3817,4270 C 3815,4210 3837,4108 3849,4047 3858,3997 3888,3869 3883,3827 3871,3791 3902,3823 3871,3826 L 3859,3829 C 3859,3829 3857,3829 3857,3830 3856,3830 3854,3830 3854,3830 3821,3837 3851,3834 3849,3831 L 3823,3821 Z"/>
        </g>
       </g>
       <g class="com.sun.star.drawing.ClosedBezierShape">
        <g id="id25">
         <rect class="BoundingBox" stroke="none" fill="none" x="6443" y="3897" width="272" height="328"/>
         <path fill="rgb(246,246,247)" stroke="none" d="M 6536,3910 C 6463,3938 6458,4012 6445,4112 6439,4161 6445,4206 6486,4218 6512,4227 6603,4225 6628,4213 6691,4186 6698,4089 6711,4008 6735,3864 6564,3899 6536,3910 Z"/>
        </g>
       </g>
       <g class="com.sun.star.drawing.ClosedBezierShape">
        <g id="id26">
         <rect class="BoundingBox" stroke="none" fill="none" x="5780" y="3901" width="388" height="324"/>
         <path fill="rgb(246,246,246)" stroke="none" d="M 6094,4191 C 6123,4166 6103,4187 6124,4126 6138,4127 6151,4128 6167,4117 6165,4116 6162,4114 6161,4114 L 6132,4106 C 6087,4103 6135,4128 6099,4098 6101,4097 6104,4096 6105,4095 6107,4094 6110,4093 6111,4092 6113,4091 6115,4090 6117,4089 L 6129,4081 C 6130,4080 6132,4079 6133,4078 6134,4077 6132,4075 6144,4075 L 6152,4076 C 6137,4063 6122,4064 6102,4062 6101,4060 6101,4057 6101,4057 6094,4027 6111,4058 6095,4042 L 6073,4026 C 6074,4024 6080,4014 6082,4013 6099,3994 6081,4007 6087,4011 6046,4004 6012,4014 5962,4006 5954,3978 5963,4006 5953,3986 5924,3936 5943,3959 5931,3917 5965,3917 5973,3920 5994,3904 5908,3902 5849,3892 5818,3957 5802,3992 5785,4093 5781,4136 5773,4225 5829,4225 5908,4223 6007,4219 6001,4155 6023,4122 L 6110,4122 6094,4191 Z"/>
        </g>
       </g>
       <g class="com.sun.star.drawing.ClosedBezierShape">
        <g id="id27">
         <rect class="BoundingBox" stroke="none" fill="none" x="3916" y="3904" width="255" height="318"/>
         <path fill="rgb(246,246,247)" stroke="none" d="M 3917,4217 C 4080,4221 4128,4242 4157,4082 4190,3897 4167,3896 3971,3909 3955,3938 3916,4175 3917,4217 Z"/>
        </g>
       </g>
       <g class="com.sun.star.drawing.ClosedBezierShape">
        <g id="id28">
         <rect class="BoundingBox" stroke="none" fill="none" x="7779" y="3824" width="355" height="480"/>
         <path fill="rgb(17,27,78)" stroke="none" d="M 7943,3825 L 7852,3826 C 7824,3942 7807,4077 7785,4197 7765,4304 7795,4300 7893,4300 8142,4299 8122,4327 8132,4219 L 7876,4218 7943,3825 Z"/>
        </g>
       </g>
       <g class="com.sun.star.drawing.ClosedBezierShape">
        <g id="id29">
         <rect class="BoundingBox" stroke="none" fill="none" x="6150" y="3824" width="177" height="477"/>
         <path fill="rgb(17,27,78)" stroke="none" d="M 6239,4299 C 6254,4274 6322,3877 6325,3825 L 6233,3827 6150,4300 6239,4299 Z"/>
        </g>
       </g>
       <g class="com.sun.star.drawing.ClosedBezierShape">
        <g id="id30">
         <rect class="BoundingBox" stroke="none" fill="none" x="977" y="3253" width="240" height="488"/>
         <path fill="rgb(253,253,253)" stroke="none" d="M 1147,3414 C 1169,3404 1153,3428 1159,3378 L 1173,3385 C 1188,3386 1188,3378 1200,3371 1195,3358 1201,3371 1193,3356 1144,3359 1213,3374 1151,3376 1112,3376 1143,3380 1111,3358 1110,3356 1107,3355 1106,3354 1104,3352 1102,3351 1100,3349 L 1150,3334 C 1149,3337 1144,3361 1142,3328 1140,3299 1169,3300 1169,3300 1181,3299 1202,3317 1215,3254 L 1019,3348 C 1018,3417 1019,3488 1019,3558 1020,3621 1023,3596 997,3636 983,3659 980,3689 978,3719 1027,3740 1045,3751 1104,3721 1104,3696 1097,3665 1086,3643 1068,3601 1063,3629 1062,3573 1062,3514 1060,3437 1065,3379 L 1147,3414 Z"/>
        </g>
       </g>
       <g class="com.sun.star.drawing.ClosedBezierShape">
        <g id="id31">
         <rect class="BoundingBox" stroke="none" fill="none" x="8518" y="2025" width="302" height="1300"/>
         <path fill="rgb(209,142,151)" stroke="none" d="M 8530,3323 L 8529,2037 8810,2037 8810,3226 C 8814,3243 8809,3231 8818,3242 L 8814,2032 C 8774,2024 8555,2022 8524,2036 8512,2116 8522,2275 8522,2363 8522,2487 8514,3315 8530,3323 Z"/>
        </g>
       </g>
       <g class="com.sun.star.drawing.ClosedBezierShape">
        <g id="id32">
         <rect class="BoundingBox" stroke="none" fill="none" x="8024" y="2027" width="306" height="1041"/>
         <path fill="rgb(199,132,140)" stroke="none" d="M 8025,3067 C 8026,3065 8027,3059 8028,3060 L 8037,3011 C 8039,2988 8039,2969 8039,2946 8038,2668 8031,2296 8040,2038 L 8319,2038 8318,3043 C 8319,3041 8321,3036 8321,3037 8321,3038 8323,3033 8323,3031 L 8327,2989 C 8330,2808 8319,2118 8328,2034 8283,2026 8073,2023 8033,2034 8018,2160 8044,2840 8025,3067 Z"/>
        </g>
       </g>
       <g class="com.sun.star.drawing.ClosedBezierShape">
        <g id="id33">
         <rect class="BoundingBox" stroke="none" fill="none" x="5388" y="3946" width="126" height="166"/>
         <path fill="rgb(246,246,247)" stroke="none" d="M 5389,4109 L 5513,4111 C 5509,4063 5502,3980 5477,3946 L 5389,4109 Z"/>
        </g>
       </g>
       <g class="com.sun.star.drawing.ClosedBezierShape">
        <g id="id34">
         <rect class="BoundingBox" stroke="none" fill="none" x="7476" y="3946" width="126" height="166"/>
         <path fill="rgb(245,245,246)" stroke="none" d="M 7477,4110 L 7600,4111 7570,3946 C 7550,3963 7489,4081 7477,4110 Z"/>
        </g>
       </g>
      </g>
     </g>
    </g>
   </g>
  </g>
 </g>
</svg>