<?xml version="1.0" encoding="UTF-8"?>
<!DOCTYPE svg PUBLIC "-//W3C//DTD SVG 1.1//EN" "http://www.w3.org/Graphics/SVG/1.1/DTD/svg11.dtd">
<svg version="1.2" width="100mm" height="60mm" viewBox="0 0 10000 6000" preserveAspectRatio="xMidYMid" fill-rule="evenodd" stroke-width="28.222" stroke-linejoin="round" xmlns="http://www.w3.org/2000/svg" xmlns:ooo="http://xml.openoffice.org/svg/export" xmlns:xlink="http://www.w3.org/1999/xlink" xmlns:presentation="http://sun.com/xmlns/staroffice/presentation" xmlns:smil="http://www.w3.org/2001/SMIL20/" xmlns:anim="urn:oasis:names:tc:opendocument:xmlns:animation:1.0" xml:space="preserve">
 <defs class="ClipPathGroup">
  <clipPath id="presentation_clip_path" clipPathUnits="userSpaceOnUse">
   <rect x="0" y="0" width="10000" height="6000"/>
  </clipPath>
  <clipPath id="presentation_clip_path_shrink" clipPathUnits="userSpaceOnUse">
   <rect x="10" y="6" width="9980" height="5988"/>
  </clipPath>
 </defs>
 <defs class="TextShapeIndex">
  <g ooo:slide="id1" ooo:id-list="id3 id4 id5 id6 id7 id8 id9 id10 id11 id12 id13 id14"/>
 </defs>
 <defs class="EmbeddedBulletChars">
  <g id="bullet-char-template-57356" transform="scale(0.00048828125,-0.00048828125)">
   <path d="M 580,1141 L 1163,571 580,0 -4,571 580,1141 Z"/>
  </g>
  <g id="bullet-char-template-57354" transform="scale(0.00048828125,-0.00048828125)">
   <path d="M 8,1128 L 1137,1128 1137,0 8,0 8,1128 Z"/>
  </g>
  <g id="bullet-char-template-10146" transform="scale(0.00048828125,-0.00048828125)">
   <path d="M 174,0 L 602,739 174,1481 1456,739 174,0 Z M 1358,739 L 309,1346 659,739 1358,739 Z"/>
  </g>
  <g id="bullet-char-template-10132" transform="scale(0.00048828125,-0.00048828125)">
   <path d="M 2015,739 L 1276,0 717,0 1260,543 174,543 174,936 1260,936 717,1481 1274,1481 2015,739 Z"/>
  </g>
  <g id="bullet-char-template-10007" transform="scale(0.00048828125,-0.00048828125)">
   <path d="M 0,-2 C -7,14 -16,27 -25,37 L 356,567 C 262,823 215,952 215,954 215,979 228,992 255,992 264,992 276,990 289,987 310,991 331,999 354,1012 L 381,999 492,748 772,1049 836,1024 860,1049 C 881,1039 901,1025 922,1006 886,937 835,863 770,784 769,783 710,716 594,584 L 774,223 C 774,196 753,168 711,139 L 727,119 C 717,90 699,76 672,76 641,76 570,178 457,381 L 164,-76 C 142,-110 111,-127 72,-127 30,-127 9,-110 8,-76 1,-67 -2,-52 -2,-32 -2,-23 -1,-13 0,-2 Z"/>
  </g>
  <g id="bullet-char-template-10004" transform="scale(0.00048828125,-0.00048828125)">
   <path d="M 285,-33 C 182,-33 111,30 74,156 52,228 41,333 41,471 41,549 55,616 82,672 116,743 169,778 240,778 293,778 328,747 346,684 L 369,508 C 377,444 397,411 428,410 L 1163,1116 C 1174,1127 1196,1133 1229,1133 1271,1133 1292,1118 1292,1087 L 1292,965 C 1292,929 1282,901 1262,881 L 442,47 C 390,-6 338,-33 285,-33 Z"/>
  </g>
  <g id="bullet-char-template-9679" transform="scale(0.00048828125,-0.00048828125)">
   <path d="M 813,0 C 632,0 489,54 383,161 276,268 223,411 223,592 223,773 276,916 383,1023 489,1130 632,1184 813,1184 992,1184 1136,1130 1245,1023 1353,916 1407,772 1407,592 1407,412 1353,268 1245,161 1136,54 992,0 813,0 Z"/>
  </g>
  <g id="bullet-char-template-8226" transform="scale(0.00048828125,-0.00048828125)">
   <path d="M 346,457 C 273,457 209,483 155,535 101,586 74,649 74,723 74,796 101,859 155,911 209,963 273,989 346,989 419,989 480,963 531,910 582,859 608,796 608,723 608,648 583,586 532,535 482,483 420,457 346,457 Z"/>
  </g>
  <g id="bullet-char-template-8211" transform="scale(0.00048828125,-0.00048828125)">
   <path d="M -4,459 L 1135,459 1135,606 -4,606 -4,459 Z"/>
  </g>
  <g id="bullet-char-template-61548" transform="scale(0.00048828125,-0.00048828125)">
   <path d="M 173,740 C 173,903 231,1043 346,1159 462,1274 601,1332 765,1332 928,1332 1067,1274 1183,1159 1299,1043 1357,903 1357,740 1357,577 1299,437 1183,322 1067,206 928,148 765,148 601,148 462,206 346,322 231,437 173,577 173,740 Z"/>
  </g>
 </defs>
 <g>
  <g id="id2" class="Master_Slide">
   <g id="bg-id2" class="Background"/>
   <g id="bo-id2" class="BackgroundObjects"/>
  </g>
 </g>
 <g class="SlideGroup">
  <g>
   <g id="container-id1">
    <g id="id1" class="Slide" clip-path="url(#presentation_clip_path)">
     <g class="Page">
      <g class="Group">
       <g class="com.sun.star.drawing.PolyPolygonShape">
        <g id="id3">
         <rect class="BoundingBox" stroke="none" fill="none" x="425" y="1513" width="3023" height="2975"/>
         <path fill="rgb(153,0,0)" stroke="none" d="M 435,1523 L 3437,1523 3437,4477 435,4477 435,1523 Z"/>
         <path fill="none" stroke="rgb(153,0,0)" stroke-width="19" stroke-linejoin="miter" d="M 435,1523 L 3437,1523 3437,4477 435,4477 435,1523 Z"/>
        </g>
       </g>
       <g class="com.sun.star.drawing.ClosedBezierShape">
        <g id="id4">
         <rect class="BoundingBox" stroke="none" fill="none" x="1065" y="1727" width="1920" height="1493"/>
         <path fill="rgb(154,21,26)" stroke="none" d="M 2874,1728 C 2897,1719 2970,1798 2979,1828 3000,1895 2949,1961 2923,1989 2798,2119 1925,2591 1833,2703 1747,2809 1781,2920 1738,3058 1668,3284 1432,3194 1236,3179 1089,3167 1102,3219 1069,3219 1057,3139 1073,3102 1135,3081 1318,3019 1551,3171 1621,2974 1669,2838 1624,2764 1711,2644 1763,2571 1867,2523 1952,2467 2192,2306 2475,2141 2722,1978 2783,1936 2920,1848 2874,1728 Z"/>
        </g>
       </g>
       <g class="com.sun.star.drawing.ClosedBezierShape">
        <g id="id5">
         <rect class="BoundingBox" stroke="none" fill="none" x="1796" y="2127" width="1076" height="2001"/>
         <path fill="rgb(154,21,26)" stroke="none" d="M 1797,3315 C 1799,3227 1899,3209 1874,3111 1854,3039 1880,2952 1908,2888 1975,2737 2057,2702 2189,2616 L 2701,2296 C 2811,2214 2777,2168 2817,2128 2944,2287 2819,2378 2701,2454 2590,2526 2479,2593 2368,2661 2240,2740 1960,2882 2008,3103 2040,3250 1975,3206 1960,3293 1977,3302 2002,3310 2018,3321 2023,3357 2016,3356 2033,3388 2034,3389 2035,3391 2036,3393 2117,3537 2018,3544 2180,3557 2239,3561 2305,3558 2345,3588 2393,3624 2382,3683 2343,3719 2272,3788 2163,3792 2098,3869 2060,3913 2058,3972 2098,4010 2134,4044 2187,4051 2256,4052 2244,4076 2259,4054 2240,4075 L 2196,4102 C 2115,4142 2020,4133 1959,4077 1790,3919 2128,3786 2168,3750 2212,3711 2227,3649 2165,3618 2111,3590 2052,3597 1981,3594 1895,3590 1907,3553 1904,3475 1859,3453 1854,3427 1860,3344 1843,3335 1816,3324 1797,3315 Z"/>
        </g>
       </g>
       <g class="com.sun.star.drawing.ClosedBezierShape">
        <g id="id6">
         <rect class="BoundingBox" stroke="none" fill="none" x="849" y="3248" width="1144" height="1027"/>
         <path fill="rgb(154,21,26)" stroke="none" d="M 849,3366 C 879,3147 1183,3291 1304,3338 1461,3400 1608,3473 1751,3551 1876,3619 2114,3744 1915,3893 1858,3935 1753,3979 1761,4070 1770,4170 1903,4200 1932,4221 1794,4354 1491,4210 1608,4052 1690,3940 1934,3871 1725,3711 1587,3605 1289,3448 1112,3384 998,3342 962,3348 849,3366 Z"/>
        </g>
       </g>
       <g class="com.sun.star.drawing.ClosedBezierShape">
        <g id="id7">
         <rect class="BoundingBox" stroke="none" fill="none" x="2085" y="2434" width="939" height="1191"/>
         <path fill="rgb(154,21,26)" stroke="none" d="M 2086,3278 C 2089,3216 2147,3208 2135,3140 2121,3069 2107,3059 2150,2982 2196,2897 2273,2856 2361,2805 2405,2779 2443,2752 2484,2728 2636,2640 2763,2583 2775,2434 2816,2453 2922,2577 2801,2674 L 2575,2827 C 2505,2872 2400,2933 2342,2982 2221,3082 2318,3138 2260,3217 2223,3268 2262,3263 2285,3285 2310,3310 2291,3302 2304,3336 2318,3370 2329,3360 2340,3380 2350,3398 2346,3419 2351,3438 2429,3463 2551,3385 2705,3424 2854,3462 2858,3529 3023,3484 L 3014,3502 C 2979,3565 2894,3624 2805,3623 2689,3621 2634,3564 2549,3526 2414,3465 2370,3536 2244,3517 2136,3502 2184,3440 2181,3414 2177,3375 2161,3433 2136,3305 L 2086,3278 Z"/>
        </g>
       </g>
       <g class="com.sun.star.drawing.ClosedBezierShape">
        <g id="id8">
         <rect class="BoundingBox" stroke="none" fill="none" x="1796" y="2127" width="1076" height="2001"/>
         <path fill="rgb(254,254,254)" stroke="none" d="M 1797,3315 C 1816,3324 1843,3335 1860,3344 1854,3427 1859,3453 1904,3475 1907,3553 1895,3590 1981,3594 2052,3597 2111,3590 2165,3618 2227,3649 2212,3711 2168,3750 2128,3786 1790,3919 1959,4077 2020,4133 2115,4142 2196,4102 L 2240,4075 C 2259,4054 2244,4076 2256,4052 2187,4051 2134,4044 2098,4010 2058,3972 2060,3913 2098,3869 2163,3792 2272,3788 2343,3719 2382,3683 2393,3624 2345,3588 2305,3558 2239,3561 2180,3557 2018,3544 2117,3537 2036,3393 2035,3391 2034,3389 2033,3388 2016,3356 2023,3357 2018,3321 2002,3310 1977,3302 1960,3293 1975,3206 2040,3250 2008,3103 1960,2882 2240,2740 2368,2661 2479,2593 2590,2526 2701,2454 2819,2378 2944,2287 2817,2128 2777,2168 2811,2214 2701,2296 L 2189,2616 C 2057,2702 1975,2737 1908,2888 1880,2952 1854,3039 1874,3111 1899,3209 1799,3227 1797,3315 Z"/>
        </g>
       </g>
       <g class="com.sun.star.drawing.ClosedBezierShape">
        <g id="id9">
         <rect class="BoundingBox" stroke="none" fill="none" x="1065" y="1727" width="1920" height="1493"/>
         <path fill="rgb(254,254,254)" stroke="none" d="M 2874,1728 C 2920,1848 2783,1936 2722,1978 2475,2141 2192,2306 1952,2467 1867,2523 1763,2571 1711,2644 1624,2764 1669,2838 1621,2974 1551,3171 1318,3019 1135,3081 1073,3102 1057,3139 1069,3219 1102,3219 1089,3167 1236,3179 1432,3194 1668,3284 1738,3058 1781,2920 1747,2809 1833,2703 1925,2591 2798,2119 2923,1989 2949,1961 3000,1895 2979,1828 2970,1798 2897,1719 2874,1728 Z"/>
        </g>
       </g>
       <g class="com.sun.star.drawing.ClosedBezierShape">
        <g id="id10">
         <rect class="BoundingBox" stroke="none" fill="none" x="2085" y="2434" width="939" height="1191"/>
         <path fill="rgb(254,254,254)" stroke="none" d="M 2086,3278 L 2136,3305 C 2161,3433 2177,3375 2181,3414 2184,3440 2136,3502 2244,3517 2370,3536 2414,3465 2549,3526 2634,3564 2689,3621 2805,3623 2894,3624 2979,3565 3014,3502 L 3023,3484 C 2858,3529 2854,3462 2705,3424 2551,3385 2429,3463 2351,3438 2346,3419 2350,3398 2340,3380 2329,3360 2318,3370 2304,3336 2291,3302 2310,3310 2285,3285 2262,3263 2223,3268 2260,3217 2318,3138 2221,3082 2342,2982 2400,2933 2505,2872 2575,2827 L 2801,2674 C 2922,2577 2816,2453 2775,2434 2763,2583 2636,2640 2484,2728 2443,2752 2405,2779 2361,2805 2273,2856 2196,2897 2150,2982 2107,3059 2121,3069 2135,3140 2147,3208 2089,3216 2086,3278 Z"/>
        </g>
       </g>
       <g class="com.sun.star.drawing.ClosedBezierShape">
        <g id="id11">
         <rect class="BoundingBox" stroke="none" fill="none" x="849" y="3248" width="1144" height="1027"/>
         <path fill="rgb(254,254,254)" stroke="none" d="M 849,3366 C 962,3348 998,3342 1112,3384 1289,3448 1587,3605 1725,3711 1934,3871 1690,3940 1608,4052 1491,4210 1794,4354 1932,4221 1903,4200 1770,4170 1761,4070 1753,3979 1858,3935 1915,3893 2114,3744 1876,3619 1751,3551 1608,3473 1461,3400 1304,3338 1183,3291 879,3147 849,3366 Z"/>
        </g>
       </g>
       <g class="com.sun.star.drawing.PolyPolygonShape">
        <g id="id12">
         <rect class="BoundingBox" stroke="none" fill="none" x="8413" y="2648" width="438" height="311"/>
         <path fill="rgb(12,13,8)" stroke="none" d="M 8414,2846 L 8485,2957 8850,2823 8770,2648 8414,2846 Z"/>
        </g>
       </g>
       <g class="com.sun.star.drawing.ClosedBezierShape">
        <g id="id13">
         <rect class="BoundingBox" stroke="none" fill="none" x="3668" y="2682" width="5902" height="1324"/>
         <path fill="rgb(0,0,0)" stroke="none" d="M 4212,3724 C 4212,3689 4201,3662 4178,3643 4154,3624 4113,3604 4052,3583 3929,3543 3838,3500 3779,3455 3719,3410 3689,3345 3689,3260 3689,3177 3724,3110 3793,3059 3863,3008 3951,2982 4058,2982 4170,2982 4261,3009 4330,3062 4399,3114 4432,3188 4430,3285 L 4429,3289 4206,3289 C 4206,3242 4193,3208 4168,3187 4142,3166 4104,3155 4053,3155 4011,3155 3978,3166 3954,3186 3930,3206 3918,3232 3918,3261 3918,3290 3930,3314 3955,3331 3980,3349 4026,3371 4094,3397 4208,3430 4294,3473 4354,3522 4413,3570 4442,3638 4442,3723 4442,3810 4408,3878 4340,3927 4272,3976 4182,4001 4070,4001 3958,4001 3863,3975 3786,3921 3707,3869 3670,3786 3672,3672 L 3674,3668 3897,3668 C 3897,3726 3911,3767 3940,3791 3968,3815 4011,3828 4070,3828 4118,3828 4153,3818 4177,3799 4201,3780 4212,3755 4212,3724 Z M 5073,3794 L 4779,3794 4722,3987 4480,3987 4803,2996 4925,2996 4925,2997 4927,2996 5049,2996 5372,3987 5130,3987 5073,3794 Z M 4832,3617 L 5020,3617 4928,3310 4924,3310 4832,3617 Z M 5185,2721 C 5185,2765 5171,2802 5144,2833 5117,2864 5083,2880 5042,2880 5011,2880 4973,2871 4931,2852 4888,2832 4854,2823 4830,2823 4816,2823 4803,2830 4793,2845 4784,2860 4778,2877 4778,2897 L 4657,2864 C 4657,2821 4671,2784 4698,2753 4725,2721 4759,2705 4800,2705 4825,2705 4861,2714 4906,2733 4953,2752 4987,2762 5011,2762 5025,2762 5037,2754 5048,2740 5059,2725 5064,2707 5064,2687 L 5185,2721 Z M 6246,3581 C 6246,3702 6208,3803 6130,3882 6053,3961 5952,4001 5828,4001 5702,4001 5600,3961 5523,3882 5445,3803 5406,3702 5406,3581 L 5406,3402 C 5406,3281 5445,3180 5522,3102 5600,3022 5701,2982 5826,2982 5950,2982 6051,3022 6129,3102 6207,3180 6246,3281 6246,3402 L 6246,3581 Z M 6017,3401 C 6017,3330 6000,3272 5967,3227 5934,3181 5887,3159 5826,3159 5764,3159 5717,3181 5684,3227 5651,3272 5635,3330 5635,3401 L 5635,3581 C 5635,3653 5651,3711 5684,3756 5718,3801 5766,3824 5828,3824 5888,3824 5934,3801 5968,3756 6000,3711 6017,3653 6017,3581 L 6017,3401 Z M 6950,3810 L 7375,3810 7375,3987 6721,3987 6721,2996 6950,2996 6950,3810 Z M 8281,2996 L 8281,3639 C 8281,3752 8243,3841 8168,3904 8092,3969 7995,4001 7874,4001 7752,4001 7653,3969 7578,3904 7502,3841 7464,3752 7464,3639 L 7464,2996 7695,2996 7695,3639 C 7695,3700 7710,3746 7742,3777 7774,3808 7817,3824 7874,3824 7929,3824 7973,3808 8004,3778 8035,3746 8051,3700 8051,3639 L 8051,2996 8281,2996 Z M 8664,3987 L 8435,3987 8435,2996 8664,2996 8664,3987 Z M 9335,3724 C 9335,3689 9324,3662 9301,3643 9277,3624 9235,3604 9174,3583 9052,3543 8961,3500 8901,3455 8842,3410 8811,3345 8811,3260 8811,3177 8847,3110 8916,3059 8985,3008 9073,2982 9180,2982 9293,2982 9384,3009 9453,3062 9522,3114 9555,3188 9553,3285 L 9552,3289 9329,3289 C 9329,3242 9316,3208 9291,3187 9265,3166 9226,3155 9176,3155 9133,3155 9101,3166 9077,3186 9053,3206 9041,3232 9041,3261 9041,3290 9053,3314 9078,3331 9103,3349 9148,3371 9216,3397 9331,3430 9418,3473 9477,3522 9536,3570 9565,3638 9565,3723 9565,3810 9531,3878 9463,3927 9396,3976 9305,4001 9192,4001 9080,4001 8986,3975 8908,3921 8830,3869 8792,3786 8795,3672 L 8796,3668 9020,3668 C 9020,3726 9034,3767 9062,3791 9090,3815 9134,3828 9192,3828 9240,3828 9276,3818 9300,3799 9324,3780 9335,3755 9335,3724 Z"/>
         <path fill="none" stroke="rgb(0,0,0)" stroke-width="7" stroke-linejoin="miter" d="M 4212,3724 C 4212,3689 4201,3662 4178,3643 4154,3624 4113,3604 4052,3583 3929,3543 3838,3500 3779,3455 3719,3410 3689,3345 3689,3260 3689,3177 3724,3110 3793,3059 3863,3008 3951,2982 4058,2982 4170,2982 4261,3009 4330,3062 4399,3114 4432,3188 4430,3285 L 4429,3289 4206,3289 C 4206,3242 4193,3208 4168,3187 4142,3166 4104,3155 4053,3155 4011,3155 3978,3166 3954,3186 3930,3206 3918,3232 3918,3261 3918,3290 3930,3314 3955,3331 3980,3349 4026,3371 4094,3397 4208,3430 4294,3473 4354,3522 4413,3570 4442,3638 4442,3723 4442,3810 4408,3878 4340,3927 4272,3976 4182,4001 4070,4001 3958,4001 3863,3975 3786,3921 3707,3869 3670,3786 3672,3672 L 3674,3668 3897,3668 C 3897,3726 3911,3767 3940,3791 3968,3815 4011,3828 4070,3828 4118,3828 4153,3818 4177,3799 4201,3780 4212,3755 4212,3724 Z"/>
         <path fill="none" stroke="rgb(0,0,0)" stroke-width="7" stroke-linejoin="miter" d="M 5073,3794 L 4779,3794 4722,3987 4480,3987 4803,2996 4925,2996 4925,2997 4927,2996 5049,2996 5372,3987 5130,3987 5073,3794 Z"/>
         <path fill="none" stroke="rgb(0,0,0)" stroke-width="7" stroke-linejoin="miter" d="M 4832,3617 L 5020,3617 4928,3310 4924,3310 4832,3617 Z"/>
         <path fill="none" stroke="rgb(0,0,0)" stroke-width="7" stroke-linejoin="miter" d="M 5185,2721 C 5185,2765 5171,2802 5144,2833 5117,2864 5083,2880 5042,2880 5011,2880 4973,2871 4931,2852 4888,2832 4854,2823 4830,2823 4816,2823 4803,2830 4793,2845 4784,2860 4778,2877 4778,2897 L 4657,2864 C 4657,2821 4671,2784 4698,2753 4725,2721 4759,2705 4800,2705 4825,2705 4861,2714 4906,2733 4953,2752 4987,2762 5011,2762 5025,2762 5037,2754 5048,2740 5059,2725 5064,2707 5064,2687 L 5185,2721 Z"/>
         <path fill="none" stroke="rgb(0,0,0)" stroke-width="7" stroke-linejoin="miter" d="M 6246,3581 C 6246,3702 6208,3803 6130,3882 6053,3961 5952,4001 5828,4001 5702,4001 5600,3961 5523,3882 5445,3803 5406,3702 5406,3581 L 5406,3402 C 5406,3281 5445,3180 5522,3102 5600,3022 5701,2982 5826,2982 5950,2982 6051,3022 6129,3102 6207,3180 6246,3281 6246,3402 L 6246,3581 Z"/>
         <path fill="none" stroke="rgb(0,0,0)" stroke-width="7" stroke-linejoin="miter" d="M 6017,3401 C 6017,3330 6000,3272 5967,3227 5934,3181 5887,3159 5826,3159 5764,3159 5717,3181 5684,3227 5651,3272 5635,3330 5635,3401 L 5635,3581 C 5635,3653 5651,3711 5684,3756 5718,3801 5766,3824 5828,3824 5888,3824 5934,3801 5968,3756 6000,3711 6017,3653 6017,3581 L 6017,3401 Z"/>
         <path fill="none" stroke="rgb(0,0,0)" stroke-width="7" stroke-linejoin="miter" d="M 6950,3810 L 7375,3810 7375,3987 6721,3987 6721,2996 6950,2996 6950,3810 Z"/>
         <path fill="none" stroke="rgb(0,0,0)" stroke-width="7" stroke-linejoin="miter" d="M 8281,2996 L 8281,3639 C 8281,3752 8243,3841 8168,3904 8092,3969 7995,4001 7874,4001 7752,4001 7653,3969 7578,3904 7502,3841 7464,3752 7464,3639 L 7464,2996 7695,2996 7695,3639 C 7695,3700 7710,3746 7742,3777 7774,3808 7817,3824 7874,3824 7929,3824 7973,3808 8004,3778 8035,3746 8051,3700 8051,3639 L 8051,2996 8281,2996 Z"/>
         <path fill="none" stroke="rgb(0,0,0)" stroke-width="7" stroke-linejoin="miter" d="M 8664,3987 L 8435,3987 8435,2996 8664,2996 8664,3987 Z"/>
         <path fill="none" stroke="rgb(0,0,0)" stroke-width="7" stroke-linejoin="miter" d="M 9335,3724 C 9335,3689 9324,3662 9301,3643 9277,3624 9235,3604 9174,3583 9052,3543 8961,3500 8901,3455 8842,3410 8811,3345 8811,3260 8811,3177 8847,3110 8916,3059 8985,3008 9073,2982 9180,2982 9293,2982 9384,3009 9453,3062 9522,3114 9555,3188 9553,3285 L 9552,3289 9329,3289 C 9329,3242 9316,3208 9291,3187 9265,3166 9226,3155 9176,3155 9133,3155 9101,3166 9077,3186 9053,3206 9041,3232 9041,3261 9041,3290 9053,3314 9078,3331 9103,3349 9148,3371 9216,3397 9331,3430 9418,3473 9477,3522 9536,3570 9565,3638 9565,3723 9565,3810 9531,3878 9463,3927 9396,3976 9305,4001 9192,4001 9080,4001 8986,3975 8908,3921 8830,3869 8792,3786 8795,3672 L 8796,3668 9020,3668 C 9020,3726 9034,3767 9062,3791 9090,3815 9134,3828 9192,3828 9240,3828 9276,3818 9300,3799 9324,3780 9335,3755 9335,3724 Z"/>
        </g>
       </g>
       <g class="com.sun.star.drawing.ClosedBezierShape">
        <g id="id14">
         <rect class="BoundingBox" stroke="none" fill="none" x="3776" y="1999" width="5792" height="558"/>
         <path fill="rgb(128,128,128)" stroke="none" d="M 3979,2308 L 3855,2308 3855,2445 3776,2445 3776,2105 4003,2105 4003,2166 3855,2166 3855,2247 3979,2247 3979,2308 Z M 4202,2379 L 4101,2379 4082,2445 3999,2445 4109,2105 4151,2105 4152,2105 4194,2105 4305,2445 4222,2445 4202,2379 Z M 4120,2318 L 4184,2318 4152,2213 4151,2213 4120,2318 Z M 4583,2331 L 4583,2332 C 4584,2370 4573,2400 4550,2420 4528,2440 4496,2450 4455,2450 4413,2450 4379,2437 4354,2412 4329,2386 4316,2353 4316,2310 L 4316,2240 C 4316,2198 4329,2165 4353,2139 4377,2113 4410,2101 4449,2101 4493,2101 4526,2111 4550,2131 4573,2151 4584,2179 4584,2218 L 4583,2219 4507,2219 C 4507,2199 4502,2183 4493,2175 4484,2166 4470,2161 4449,2161 4432,2161 4418,2168 4409,2182 4400,2196 4395,2215 4395,2239 L 4395,2310 C 4395,2335 4400,2354 4410,2368 4421,2382 4436,2390 4455,2390 4473,2390 4486,2385 4494,2376 4502,2367 4506,2352 4506,2331 L 4583,2331 Z M 4900,2105 L 4900,2325 C 4900,2365 4888,2395 4862,2417 4836,2439 4803,2450 4761,2450 4719,2450 4686,2439 4660,2417 4634,2395 4621,2365 4621,2325 L 4621,2105 4700,2105 4700,2325 C 4700,2347 4705,2362 4716,2373 4727,2384 4742,2390 4761,2390 4780,2390 4795,2384 4806,2373 4817,2363 4822,2347 4822,2325 L 4822,2105 4900,2105 Z M 5027,2384 L 5173,2384 5173,2445 4948,2445 4948,2105 5027,2105 5027,2384 Z M 5211,2445 L 5211,2105 5335,2105 C 5375,2105 5409,2119 5435,2144 5463,2170 5476,2204 5476,2244 L 5476,2306 C 5476,2347 5463,2380 5435,2406 5409,2432 5375,2445 5335,2445 L 5211,2445 Z M 5290,2166 L 5290,2384 5335,2384 C 5353,2384 5368,2377 5380,2362 5391,2348 5397,2329 5397,2306 L 5397,2244 C 5397,2221 5391,2203 5380,2188 5368,2173 5353,2166 5335,2166 L 5290,2166 Z M 5691,2379 L 5590,2379 5571,2445 5488,2445 5599,2105 5641,2105 5683,2105 5794,2445 5711,2445 5691,2379 Z M 5608,2318 L 5673,2318 5641,2213 5640,2213 5608,2318 Z M 5814,2445 L 5814,2105 5938,2105 C 5978,2105 6012,2119 6039,2144 6065,2170 6079,2204 6079,2244 L 6079,2306 C 6079,2347 6065,2380 6039,2406 6012,2432 5978,2445 5938,2445 L 5814,2445 Z M 5893,2166 L 5893,2384 5938,2384 C 5956,2384 5971,2377 5982,2362 5994,2348 6000,2329 6000,2306 L 6000,2244 C 6000,2221 5994,2203 5982,2188 5971,2173 5956,2166 5938,2166 L 5893,2166 Z M 6320,2299 L 6201,2299 6201,2384 6344,2384 6344,2445 6122,2445 6122,2105 6344,2105 6344,2166 6201,2166 6201,2239 6320,2239 6320,2299 Z M 6503,2445 L 6503,2105 6627,2105 C 6667,2105 6700,2119 6727,2144 6754,2170 6767,2204 6767,2244 L 6767,2306 C 6767,2347 6754,2380 6727,2406 6700,2432 6667,2445 6627,2445 L 6503,2445 Z M 6581,2166 L 6581,2384 6627,2384 C 6645,2384 6660,2377 6671,2362 6683,2348 6689,2329 6689,2306 L 6689,2244 C 6689,2221 6683,2203 6671,2188 6660,2173 6645,2166 6627,2166 L 6581,2166 Z M 7009,2299 L 6889,2299 6889,2384 7032,2384 7032,2445 6811,2445 6811,2105 7032,2105 7032,2166 6889,2166 6889,2239 7009,2239 7009,2299 Z M 7390,2299 L 7270,2299 7270,2384 7413,2384 7413,2445 7192,2445 7192,2105 7413,2105 7413,2166 7270,2166 7270,2239 7390,2239 7390,2299 Z M 7454,2445 L 7454,2105 7578,2105 C 7618,2105 7651,2119 7678,2144 7705,2170 7718,2204 7718,2244 L 7718,2306 C 7718,2347 7705,2380 7678,2406 7651,2432 7618,2445 7578,2445 L 7454,2445 Z M 7533,2166 L 7533,2384 7578,2384 C 7596,2384 7610,2377 7622,2362 7633,2348 7639,2329 7639,2306 L 7639,2244 C 7639,2221 7633,2203 7622,2188 7610,2173 7596,2166 7578,2166 L 7533,2166 Z M 8039,2105 L 8039,2325 C 8039,2365 8026,2395 8000,2417 7975,2439 7941,2450 7900,2450 7858,2450 7824,2439 7798,2417 7772,2395 7759,2365 7759,2325 L 7759,2105 7838,2105 7838,2325 C 7838,2347 7843,2362 7854,2373 7865,2384 7880,2390 7900,2390 7919,2390 7934,2384 7944,2373 7955,2363 7960,2347 7960,2325 L 7960,2105 8039,2105 Z M 8348,2331 L 8348,2332 C 8349,2370 8338,2400 8315,2420 8293,2440 8261,2450 8220,2450 8178,2450 8144,2437 8119,2412 8094,2386 8081,2353 8081,2310 L 8081,2240 C 8081,2198 8093,2165 8118,2139 8142,2113 8175,2101 8215,2101 8257,2101 8291,2111 8315,2131 8338,2151 8349,2179 8349,2218 L 8348,2219 8271,2219 C 8271,2199 8267,2183 8258,2175 8249,2166 8235,2161 8215,2161 8197,2161 8183,2168 8174,2182 8164,2196 8160,2215 8160,2239 L 8160,2310 C 8160,2335 8165,2354 8175,2368 8186,2382 8201,2390 8220,2390 8238,2390 8251,2385 8259,2376 8267,2367 8271,2352 8271,2331 L 8348,2331 Z M 8565,2379 L 8464,2379 8445,2445 8362,2445 8472,2105 8514,2105 8515,2105 8557,2105 8668,2445 8585,2445 8565,2379 Z M 8483,2318 L 8547,2318 8515,2213 8514,2213 8483,2318 Z M 8946,2331 L 8946,2332 C 8947,2370 8936,2400 8913,2420 8891,2440 8859,2450 8818,2450 8776,2450 8742,2437 8717,2412 8691,2386 8679,2353 8679,2310 L 8679,2240 C 8679,2198 8691,2165 8716,2139 8740,2113 8773,2101 8812,2101 8856,2101 8889,2111 8913,2131 8936,2151 8947,2179 8947,2218 L 8946,2219 8870,2219 C 8870,2199 8865,2183 8856,2175 8847,2166 8833,2161 8812,2161 8795,2161 8781,2168 8772,2182 8763,2196 8758,2215 8758,2239 L 8758,2310 C 8758,2335 8763,2354 8773,2368 8784,2382 8799,2390 8818,2390 8836,2390 8849,2385 8857,2376 8865,2367 8869,2352 8869,2331 L 8946,2331 Z M 8843,2443 L 8841,2457 C 8851,2458 8859,2463 8866,2469 8872,2475 8876,2485 8876,2497 8876,2515 8868,2529 8853,2540 8838,2550 8817,2555 8789,2555 L 8787,2512 C 8793,2512 8798,2510 8802,2507 8806,2504 8807,2500 8807,2494 8807,2488 8805,2484 8800,2481 8796,2479 8788,2478 8776,2476 L 8784,2443 8843,2443 Z M 9164,2379 L 9063,2379 9043,2445 8960,2445 9071,2105 9113,2105 9156,2105 9266,2445 9184,2445 9164,2379 Z M 9081,2318 L 9146,2318 9114,2213 9112,2213 9081,2318 Z M 9202,2011 C 9202,2026 9197,2039 9188,2049 9179,2060 9167,2065 9153,2065 9142,2065 9130,2062 9115,2056 9100,2049 9089,2046 9080,2046 9075,2046 9071,2048 9067,2053 9064,2058 9063,2064 9063,2071 L 9021,2060 C 9021,2045 9026,2032 9035,2021 9044,2011 9056,2006 9070,2006 9078,2006 9090,2009 9107,2015 9123,2021 9134,2025 9142,2025 9147,2025 9152,2023 9155,2017 9159,2012 9161,2006 9161,1999 L 9202,2011 Z M 9566,2306 C 9566,2348 9553,2382 9526,2409 9500,2436 9465,2450 9423,2450 9380,2450 9344,2436 9318,2409 9291,2382 9278,2348 9278,2306 L 9278,2244 C 9278,2203 9291,2168 9318,2141 9344,2114 9379,2101 9422,2101 9464,2101 9499,2114 9526,2141 9553,2168 9566,2203 9566,2244 L 9566,2306 Z M 9487,2244 C 9487,2220 9482,2200 9470,2184 9459,2169 9443,2161 9422,2161 9401,2161 9384,2169 9373,2184 9362,2200 9357,2219 9357,2244 L 9357,2306 C 9357,2331 9362,2351 9373,2366 9385,2381 9401,2390 9423,2390 9443,2390 9459,2381 9471,2366 9482,2351 9487,2331 9487,2306 L 9487,2244 Z"/>
        </g>
       </g>
      </g>
     </g>
    </g>
   </g>
  </g>
 </g>
</svg>