<?xml version="1.0" encoding="UTF-8"?>
<!DOCTYPE svg PUBLIC "-//W3C//DTD SVG 1.1//EN" "http://www.w3.org/Graphics/SVG/1.1/DTD/svg11.dtd">
<svg version="1.2" width="100mm" height="60mm" viewBox="0 0 10000 6000" preserveAspectRatio="xMidYMid" fill-rule="evenodd" stroke-width="28.222" stroke-linejoin="round" xmlns="http://www.w3.org/2000/svg" xmlns:ooo="http://xml.openoffice.org/svg/export" xmlns:xlink="http://www.w3.org/1999/xlink" xmlns:presentation="http://sun.com/xmlns/staroffice/presentation" xmlns:smil="http://www.w3.org/2001/SMIL20/" xmlns:anim="urn:oasis:names:tc:opendocument:xmlns:animation:1.0" xml:space="preserve">
 <defs class="ClipPathGroup">
  <clipPath id="presentation_clip_path" clipPathUnits="userSpaceOnUse">
   <rect x="0" y="0" width="10000" height="6000"/>
  </clipPath>
  <clipPath id="presentation_clip_path_shrink" clipPathUnits="userSpaceOnUse">
   <rect x="10" y="6" width="9980" height="5988"/>
  </clipPath>
 </defs>
 <defs class="TextShapeIndex">
  <g ooo:slide="id1" ooo:id-list="id3 id4 id5 id6 id7 id8 id9 id10 id11 id12 id13 id14 id15 id16 id17 id18 id19 id20 id21 id22 id23 id24 id25 id26 id27 id28 id29 id30 id31 id32 id33 id34 id35 id36 id37 id38 id39 id40 id41 id42 id43 id44 id45 id46 id47 id48 id49 id50 id51 id52 id53 id54 id55 id56 id57 id58 id59 id60 id61"/>
 </defs>
 <defs class="EmbeddedBulletChars">
  <g id="bullet-char-template-57356" transform="scale(0.00048828125,-0.00048828125)">
   <path d="M 580,1141 L 1163,571 580,0 -4,571 580,1141 Z"/>
  </g>
  <g id="bullet-char-template-57354" transform="scale(0.00048828125,-0.00048828125)">
   <path d="M 8,1128 L 1137,1128 1137,0 8,0 8,1128 Z"/>
  </g>
  <g id="bullet-char-template-10146" transform="scale(0.00048828125,-0.00048828125)">
   <path d="M 174,0 L 602,739 174,1481 1456,739 174,0 Z M 1358,739 L 309,1346 659,739 1358,739 Z"/>
  </g>
  <g id="bullet-char-template-10132" transform="scale(0.00048828125,-0.00048828125)">
   <path d="M 2015,739 L 1276,0 717,0 1260,543 174,543 174,936 1260,936 717,1481 1274,1481 2015,739 Z"/>
  </g>
  <g id="bullet-char-template-10007" transform="scale(0.00048828125,-0.00048828125)">
   <path d="M 0,-2 C -7,14 -16,27 -25,37 L 356,567 C 262,823 215,952 215,954 215,979 228,992 255,992 264,992 276,990 289,987 310,991 331,999 354,1012 L 381,999 492,748 772,1049 836,1024 860,1049 C 881,1039 901,1025 922,1006 886,937 835,863 770,784 769,783 710,716 594,584 L 774,223 C 774,196 753,168 711,139 L 727,119 C 717,90 699,76 672,76 641,76 570,178 457,381 L 164,-76 C 142,-110 111,-127 72,-127 30,-127 9,-110 8,-76 1,-67 -2,-52 -2,-32 -2,-23 -1,-13 0,-2 Z"/>
  </g>
  <g id="bullet-char-template-10004" transform="scale(0.00048828125,-0.00048828125)">
   <path d="M 285,-33 C 182,-33 111,30 74,156 52,228 41,333 41,471 41,549 55,616 82,672 116,743 169,778 240,778 293,778 328,747 346,684 L 369,508 C 377,444 397,411 428,410 L 1163,1116 C 1174,1127 1196,1133 1229,1133 1271,1133 1292,1118 1292,1087 L 1292,965 C 1292,929 1282,901 1262,881 L 442,47 C 390,-6 338,-33 285,-33 Z"/>
  </g>
  <g id="bullet-char-template-9679" transform="scale(0.00048828125,-0.00048828125)">
   <path d="M 813,0 C 632,0 489,54 383,161 276,268 223,411 223,592 223,773 276,916 383,1023 489,1130 632,1184 813,1184 992,1184 1136,1130 1245,1023 1353,916 1407,772 1407,592 1407,412 1353,268 1245,161 1136,54 992,0 813,0 Z"/>
  </g>
  <g id="bullet-char-template-8226" transform="scale(0.00048828125,-0.00048828125)">
   <path d="M 346,457 C 273,457 209,483 155,535 101,586 74,649 74,723 74,796 101,859 155,911 209,963 273,989 346,989 419,989 480,963 531,910 582,859 608,796 608,723 608,648 583,586 532,535 482,483 420,457 346,457 Z"/>
  </g>
  <g id="bullet-char-template-8211" transform="scale(0.00048828125,-0.00048828125)">
   <path d="M -4,459 L 1135,459 1135,606 -4,606 -4,459 Z"/>
  </g>
  <g id="bullet-char-template-61548" transform="scale(0.00048828125,-0.00048828125)">
   <path d="M 173,740 C 173,903 231,1043 346,1159 462,1274 601,1332 765,1332 928,1332 1067,1274 1183,1159 1299,1043 1357,903 1357,740 1357,577 1299,437 1183,322 1067,206 928,148 765,148 601,148 462,206 346,322 231,437 173,577 173,740 Z"/>
  </g>
 </defs>
 <g>
  <g id="id2" class="Master_Slide">
   <g id="bg-id2" class="Background"/>
   <g id="bo-id2" class="BackgroundObjects"/>
  </g>
 </g>
 <g class="SlideGroup">
  <g>
   <g id="container-id1">
    <g id="id1" class="Slide" clip-path="url(#presentation_clip_path)">
     <g class="Page">
      <g class="Group">
       <g class="com.sun.star.drawing.PolyPolygonShape">
        <g id="id3">
         <rect class="BoundingBox" stroke="none" fill="none" x="6381" y="3730" width="2672" height="612"/>
         <path fill="rgb(0,55,87)" stroke="none" d="M 6391,3740 L 9042,3740 9042,4331 6391,4331 6391,3740 Z"/>
         <path fill="none" stroke="rgb(35,31,32)" stroke-width="19" stroke-linejoin="miter" d="M 6391,3740 L 9042,3740 9042,4331 6391,4331 6391,3740 Z"/>
        </g>
       </g>
       <g class="com.sun.star.drawing.ClosedBezierShape">
        <g id="id4">
         <rect class="BoundingBox" stroke="none" fill="none" x="651" y="1855" width="2002" height="2529"/>
         <path fill="rgb(0,55,87)" stroke="none" d="M 651,2169 L 651,3173 C 651,3400 704,3573 781,3721 814,3785 872,3871 918,3924 L 1089,4096 C 1223,4213 1413,4311 1582,4364 1658,4388 1655,4394 1776,4346 1846,4318 1888,4303 1956,4269 2048,4223 2132,4162 2212,4099 2260,4062 2344,3974 2383,3931 2395,3916 2407,3901 2419,3885 2484,3798 2533,3713 2573,3613 2635,3460 2651,3345 2651,3178 L 2651,2156 C 2640,2153 2595,2128 2582,2120 2570,2113 2561,2109 2548,2102 2478,2065 2118,1862 2090,1856 2090,2260 2090,2664 2090,3069 2090,3271 2088,3401 1981,3568 1971,3584 1962,3597 1950,3612 1940,3626 1928,3643 1915,3655 1909,3662 1904,3665 1898,3673 1864,3716 1797,3766 1752,3796 1736,3807 1669,3849 1655,3850 1619,3853 1468,3737 1430,3698 1423,3691 1418,3687 1410,3679 1401,3669 1401,3667 1393,3657 1381,3643 1371,3632 1359,3618 1278,3514 1218,3362 1216,3226 1215,3175 1216,3124 1216,3073 1216,2667 1216,2261 1216,1856 1201,1857 1194,1865 1180,1872 L 859,2046 C 830,2064 651,2151 651,2169 Z"/>
        </g>
       </g>
       <g class="com.sun.star.drawing.ClosedBezierShape">
        <g id="id5">
         <rect class="BoundingBox" stroke="none" fill="none" x="6089" y="2364" width="933" height="1172"/>
         <path fill="rgb(0,130,168)" stroke="none" d="M 6502,3264 L 6424,3264 6424,3047 C 6546,3047 6685,3023 6685,3160 6685,3253 6595,3264 6502,3264 Z M 6481,2830 L 6424,2830 6424,2629 C 6466,2629 6547,2631 6576,2643 6613,2658 6637,2678 6637,2730 6637,2815 6565,2830 6481,2830 Z M 6089,3534 L 6437,3534 C 6630,3534 6851,3507 6959,3365 7022,3282 7041,3142 6997,3049 6990,3034 6984,3021 6976,3009 6967,2995 6959,2988 6948,2976 6900,2918 6842,2906 6800,2885 L 6794,2882 C 6853,2868 6932,2807 6954,2751 7007,2621 6945,2488 6824,2425 6751,2387 6632,2364 6519,2364 L 6089,2364 6089,3534 Z"/>
        </g>
       </g>
       <g class="com.sun.star.drawing.ClosedBezierShape">
        <g id="id6">
         <rect class="BoundingBox" stroke="none" fill="none" x="3098" y="2364" width="1159" height="1171"/>
         <path fill="rgb(0,55,87)" stroke="none" d="M 3098,2973 C 3098,3087 3127,3224 3185,3312 3266,3434 3399,3499 3545,3522 3669,3543 3811,3536 3923,3493 4162,3404 4255,3213 4255,2960 L 4255,2364 3912,2364 3912,2895 C 3912,2990 3901,3062 3869,3125 3807,3243 3586,3261 3498,3130 3463,3077 3455,2979 3455,2890 L 3455,2364 3098,2364 3098,2973 Z"/>
        </g>
       </g>
       <g class="com.sun.star.drawing.ClosedBezierShape">
        <g id="id7">
         <rect class="BoundingBox" stroke="none" fill="none" x="8080" y="2364" width="1271" height="1172"/>
         <path fill="rgb(0,130,168)" stroke="none" d="M 8707,2725 C 8720,2735 8758,2867 8763,2885 8772,2912 8781,2939 8791,2966 8802,2993 8808,3024 8819,3047 L 8598,3047 8655,2891 C 8664,2865 8705,2747 8707,2725 Z M 8080,3534 L 8411,3534 C 8429,3534 8435,3499 8441,3482 L 8506,3295 8907,3295 C 8911,3313 8919,3335 8926,3354 8943,3399 8975,3504 8989,3534 L 9350,3534 C 9348,3515 8943,2522 8910,2440 8901,2418 8885,2385 8880,2364 L 8550,2364 8314,2946 C 8274,3044 8235,3137 8196,3236 8184,3266 8081,3511 8080,3534 Z"/>
        </g>
       </g>
       <g class="com.sun.star.drawing.ClosedBezierShape">
        <g id="id8">
         <rect class="BoundingBox" stroke="none" fill="none" x="1333" y="2259" width="641" height="1471"/>
         <path fill="rgb(0,130,168)" stroke="none" d="M 1333,2430 C 1333,2637 1333,2845 1333,3052 1333,3257 1326,3385 1453,3554 1464,3570 1474,3580 1487,3594 L 1524,3636 C 1533,3645 1536,3645 1545,3653 1567,3671 1636,3736 1661,3727 1707,3712 1827,3590 1863,3541 1886,3509 1901,3479 1919,3442 1953,3374 1973,3282 1973,3182 L 1973,2443 C 1973,2424 1919,2404 1901,2393 L 1656,2260 C 1641,2260 1486,2349 1455,2365 1429,2378 1352,2425 1333,2430 Z"/>
        </g>
       </g>
       <g class="com.sun.star.drawing.ClosedBezierShape">
        <g id="id9">
         <rect class="BoundingBox" stroke="none" fill="none" x="4424" y="2646" width="889" height="890"/>
         <path fill="rgb(0,55,87)" stroke="none" d="M 4424,3534 L 4755,3534 C 4775,3534 4768,3500 4768,3478 L 4768,2974 C 4784,2969 4778,2969 4790,2961 4837,2932 4924,2914 4955,2974 4965,2992 4968,3035 4968,3065 L 4968,3534 5299,3534 C 5308,3534 5312,3531 5312,3522 L 5312,2965 C 5312,2865 5284,2786 5232,2735 5111,2614 4925,2631 4789,2715 4778,2722 4773,2728 4764,2734 4764,2693 4772,2647 4751,2647 L 4424,2647 4424,3534 Z"/>
        </g>
       </g>
       <g class="com.sun.star.drawing.ClosedBezierShape">
        <g id="id10">
         <rect class="BoundingBox" stroke="none" fill="none" x="7093" y="2364" width="1076" height="1172"/>
         <path fill="rgb(0,130,168)" stroke="none" d="M 7093,2651 L 7463,2651 7463,3522 C 7463,3531 7466,3534 7476,3534 L 7798,3534 7798,2651 8168,2651 8168,2364 7093,2364 7093,2651 Z"/>
        </g>
       </g>
       <g class="com.sun.star.drawing.ClosedBezierShape">
        <g id="id11">
         <rect class="BoundingBox" stroke="none" fill="none" x="1333" y="1617" width="641" height="693"/>
         <path fill="rgb(187,189,191)" stroke="none" d="M 1333,1786 L 1333,2308 C 1351,2304 1359,2296 1374,2288 1401,2274 1643,2138 1658,2140 L 1898,2271 C 1912,2279 1925,2283 1938,2291 1948,2297 1973,2320 1973,2295 L 1973,1799 C 1973,1779 1840,1716 1816,1704 1605,1595 1688,1601 1571,1659 L 1333,1786 Z"/>
        </g>
       </g>
       <g class="com.sun.star.drawing.ClosedBezierShape">
        <g id="id12">
         <rect class="BoundingBox" stroke="none" fill="none" x="5485" y="2646" width="350" height="890"/>
         <path fill="rgb(0,55,87)" stroke="none" d="M 5485,2660 L 5485,3522 C 5485,3531 5488,3534 5498,3534 L 5820,3534 C 5830,3534 5833,3531 5833,3522 L 5833,2647 5498,2647 C 5488,2647 5485,2650 5485,2660 Z"/>
        </g>
       </g>
       <g class="com.sun.star.drawing.ClosedBezierShape">
        <g id="id13">
         <rect class="BoundingBox" stroke="none" fill="none" x="6453" y="3822" width="339" height="429"/>
         <path fill="rgb(187,189,191)" stroke="none" d="M 6567,3924 C 6663,3922 6680,3914 6679,3978 6677,4151 6711,4154 6566,4148 L 6567,3924 Z M 6454,4247 C 6516,4248 6669,4255 6716,4235 6796,4201 6791,4131 6791,4034 6791,3935 6794,3870 6713,3836 6672,3819 6507,3822 6453,3825 L 6454,4247 Z"/>
        </g>
       </g>
       <g class="com.sun.star.drawing.ClosedBezierShape">
        <g id="id14">
         <rect class="BoundingBox" stroke="none" fill="none" x="7176" y="3814" width="342" height="444"/>
         <path fill="rgb(187,189,191)" stroke="none" d="M 7289,3952 C 7289,3919 7300,3915 7333,3915 7421,3915 7388,3928 7425,3957 7442,3955 7503,3926 7516,3917 7514,3890 7482,3854 7465,3841 7414,3805 7177,3780 7177,3943 L 7177,4130 C 7177,4211 7233,4256 7316,4256 7383,4256 7467,4262 7502,4190 7516,4159 7519,4050 7511,4011 L 7350,4010 C 7335,4010 7338,4015 7338,4030 L 7339,4095 C 7362,4099 7402,4089 7402,4108 7402,4138 7403,4158 7363,4158 7318,4158 7289,4164 7289,4122 L 7289,3952 Z"/>
        </g>
       </g>
       <g class="com.sun.star.drawing.ClosedBezierShape">
        <g id="id15">
         <rect class="BoundingBox" stroke="none" fill="none" x="8221" y="3824" width="369" height="426"/>
         <path fill="rgb(187,189,191)" stroke="none" d="M 8404,3972 L 8428,4108 8379,4108 8404,3972 Z M 8336,4246 C 8371,4178 8324,4188 8452,4189 8456,4208 8464,4230 8472,4247 L 8588,4246 C 8587,4224 8460,3859 8445,3824 L 8364,3826 C 8352,3849 8221,4234 8222,4243 8234,4249 8304,4250 8336,4246 Z"/>
        </g>
       </g>
       <g class="com.sun.star.drawing.ClosedBezierShape">
        <g id="id16">
         <rect class="BoundingBox" stroke="none" fill="none" x="7875" y="3823" width="297" height="426"/>
         <path fill="rgb(187,189,191)" stroke="none" d="M 7892,3824 C 7871,3826 7876,3822 7876,3899 7876,3930 7881,3925 7910,3924 7929,3924 7948,3923 7967,3926 L 7968,4247 C 7986,4248 8005,4247 8024,4247 8033,4247 8045,4248 8054,4247 L 8079,4244 8079,3924 8165,3923 C 8172,3902 8171,3849 8167,3826 L 7892,3824 Z"/>
        </g>
       </g>
       <g class="com.sun.star.drawing.ClosedBezierShape">
        <g id="id17">
         <rect class="BoundingBox" stroke="none" fill="none" x="8694" y="3823" width="294" height="426"/>
         <path fill="rgb(187,189,191)" stroke="none" d="M 8695,4247 L 8986,4247 8984,4149 C 8944,4147 8838,4154 8808,4146 L 8806,3826 C 8782,3822 8717,3821 8694,3827 L 8695,4247 Z"/>
        </g>
       </g>
       <g class="com.sun.star.drawing.ClosedBezierShape">
        <g id="id18">
         <rect class="BoundingBox" stroke="none" fill="none" x="7647" y="3823" width="116" height="427"/>
         <path fill="rgb(187,189,191)" stroke="none" d="M 7649,4242 C 7664,4253 7663,4247 7663,4247 L 7711,4248 C 7753,4248 7761,4253 7761,4235 L 7761,3838 C 7761,3821 7754,3824 7737,3824 7714,3824 7668,3820 7648,3828 L 7649,4242 Z"/>
        </g>
       </g>
       <g class="com.sun.star.drawing.ClosedBezierShape">
        <g id="id19">
         <rect class="BoundingBox" stroke="none" fill="none" x="6927" y="3824" width="115" height="425"/>
         <path fill="rgb(187,189,191)" stroke="none" d="M 6928,4247 C 6947,4248 6966,4247 6985,4248 7004,4248 7024,4250 7040,4244 L 7041,3838 C 7041,3822 7037,3824 7020,3824 L 6928,3826 6928,4247 Z"/>
        </g>
       </g>
       <g class="com.sun.star.drawing.ClosedBezierShape">
        <g id="id20">
         <rect class="BoundingBox" stroke="none" fill="none" x="6565" y="3923" width="118" height="228"/>
         <path fill="rgb(0,55,87)" stroke="none" d="M 6566,4148 C 6711,4154 6677,4152 6679,3978 6680,3915 6662,3923 6567,3924 L 6566,4148 Z"/>
        </g>
       </g>
       <g class="com.sun.star.drawing.ClosedBezierShape">
        <g id="id21">
         <rect class="BoundingBox" stroke="none" fill="none" x="8536" y="1864" width="148" height="228"/>
         <path fill="rgb(0,55,87)" stroke="none" d="M 8537,1882 L 8537,2073 C 8537,2085 8543,2087 8550,2091 8576,2084 8567,2055 8567,2022 8567,1992 8567,1964 8567,1934 L 8614,2014 C 8631,2046 8648,2091 8668,2091 8690,2091 8681,2029 8681,1987 8681,1948 8681,1908 8681,1869 8671,1867 8671,1866 8658,1865 8648,1881 8650,1870 8650,1904 8650,1952 8654,1983 8654,2030 L 8626,1984 C 8617,1965 8610,1955 8601,1936 8593,1922 8570,1870 8556,1866 8545,1863 8537,1871 8537,1882 Z"/>
        </g>
       </g>
       <g class="com.sun.star.drawing.ClosedBezierShape">
        <g id="id22">
         <rect class="BoundingBox" stroke="none" fill="none" x="4340" y="1864" width="147" height="228"/>
         <path fill="rgb(0,55,87)" stroke="none" d="M 4342,1869 L 4342,2043 C 4342,2064 4335,2091 4355,2091 4380,2091 4372,2054 4372,2013 4372,1979 4368,1963 4368,1930 4378,1937 4432,2042 4444,2062 4459,2087 4453,2094 4486,2087 L 4486,1869 C 4476,1867 4476,1866 4464,1865 4449,1886 4455,1899 4455,1938 4455,1967 4455,1994 4455,2022 4444,2014 4391,1909 4381,1890 4372,1872 4366,1859 4342,1869 Z"/>
        </g>
       </g>
       <g class="com.sun.star.drawing.ClosedBezierShape">
        <g id="id23">
         <rect class="BoundingBox" stroke="none" fill="none" x="3428" y="1862" width="146" height="231"/>
         <path fill="rgb(0,55,87)" stroke="none" d="M 3429,1882 L 3429,2074 C 3429,2085 3435,2087 3442,2091 3468,2084 3459,2055 3459,2022 3459,1993 3459,1964 3459,1934 L 3482,1973 C 3494,1993 3539,2091 3559,2091 3569,2091 3573,2088 3573,2078 L 3573,1878 C 3573,1864 3546,1846 3546,1895 L 3546,2030 3493,1936 C 3485,1922 3463,1870 3449,1866 3437,1863 3429,1871 3429,1882 Z"/>
        </g>
       </g>
       <g class="com.sun.star.drawing.ClosedBezierShape">
        <g id="id24">
         <rect class="BoundingBox" stroke="none" fill="none" x="6967" y="1862" width="141" height="233"/>
         <path fill="rgb(0,55,87)" stroke="none" d="M 6968,1878 L 6968,2078 C 6968,2092 6994,2110 6994,2061 L 6993,1930 7064,2056 C 7072,2068 7078,2091 7094,2091 7104,2091 7107,2088 7107,2078 L 7107,1878 C 7107,1864 7080,1846 7080,1895 L 7080,2026 7009,1901 C 7002,1888 6997,1865 6980,1865 6971,1865 6968,1868 6968,1878 Z"/>
        </g>
       </g>
       <g class="com.sun.star.drawing.ClosedBezierShape">
        <g id="id25">
         <rect class="BoundingBox" stroke="none" fill="none" x="3753" y="1863" width="139" height="229"/>
         <path fill="rgb(0,55,87)" stroke="none" d="M 3829,1965 L 3781,1965 3781,1890 C 3827,1890 3864,1882 3864,1930 3864,1951 3850,1965 3829,1965 Z M 3755,1869 L 3755,2043 C 3755,2064 3749,2091 3768,2091 3789,2091 3781,2055 3781,2021 3780,1976 3784,1986 3829,1986 3834,2006 3841,2023 3848,2042 3855,2059 3859,2091 3877,2091 3902,2091 3882,2054 3877,2039 3870,2020 3864,2000 3856,1982 3881,1965 3890,1960 3890,1925 3890,1847 3771,1863 3755,1869 Z"/>
        </g>
       </g>
       <g class="com.sun.star.drawing.ClosedBezierShape">
        <g id="id26">
         <rect class="BoundingBox" stroke="none" fill="none" x="5632" y="1863" width="138" height="230"/>
         <path fill="rgb(0,55,87)" stroke="none" d="M 5703,1965 L 5659,1965 5659,1890 C 5694,1890 5716,1885 5731,1901 5757,1929 5732,1965 5703,1965 Z M 5633,1878 L 5633,2078 C 5633,2096 5659,2096 5659,2078 L 5659,1986 C 5714,1986 5703,1981 5722,2037 5726,2049 5729,2056 5732,2066 5739,2085 5735,2091 5755,2091 5789,2091 5737,2026 5733,1978 5781,1965 5792,1865 5690,1865 5650,1865 5633,1859 5633,1878 Z"/>
        </g>
       </g>
       <g class="com.sun.star.drawing.ClosedBezierShape">
        <g id="id27">
         <rect class="BoundingBox" stroke="none" fill="none" x="6111" y="1864" width="138" height="230"/>
         <path fill="rgb(0,55,87)" stroke="none" d="M 6185,2065 L 6137,2065 6137,1891 C 6230,1891 6220,1884 6220,2026 6220,2047 6208,2065 6185,2065 Z M 6111,1878 L 6111,2078 C 6111,2097 6129,2091 6172,2091 6263,2091 6246,2019 6246,1930 6246,1857 6176,1865 6124,1865 6114,1865 6111,1868 6111,1878 Z"/>
        </g>
       </g>
       <g class="com.sun.star.drawing.ClosedBezierShape">
        <g id="id28">
         <rect class="BoundingBox" stroke="none" fill="none" x="3919" y="1864" width="143" height="228"/>
         <path fill="rgb(0,55,87)" stroke="none" d="M 3951,2034 C 3951,1900 3938,1890 4003,1890 4042,1890 4029,1978 4029,2034 4029,2077 3951,2077 3951,2034 Z M 3920,1938 C 3920,2013 3905,2091 3990,2091 4077,2091 4060,2010 4060,1930 4060,1847 3920,1835 3920,1938 Z"/>
        </g>
       </g>
       <g class="com.sun.star.drawing.ClosedBezierShape">
        <g id="id29">
         <rect class="BoundingBox" stroke="none" fill="none" x="9045" y="1864" width="138" height="230"/>
         <path fill="rgb(0,55,87)" stroke="none" d="M 9119,2065 L 9072,2065 9072,1891 C 9168,1891 9155,1883 9155,2030 9155,2051 9141,2065 9119,2065 Z M 9045,1878 L 9045,2078 C 9045,2097 9064,2091 9106,2091 9199,2091 9180,2020 9180,1926 9180,1858 9109,1865 9059,1865 9048,1865 9045,1868 9045,1878 Z"/>
        </g>
       </g>
       <g class="com.sun.star.drawing.ClosedBezierShape">
        <g id="id30">
         <rect class="BoundingBox" stroke="none" fill="none" x="7144" y="1864" width="144" height="229"/>
         <path fill="rgb(0,55,87)" stroke="none" d="M 7176,2035 C 7176,1907 7163,1891 7220,1891 7270,1891 7254,1951 7254,2039 7254,2071 7176,2081 7176,2035 Z M 7146,1930 C 7146,2011 7129,2091 7216,2091 7301,2091 7285,2010 7285,1939 7285,1836 7146,1846 7146,1930 Z"/>
        </g>
       </g>
       <g class="com.sun.star.drawing.ClosedBezierShape">
        <g id="id31">
         <rect class="BoundingBox" stroke="none" fill="none" x="4928" y="1863" width="138" height="230"/>
         <path fill="rgb(0,55,87)" stroke="none" d="M 5007,1965 L 4955,1965 4955,1890 5002,1890 C 5023,1890 5038,1904 5038,1925 5038,1944 5023,1965 5007,1965 Z M 4929,1878 L 4929,2078 C 4929,2096 4955,2096 4955,2078 L 4955,1986 5002,1986 5030,2072 C 5034,2084 5035,2091 5051,2091 5077,2091 5054,2055 5049,2040 5042,2021 5036,1998 5029,1982 5088,1943 5076,1864 4981,1864 4944,1864 4929,1859 4929,1878 Z"/>
        </g>
       </g>
       <g class="com.sun.star.drawing.ClosedBezierShape">
        <g id="id32">
         <rect class="BoundingBox" stroke="none" fill="none" x="5865" y="1864" width="141" height="228"/>
         <path fill="rgb(0,55,87)" stroke="none" d="M 5942,2065 C 5881,2065 5893,2044 5893,1925 5893,1881 5977,1870 5977,1934 5977,1999 5989,2065 5942,2065 Z M 5868,1916 C 5868,2002 5849,2091 5928,2091 6021,2091 6003,2019 6003,1925 6003,1843 5868,1849 5868,1916 Z"/>
        </g>
       </g>
       <g class="com.sun.star.drawing.ClosedBezierShape">
        <g id="id33">
         <rect class="BoundingBox" stroke="none" fill="none" x="7461" y="1865" width="141" height="228"/>
         <path fill="rgb(0,55,87)" stroke="none" d="M 7490,2030 C 7490,1919 7476,1891 7537,1891 7586,1891 7572,1956 7572,2030 7572,2077 7490,2080 7490,2030 Z M 7464,1917 C 7464,2002 7444,2091 7524,2091 7619,2091 7599,2024 7599,1926 7599,1842 7464,1853 7464,1917 Z"/>
        </g>
       </g>
       <g class="com.sun.star.drawing.ClosedBezierShape">
        <g id="id34">
         <rect class="BoundingBox" stroke="none" fill="none" x="4155" y="1864" width="141" height="233"/>
         <path fill="rgb(0,55,87)" stroke="none" d="M 4159,1869 C 4159,1970 4130,2112 4239,2093 4267,2089 4295,2072 4295,2043 L 4295,1878 C 4295,1868 4292,1865 4281,1865 4259,1865 4268,1937 4268,1978 4268,2039 4278,2069 4225,2069 4180,2069 4190,2026 4190,1982 4190,1962 4190,1941 4190,1921 4190,1890 4194,1884 4181,1865 4173,1865 4166,1866 4159,1869 Z"/>
        </g>
       </g>
       <g class="com.sun.star.drawing.ClosedBezierShape">
        <g id="id35">
         <rect class="BoundingBox" stroke="none" fill="none" x="7639" y="1864" width="140" height="228"/>
         <path fill="rgb(0,55,87)" stroke="none" d="M 7642,1917 C 7642,2002 7623,2091 7703,2091 7787,2091 7777,2032 7777,1982 L 7707,1982 7707,2004 7751,2004 C 7751,2059 7745,2065 7695,2065 7656,2065 7668,1971 7668,1925 7668,1889 7699,1890 7720,1890 7759,1890 7735,1921 7777,1899 7746,1842 7642,1860 7642,1917 Z"/>
        </g>
       </g>
       <g class="com.sun.star.drawing.ClosedBezierShape">
        <g id="id36">
         <rect class="BoundingBox" stroke="none" fill="none" x="5451" y="1864" width="151" height="230"/>
         <path fill="rgb(0,55,87)" stroke="none" d="M 5529,1917 L 5555,2013 5503,2013 C 5503,1999 5519,1931 5529,1917 Z M 5463,2091 C 5489,2091 5483,2062 5494,2039 L 5564,2039 C 5569,2103 5609,2105 5599,2069 L 5545,1888 C 5539,1871 5541,1869 5524,1865 5508,1877 5473,2011 5463,2039 5461,2049 5457,2061 5454,2070 5451,2081 5446,2091 5463,2091 Z"/>
        </g>
       </g>
       <g class="com.sun.star.drawing.ClosedBezierShape">
        <g id="id37">
         <rect class="BoundingBox" stroke="none" fill="none" x="3263" y="1862" width="130" height="233"/>
         <path fill="rgb(0,55,87)" stroke="none" d="M 3263,1878 L 3263,2078 C 3263,2101 3313,2091 3377,2091 3396,2091 3396,2065 3377,2065 L 3290,2065 C 3290,1969 3272,1987 3373,1987 3372,1959 3375,1965 3290,1965 L 3290,1891 3377,1891 C 3395,1891 3400,1865 3368,1865 3307,1865 3263,1855 3263,1878 Z"/>
        </g>
       </g>
       <g class="com.sun.star.drawing.ClosedBezierShape">
        <g id="id38">
         <rect class="BoundingBox" stroke="none" fill="none" x="6650" y="1863" width="126" height="231"/>
         <path fill="rgb(0,55,87)" stroke="none" d="M 6650,1878 L 6650,2078 C 6650,2101 6696,2091 6759,2091 6778,2091 6775,2078 6772,2065 L 6676,2065 6676,1986 C 6747,1986 6753,1994 6759,1974 6748,1958 6732,1965 6676,1965 L 6676,1890 6772,1890 C 6781,1854 6762,1865 6663,1865 6653,1865 6650,1867 6650,1878 Z"/>
        </g>
       </g>
       <g class="com.sun.star.drawing.ClosedBezierShape">
        <g id="id39">
         <rect class="BoundingBox" stroke="none" fill="none" x="6284" y="1863" width="127" height="231"/>
         <path fill="rgb(0,55,87)" stroke="none" d="M 6285,1878 L 6285,2078 C 6285,2101 6331,2091 6394,2091 6413,2091 6410,2078 6407,2065 L 6311,2065 6311,1986 C 6382,1986 6388,1994 6394,1974 6382,1958 6367,1965 6311,1965 L 6311,1890 6407,1890 C 6415,1854 6397,1865 6298,1865 6288,1865 6285,1867 6285,1878 Z"/>
        </g>
       </g>
       <g class="com.sun.star.drawing.ClosedBezierShape">
        <g id="id40">
         <rect class="BoundingBox" stroke="none" fill="none" x="8358" y="1864" width="154" height="228"/>
         <path fill="rgb(0,55,87)" stroke="none" d="M 8433,1912 C 8440,1924 8459,2003 8459,2013 L 8407,2013 8433,1912 Z M 8371,2091 C 8391,2091 8397,2057 8398,2039 L 8468,2039 C 8479,2062 8473,2091 8498,2091 8515,2091 8510,2081 8507,2070 8504,2061 8501,2049 8498,2039 8488,2011 8454,1877 8437,1865 8413,1871 8407,1927 8391,1975 L 8363,2066 C 8359,2077 8353,2091 8371,2091 Z"/>
        </g>
       </g>
       <g class="com.sun.star.drawing.ClosedBezierShape">
        <g id="id41">
         <rect class="BoundingBox" stroke="none" fill="none" x="7870" y="1864" width="150" height="228"/>
         <path fill="rgb(0,55,87)" stroke="none" d="M 7942,1912 C 7949,1924 7968,2003 7968,2013 L 7915,2013 7942,1912 Z M 7881,2091 C 7895,2091 7896,2082 7899,2071 7902,2062 7905,2051 7906,2039 L 7977,2039 C 7988,2062 7982,2091 8007,2091 8027,2091 8017,2072 8006,2039 8001,2021 7995,2001 7988,1980 7981,1958 7976,1941 7970,1920 7962,1897 7962,1876 7946,1865 7923,1871 7912,1932 7900,1975 7887,2017 7853,2091 7881,2091 Z"/>
        </g>
       </g>
       <g class="com.sun.star.drawing.ClosedBezierShape">
        <g id="id42">
         <rect class="BoundingBox" stroke="none" fill="none" x="9198" y="1864" width="152" height="230"/>
         <path fill="rgb(0,55,87)" stroke="none" d="M 9276,1917 L 9302,2013 9250,2013 C 9250,1999 9266,1931 9276,1917 Z M 9206,2091 C 9231,2091 9236,2070 9237,2039 L 9311,2039 C 9316,2103 9357,2105 9347,2069 L 9301,1918 C 9290,1882 9294,1871 9272,1865 9256,1876 9238,1952 9231,1976 L 9203,2067 C 9200,2076 9193,2091 9206,2091 Z"/>
        </g>
       </g>
       <g class="com.sun.star.drawing.ClosedBezierShape">
        <g id="id43">
         <rect class="BoundingBox" stroke="none" fill="none" x="8864" y="1864" width="152" height="230"/>
         <path fill="rgb(0,55,87)" stroke="none" d="M 8936,1917 C 8949,1926 8944,1921 8954,1961 8958,1978 8963,1995 8967,2013 L 8914,2013 C 8917,1980 8936,1950 8936,1917 Z M 8876,2091 C 8901,2091 8895,2060 8906,2039 L 8976,2039 C 8995,2122 9015,2084 9015,2082 L 8957,1883 C 8951,1866 8954,1869 8936,1865 8919,1877 8885,2015 8877,2040 8868,2071 8854,2091 8876,2091 Z"/>
        </g>
       </g>
       <g class="com.sun.star.drawing.ClosedBezierShape">
        <g id="id44">
         <rect class="BoundingBox" stroke="none" fill="none" x="4763" y="1863" width="125" height="231"/>
         <path fill="rgb(0,55,87)" stroke="none" d="M 4763,1878 L 4763,2078 C 4763,2101 4809,2091 4873,2091 4891,2091 4891,2065 4873,2065 L 4789,2065 4789,1986 C 4861,1986 4867,1994 4873,1974 4862,1958 4846,1965 4789,1965 L 4789,1890 4885,1890 C 4885,1856 4895,1865 4777,1865 4766,1865 4763,1868 4763,1878 Z"/>
        </g>
       </g>
       <g class="com.sun.star.drawing.ClosedBezierShape">
        <g id="id45">
         <rect class="BoundingBox" stroke="none" fill="none" x="8084" y="1864" width="153" height="230"/>
         <path fill="rgb(0,55,87)" stroke="none" d="M 8163,1917 C 8164,1950 8182,1980 8185,2013 L 8133,2013 C 8134,1999 8141,1977 8145,1965 8148,1954 8149,1953 8151,1940 8156,1920 8150,1926 8163,1917 Z M 8084,2082 C 8084,2084 8104,2122 8124,2039 L 8193,2039 C 8204,2061 8196,2091 8224,2091 8239,2091 8236,2084 8233,2071 L 8185,1920 C 8180,1901 8177,1875 8163,1865 8138,1870 8149,1869 8135,1911 L 8084,2082 Z"/>
        </g>
       </g>
       <g class="com.sun.star.drawing.ClosedBezierShape">
        <g id="id46">
         <rect class="BoundingBox" stroke="none" fill="none" x="8717" y="1865" width="130" height="301"/>
         <path fill="rgb(0,55,87)" stroke="none" d="M 8719,1917 C 8719,2007 8702,2081 8768,2087 8766,2105 8763,2101 8759,2117 8770,2120 8789,2124 8778,2140 8765,2161 8762,2134 8746,2157 8752,2165 8745,2165 8763,2165 8795,2165 8798,2144 8798,2126 8798,2109 8788,2119 8784,2104 8784,2104 8785,2094 8785,2091 8815,2091 8843,2080 8846,2052 8798,2041 8848,2065 8772,2065 8734,2065 8746,1971 8746,1925 8746,1889 8777,1891 8798,1891 8819,1891 8810,1912 8846,1904 8842,1848 8719,1853 8719,1917 Z"/>
        </g>
       </g>
       <g class="com.sun.star.drawing.ClosedBezierShape">
        <g id="id47">
         <rect class="BoundingBox" stroke="none" fill="none" x="5093" y="1865" width="136" height="228"/>
         <path fill="rgb(0,55,87)" stroke="none" d="M 5198,2026 C 5198,2069 5182,2065 5142,2065 5124,2065 5141,2067 5130,2060 L 5122,2054 C 5117,2050 5122,2038 5094,2057 5105,2100 5190,2103 5217,2066 5230,2047 5231,2022 5218,2001 5191,1954 5124,1970 5124,1917 5124,1896 5147,1891 5163,1891 5201,1891 5178,1922 5220,1899 5183,1829 5063,1878 5102,1952 5121,1988 5198,1996 5198,2026 Z"/>
        </g>
       </g>
       <g class="com.sun.star.drawing.ClosedBezierShape">
        <g id="id48">
         <rect class="BoundingBox" stroke="none" fill="none" x="4583" y="1862" width="150" height="231"/>
         <path fill="rgb(0,55,87)" stroke="none" d="M 4655,2091 C 4671,2087 4668,2088 4673,2071 L 4729,1890 C 4741,1855 4709,1849 4698,1898 L 4659,2039 C 4651,2027 4635,1963 4631,1949 L 4612,1877 C 4608,1871 4609,1865 4594,1865 4568,1865 4598,1927 4612,1978 4618,1999 4639,2080 4655,2091 Z"/>
        </g>
       </g>
       <g class="com.sun.star.drawing.ClosedBezierShape">
        <g id="id49">
         <rect class="BoundingBox" stroke="none" fill="none" x="8219" y="1864" width="152" height="228"/>
         <path fill="rgb(0,55,87)" stroke="none" d="M 8219,1869 C 8228,1905 8243,1948 8253,1983 8262,2007 8277,2079 8293,2091 8315,2085 8315,2065 8322,2041 8328,2019 8333,2004 8340,1981 8352,1940 8386,1865 8359,1865 8339,1865 8334,1911 8324,1948 L 8304,2019 C 8298,2040 8308,2028 8293,2039 8293,2014 8264,1926 8254,1890 8249,1868 8245,1859 8219,1869 Z"/>
        </g>
       </g>
       <g class="com.sun.star.drawing.ClosedBezierShape">
        <g id="id50">
         <rect class="BoundingBox" stroke="none" fill="none" x="3096" y="1865" width="131" height="228"/>
         <path fill="rgb(0,55,87)" stroke="none" d="M 3098,1917 C 3098,2002 3079,2091 3160,2091 3192,2091 3222,2082 3225,2052 3178,2041 3227,2065 3151,2065 3113,2065 3125,1972 3125,1926 3125,1889 3156,1891 3177,1891 3198,1891 3188,1913 3225,1904 3224,1888 3217,1882 3206,1875 3170,1854 3098,1866 3098,1917 Z"/>
        </g>
       </g>
       <g class="com.sun.star.drawing.ClosedBezierShape">
        <g id="id51">
         <rect class="BoundingBox" stroke="none" fill="none" x="6800" y="1864" width="131" height="229"/>
         <path fill="rgb(0,55,87)" stroke="none" d="M 6802,1917 C 6802,2020 6784,2091 6868,2091 6898,2091 6923,2080 6929,2057 6887,2034 6907,2065 6881,2065 6816,2065 6829,2055 6829,1917 6829,1894 6856,1890 6873,1890 6911,1890 6887,1922 6929,1899 6898,1841 6802,1862 6802,1917 Z"/>
        </g>
       </g>
       <g class="com.sun.star.drawing.ClosedBezierShape">
        <g id="id52">
         <rect class="BoundingBox" stroke="none" fill="none" x="7319" y="1864" width="129" height="230"/>
         <path fill="rgb(0,55,87)" stroke="none" d="M 7320,1882 L 7320,2073 C 7320,2101 7375,2091 7433,2091 7451,2091 7451,2065 7433,2065 L 7350,2065 7350,1882 C 7350,1869 7342,1867 7333,1865 7326,1869 7320,1871 7320,1882 Z"/>
        </g>
       </g>
       <g class="com.sun.star.drawing.ClosedBezierShape">
        <g id="id53">
         <rect class="BoundingBox" stroke="none" fill="none" x="6489" y="1862" width="128" height="231"/>
         <path fill="rgb(0,55,87)" stroke="none" d="M 6489,1886 C 6502,1894 6518,1891 6541,1891 L 6541,2078 C 6541,2096 6567,2096 6567,2078 L 6567,1891 C 6601,1891 6616,1895 6616,1878 6616,1855 6569,1865 6507,1865 6492,1865 6490,1874 6489,1886 Z"/>
        </g>
       </g>
       <g class="com.sun.star.drawing.ClosedBezierShape">
        <g id="id54">
         <rect class="BoundingBox" stroke="none" fill="none" x="3602" y="1862" width="129" height="231"/>
         <path fill="rgb(0,55,87)" stroke="none" d="M 3602,1886 C 3616,1894 3632,1891 3655,1891 L 3655,2078 C 3655,2096 3681,2096 3681,2078 L 3681,1891 C 3715,1891 3729,1895 3729,1878 3729,1855 3683,1865 3620,1865 3606,1865 3604,1874 3602,1886 Z"/>
        </g>
       </g>
       <g class="com.sun.star.drawing.ClosedBezierShape">
        <g id="id55">
         <rect class="BoundingBox" stroke="none" fill="none" x="5317" y="1863" width="126" height="230"/>
         <path fill="rgb(0,55,87)" stroke="none" d="M 5320,1890 L 5367,1890 5367,2078 C 5367,2096 5394,2096 5394,2078 L 5394,1890 5442,1890 C 5442,1856 5451,1865 5332,1865 5314,1865 5317,1878 5320,1890 Z"/>
        </g>
       </g>
       <g class="com.sun.star.drawing.ClosedBezierShape">
        <g id="id56">
         <rect class="BoundingBox" stroke="none" fill="none" x="4524" y="1864" width="33" height="228"/>
         <path fill="rgb(0,55,87)" stroke="none" d="M 4524,1882 L 4524,2073 C 4524,2085 4530,2087 4538,2091 4547,2089 4555,2087 4555,2073 L 4555,1882 C 4555,1869 4547,1867 4538,1865 4530,1869 4524,1871 4524,1882 Z"/>
        </g>
       </g>
       <g class="com.sun.star.drawing.ClosedBezierShape">
        <g id="id57">
         <rect class="BoundingBox" stroke="none" fill="none" x="5802" y="1865" width="30" height="228"/>
         <path fill="rgb(0,55,87)" stroke="none" d="M 5802,1878 L 5802,2078 C 5802,2088 5806,2091 5815,2091 5838,2091 5829,2029 5829,1987 5829,1948 5829,1908 5829,1869 5817,1866 5802,1858 5802,1878 Z"/>
        </g>
       </g>
       <g class="com.sun.star.drawing.ClosedBezierShape">
        <g id="id58">
         <rect class="BoundingBox" stroke="none" fill="none" x="5263" y="1865" width="30" height="228"/>
         <path fill="rgb(0,55,87)" stroke="none" d="M 5263,1878 L 5263,2078 C 5263,2088 5266,2091 5277,2091 5299,2091 5290,2029 5290,1987 5290,1948 5290,1908 5290,1869 5278,1866 5263,1858 5263,1878 Z"/>
        </g>
       </g>
       <g class="com.sun.star.drawing.ClosedBezierShape">
        <g id="id59">
         <rect class="BoundingBox" stroke="none" fill="none" x="7809" y="1864" width="30" height="228"/>
         <path fill="rgb(0,55,87)" stroke="none" d="M 7811,1869 L 7811,2043 C 7811,2064 7804,2091 7824,2091 7834,2091 7837,2088 7837,2078 L 7837,1877 C 7837,1860 7822,1864 7811,1869 Z"/>
        </g>
       </g>
       <g class="com.sun.star.drawing.PolyPolygonShape">
        <g id="id60">
         <rect class="BoundingBox" stroke="none" fill="none" x="8379" y="3971" width="51" height="139"/>
         <path fill="rgb(0,55,87)" stroke="none" d="M 8379,4108 L 8429,4108 8404,3971 8379,4108 Z"/>
        </g>
       </g>
       <g class="com.sun.star.drawing.ClosedBezierShape">
        <g id="id61">
         <rect class="BoundingBox" stroke="none" fill="none" x="5515" y="1812" width="59" height="42"/>
         <path fill="rgb(0,55,87)" stroke="none" d="M 5515,1852 C 5535,1851 5568,1832 5572,1812 L 5537,1812 C 5528,1826 5517,1833 5515,1852 Z"/>
        </g>
       </g>
      </g>
     </g>
    </g>
   </g>
  </g>
 </g>
</svg>