<?xml version="1.0" encoding="UTF-8"?>
<!DOCTYPE svg PUBLIC "-//W3C//DTD SVG 1.1//EN" "http://www.w3.org/Graphics/SVG/1.1/DTD/svg11.dtd">
<svg version="1.2" width="100mm" height="60mm" viewBox="0 0 10000 6000" preserveAspectRatio="xMidYMid" fill-rule="evenodd" stroke-width="28.222" stroke-linejoin="round" xmlns="http://www.w3.org/2000/svg" xmlns:ooo="http://xml.openoffice.org/svg/export" xmlns:xlink="http://www.w3.org/1999/xlink" xmlns:presentation="http://sun.com/xmlns/staroffice/presentation" xmlns:smil="http://www.w3.org/2001/SMIL20/" xmlns:anim="urn:oasis:names:tc:opendocument:xmlns:animation:1.0" xml:space="preserve">
 <defs class="ClipPathGroup">
  <clipPath id="presentation_clip_path" clipPathUnits="userSpaceOnUse">
   <rect x="0" y="0" width="10000" height="6000"/>
  </clipPath>
  <clipPath id="presentation_clip_path_shrink" clipPathUnits="userSpaceOnUse">
   <rect x="10" y="6" width="9980" height="5988"/>
  </clipPath>
 </defs>
 <defs class="TextShapeIndex">
  <g ooo:slide="id1" ooo:id-list="id3 id4 id5 id6 id7 id8 id9 id10 id11 id12 id13 id14"/>
 </defs>
 <defs class="EmbeddedBulletChars">
  <g id="bullet-char-template-57356" transform="scale(0.00048828125,-0.00048828125)">
   <path d="M 580,1141 L 1163,571 580,0 -4,571 580,1141 Z"/>
  </g>
  <g id="bullet-char-template-57354" transform="scale(0.00048828125,-0.00048828125)">
   <path d="M 8,1128 L 1137,1128 1137,0 8,0 8,1128 Z"/>
  </g>
  <g id="bullet-char-template-10146" transform="scale(0.00048828125,-0.00048828125)">
   <path d="M 174,0 L 602,739 174,1481 1456,739 174,0 Z M 1358,739 L 309,1346 659,739 1358,739 Z"/>
  </g>
  <g id="bullet-char-template-10132" transform="scale(0.00048828125,-0.00048828125)">
   <path d="M 2015,739 L 1276,0 717,0 1260,543 174,543 174,936 1260,936 717,1481 1274,1481 2015,739 Z"/>
  </g>
  <g id="bullet-char-template-10007" transform="scale(0.00048828125,-0.00048828125)">
   <path d="M 0,-2 C -7,14 -16,27 -25,37 L 356,567 C 262,823 215,952 215,954 215,979 228,992 255,992 264,992 276,990 289,987 310,991 331,999 354,1012 L 381,999 492,748 772,1049 836,1024 860,1049 C 881,1039 901,1025 922,1006 886,937 835,863 770,784 769,783 710,716 594,584 L 774,223 C 774,196 753,168 711,139 L 727,119 C 717,90 699,76 672,76 641,76 570,178 457,381 L 164,-76 C 142,-110 111,-127 72,-127 30,-127 9,-110 8,-76 1,-67 -2,-52 -2,-32 -2,-23 -1,-13 0,-2 Z"/>
  </g>
  <g id="bullet-char-template-10004" transform="scale(0.00048828125,-0.00048828125)">
   <path d="M 285,-33 C 182,-33 111,30 74,156 52,228 41,333 41,471 41,549 55,616 82,672 116,743 169,778 240,778 293,778 328,747 346,684 L 369,508 C 377,444 397,411 428,410 L 1163,1116 C 1174,1127 1196,1133 1229,1133 1271,1133 1292,1118 1292,1087 L 1292,965 C 1292,929 1282,901 1262,881 L 442,47 C 390,-6 338,-33 285,-33 Z"/>
  </g>
  <g id="bullet-char-template-9679" transform="scale(0.00048828125,-0.00048828125)">
   <path d="M 813,0 C 632,0 489,54 383,161 276,268 223,411 223,592 223,773 276,916 383,1023 489,1130 632,1184 813,1184 992,1184 1136,1130 1245,1023 1353,916 1407,772 1407,592 1407,412 1353,268 1245,161 1136,54 992,0 813,0 Z"/>
  </g>
  <g id="bullet-char-template-8226" transform="scale(0.00048828125,-0.00048828125)">
   <path d="M 346,457 C 273,457 209,483 155,535 101,586 74,649 74,723 74,796 101,859 155,911 209,963 273,989 346,989 419,989 480,963 531,910 582,859 608,796 608,723 608,648 583,586 532,535 482,483 420,457 346,457 Z"/>
  </g>
  <g id="bullet-char-template-8211" transform="scale(0.00048828125,-0.00048828125)">
   <path d="M -4,459 L 1135,459 1135,606 -4,606 -4,459 Z"/>
  </g>
  <g id="bullet-char-template-61548" transform="scale(0.00048828125,-0.00048828125)">
   <path d="M 173,740 C 173,903 231,1043 346,1159 462,1274 601,1332 765,1332 928,1332 1067,1274 1183,1159 1299,1043 1357,903 1357,740 1357,577 1299,437 1183,322 1067,206 928,148 765,148 601,148 462,206 346,322 231,437 173,577 173,740 Z"/>
  </g>
 </defs>
 <g>
  <g id="id2" class="Master_Slide">
   <g id="bg-id2" class="Background"/>
   <g id="bo-id2" class="BackgroundObjects"/>
  </g>
 </g>
 <g class="SlideGroup">
  <g>
   <g id="container-id1">
    <g id="id1" class="Slide" clip-path="url(#presentation_clip_path)">
     <g class="Page">
      <g class="com.sun.star.drawing.ClosedBezierShape">
       <g id="id3">
        <rect class="BoundingBox" stroke="none" fill="none" x="5012" y="1657" width="1281" height="1426"/>
        <path fill="rgb(52,73,126)" stroke="none" d="M 5575,2381 L 5353,2373 5353,1961 C 5501,1961 5762,1943 5867,2006 5983,2075 6077,2381 5575,2381 Z M 5024,1674 C 5003,1765 5016,2852 5016,3038 5016,3057 5038,3079 5057,3079 5139,3079 5262,3088 5336,3071 5367,3007 5353,2753 5353,2668 5400,2668 5409,2677 5460,2677 5691,2677 5912,2690 6107,2552 6422,2325 6366,1658 5681,1658 L 5090,1658 C 5061,1658 5044,1664 5024,1674 Z"/>
       </g>
      </g>
      <g class="com.sun.star.drawing.ClosedBezierShape">
       <g id="id4">
        <rect class="BoundingBox" stroke="none" fill="none" x="6420" y="1654" width="1115" height="1428"/>
        <path fill="rgb(52,73,126)" stroke="none" d="M 6421,2325 C 6421,2541 6469,2713 6557,2845 6637,2966 6782,3080 6979,3080 L 7489,3080 C 7552,3080 7530,2941 7530,2833 7530,2755 7436,2776 7324,2776 7234,2776 7143,2777 7052,2777 6970,2776 6896,2748 6850,2708 6811,2675 6767,2589 6766,2521 L 7340,2521 C 7403,2521 7381,2358 7381,2266 7381,2240 7346,2217 7316,2217 L 6766,2217 C 6766,2074 6872,1976 7012,1971 L 7505,1962 C 7547,1901 7530,1834 7530,1708 7530,1681 7494,1658 7464,1658 7235,1658 6962,1634 6777,1711 6548,1807 6421,2080 6421,2325 Z"/>
       </g>
      </g>
      <g class="com.sun.star.drawing.ClosedBezierShape">
       <g id="id5">
        <rect class="BoundingBox" stroke="none" fill="none" x="3644" y="1625" width="1203" height="1487"/>
        <path fill="rgb(52,73,126)" stroke="none" d="M 3644,2331 C 3644,2575 3717,2754 3856,2893 3891,2927 3908,2949 3952,2977 3995,3006 4018,3020 4066,3044 4282,3152 4549,3116 4762,3021 4903,2959 4839,2920 4759,2770 4698,2653 4662,2800 4392,2800 4268,2800 4161,2739 4098,2675 3863,2435 3994,1929 4375,1929 4455,1929 4499,1931 4572,1954 4751,2012 4704,2044 4788,1906 4808,1872 4844,1813 4844,1773 4844,1705 4526,1625 4425,1625 4267,1625 4184,1624 4036,1696 4000,1713 3961,1741 3931,1763 3774,1879 3644,2095 3644,2331 Z"/>
       </g>
      </g>
      <g class="com.sun.star.drawing.ClosedBezierShape">
       <g id="id6">
        <rect class="BoundingBox" stroke="none" fill="none" x="7649" y="1657" width="1126" height="1426"/>
        <path fill="rgb(52,73,126)" stroke="none" d="M 7653,1723 C 7653,1797 7634,1961 7693,1961 L 8038,1961 8038,3005 C 8038,3035 8045,3051 8055,3071 8129,3088 8252,3079 8334,3079 8353,3079 8375,3057 8375,3038 L 8375,1961 8729,1961 C 8792,1961 8770,1822 8770,1715 8770,1676 8742,1658 8704,1658 L 7718,1658 C 7678,1658 7653,1684 7653,1723 Z"/>
       </g>
      </g>
      <g class="com.sun.star.drawing.PolyPolygonShape">
       <g id="id7">
        <rect class="BoundingBox" stroke="none" fill="none" x="227" y="3694" width="9587" height="36"/>
        <path fill="rgb(52,73,126)" stroke="none" d="M 228,3728 L 9813,3728 9813,3694 228,3694 228,3728 Z"/>
       </g>
      </g>
      <g class="com.sun.star.drawing.PolyPolygonShape">
       <g id="id8">
        <rect class="BoundingBox" stroke="none" fill="none" x="1512" y="1632" width="1439" height="1489"/>
        <path fill="rgb(52,73,126)" stroke="none" d="M 2016,3120 L 2950,2101 2448,1632 1513,2652 2016,3120 Z"/>
       </g>
      </g>
      <g class="com.sun.star.drawing.PolyPolygonShape">
       <g id="id9">
        <rect class="BoundingBox" stroke="none" fill="none" x="979" y="1650" width="979" height="984"/>
        <path fill="rgb(239,228,108)" stroke="none" d="M 1490,2632 L 1956,2118 1443,1651 979,2164 1490,2632 Z"/>
       </g>
      </g>
      <g class="com.sun.star.drawing.PolyPolygonShape">
       <g id="id10">
        <rect class="BoundingBox" stroke="none" fill="none" x="1482" y="1629" width="921" height="469"/>
        <path fill="rgb(210,55,68)" stroke="none" d="M 1978,2097 L 2401,1630 1483,1643 1978,2097 Z"/>
       </g>
      </g>
      <g class="com.sun.star.drawing.ClosedBezierShape">
       <g id="id11">
        <rect class="BoundingBox" stroke="none" fill="none" x="1043" y="4065" width="2491" height="331"/>
        <path fill="rgb(34,74,121)" stroke="none" d="M 1232,4343 C 1232,4347 1232,4351 1232,4353 1232,4356 1231,4358 1231,4360 1231,4362 1230,4364 1229,4365 1229,4367 1228,4368 1226,4370 1225,4371 1222,4374 1218,4376 1213,4379 1209,4382 1203,4385 1197,4387 1190,4390 1182,4391 1175,4393 1166,4394 1157,4394 1140,4394 1124,4391 1110,4384 1096,4378 1084,4368 1074,4355 1064,4343 1057,4327 1051,4309 1046,4290 1043,4268 1043,4244 1043,4218 1046,4196 1052,4176 1058,4157 1066,4140 1076,4126 1086,4113 1099,4104 1114,4097 1128,4089 1144,4086 1162,4086 1169,4086 1176,4087 1182,4088 1189,4089 1195,4091 1200,4094 1206,4096 1211,4098 1216,4101 1220,4104 1223,4107 1225,4109 1227,4111 1228,4113 1228,4114 1229,4116 1229,4117 1230,4119 1231,4121 1231,4124 1231,4127 1231,4130 1231,4133 1231,4138 1231,4142 1231,4146 1231,4149 1231,4153 1230,4155 1229,4157 1229,4159 1228,4161 1227,4161 1226,4162 1225,4163 1224,4163 1222,4163 1220,4161 1216,4159 1213,4156 1209,4153 1205,4150 1200,4146 1195,4144 1188,4141 1181,4138 1173,4137 1164,4137 1154,4137 1145,4140 1137,4144 1129,4149 1122,4156 1117,4165 1111,4174 1106,4185 1104,4197 1101,4210 1100,4224 1100,4240 1100,4257 1101,4273 1104,4285 1107,4298 1112,4309 1117,4317 1123,4326 1130,4332 1138,4336 1146,4340 1155,4342 1165,4342 1175,4342 1183,4340 1189,4338 1196,4335 1201,4332 1207,4330 1211,4327 1215,4324 1218,4322 1221,4319 1224,4318 1225,4318 1227,4318 1228,4318 1228,4319 1229,4319 1230,4320 1231,4322 1231,4324 1231,4327 1232,4330 1232,4334 1232,4338 1232,4343 Z M 1429,4272 C 1429,4279 1428,4284 1425,4288 1422,4291 1419,4293 1414,4293 L 1307,4293 C 1307,4302 1307,4310 1310,4316 1311,4323 1314,4330 1318,4335 1322,4339 1327,4343 1333,4346 1339,4348 1346,4350 1355,4350 1363,4350 1371,4349 1378,4347 1384,4346 1390,4344 1395,4343 1399,4341 1403,4339 1407,4338 1410,4336 1413,4336 1414,4336 1415,4336 1417,4336 1417,4336 1418,4337 1419,4338 1419,4339 1420,4340 1420,4343 1421,4345 1421,4348 1421,4351 1421,4355 1421,4358 1421,4361 1421,4363 1420,4366 1420,4368 1420,4369 1419,4371 1419,4372 1419,4374 1418,4375 1418,4376 1417,4377 1415,4378 1413,4379 1410,4381 1406,4383 1401,4385 1395,4387 1389,4389 1382,4391 1375,4392 1367,4394 1359,4394 1350,4394 1335,4394 1321,4392 1309,4387 1298,4382 1287,4375 1280,4366 1272,4356 1266,4344 1262,4330 1258,4316 1256,4299 1256,4280 1256,4262 1258,4245 1262,4231 1266,4216 1272,4204 1280,4194 1288,4184 1297,4176 1308,4170 1319,4165 1332,4162 1346,4162 1361,4162 1373,4165 1384,4170 1394,4175 1403,4182 1410,4191 1416,4200 1421,4211 1425,4223 1427,4235 1429,4248 1429,4263 L 1429,4272 Z M 1381,4256 C 1382,4239 1379,4227 1373,4217 1367,4208 1358,4203 1345,4203 1339,4203 1333,4205 1328,4208 1324,4210 1320,4214 1316,4219 1314,4223 1311,4229 1310,4235 1308,4241 1307,4248 1307,4256 L 1381,4256 Z M 1639,4380 C 1639,4382 1639,4383 1638,4385 1637,4386 1636,4387 1634,4388 1632,4389 1629,4390 1626,4390 1623,4390 1619,4390 1614,4390 1609,4390 1605,4390 1602,4390 1599,4390 1596,4389 1595,4388 1592,4387 1591,4386 1591,4385 1589,4383 1589,4382 1589,4380 L 1589,4264 C 1589,4253 1589,4246 1587,4240 1586,4235 1584,4229 1582,4225 1580,4221 1576,4219 1573,4216 1569,4214 1565,4213 1560,4213 1553,4213 1547,4215 1541,4221 1534,4226 1528,4234 1521,4244 L 1521,4380 C 1521,4382 1520,4383 1519,4385 1518,4386 1517,4387 1515,4388 1513,4389 1511,4390 1508,4390 1505,4390 1501,4390 1496,4390 1491,4390 1487,4390 1484,4390 1481,4390 1478,4389 1476,4388 1474,4387 1473,4386 1472,4385 1471,4383 1471,4382 1471,4380 L 1471,4175 C 1471,4174 1471,4172 1472,4171 1472,4170 1474,4169 1476,4168 1477,4168 1479,4167 1482,4166 1485,4166 1488,4166 1492,4166 1496,4166 1500,4166 1502,4166 1505,4167 1508,4168 1509,4168 1510,4169 1512,4170 1512,4171 1513,4172 1513,4174 1513,4175 L 1513,4199 C 1523,4186 1533,4178 1543,4172 1553,4165 1564,4162 1575,4162 1587,4162 1596,4165 1605,4169 1613,4174 1620,4180 1625,4188 1629,4196 1634,4205 1636,4216 1638,4227 1639,4239 1639,4254 L 1639,4380 Z M 1789,4360 C 1789,4367 1788,4372 1787,4376 1786,4379 1786,4382 1785,4383 1783,4385 1782,4386 1779,4388 1777,4389 1774,4390 1771,4391 1768,4392 1765,4393 1761,4393 1757,4394 1754,4394 1750,4394 1740,4394 1731,4392 1724,4389 1717,4386 1711,4381 1706,4375 1702,4369 1698,4362 1696,4352 1694,4343 1692,4332 1692,4320 L 1692,4215 1671,4215 C 1668,4215 1667,4213 1666,4209 1664,4205 1663,4200 1663,4191 1663,4186 1663,4183 1664,4180 1664,4177 1665,4174 1666,4172 1666,4170 1667,4169 1668,4169 1669,4168 1670,4168 1671,4168 L 1692,4168 1692,4122 C 1692,4120 1693,4118 1694,4117 1694,4116 1696,4115 1698,4114 1699,4113 1702,4113 1705,4113 1708,4112 1712,4112 1717,4112 1722,4112 1726,4112 1730,4113 1733,4113 1735,4113 1737,4114 1739,4115 1741,4116 1741,4117 1742,4118 1742,4120 1742,4122 L 1742,4168 1781,4168 C 1782,4168 1783,4168 1784,4169 1785,4169 1786,4170 1786,4172 1787,4174 1787,4177 1788,4180 1788,4183 1789,4186 1789,4191 1789,4200 1787,4205 1786,4209 1785,4213 1783,4215 1781,4215 L 1742,4215 1742,4311 C 1742,4322 1744,4331 1747,4336 1750,4342 1755,4344 1763,4344 1766,4344 1768,4344 1770,4344 1772,4343 1774,4343 1775,4342 1777,4341 1779,4340 1780,4340 1781,4339 1782,4339 1783,4339 1783,4339 1785,4339 1785,4340 1786,4340 1786,4342 1787,4343 1787,4345 1787,4347 1788,4350 1788,4352 1789,4356 1789,4360 Z M 1937,4195 C 1937,4200 1937,4204 1937,4208 1937,4212 1936,4215 1936,4216 1935,4218 1935,4220 1934,4220 1933,4221 1932,4221 1931,4221 1929,4221 1928,4221 1927,4221 1925,4220 1924,4220 1923,4219 1921,4219 1919,4218 1917,4217 1915,4217 1913,4216 1910,4216 1908,4216 1905,4217 1902,4219 1900,4220 1897,4222 1893,4225 1890,4227 1888,4231 1884,4236 1881,4240 1878,4246 1874,4252 L 1874,4380 C 1874,4382 1873,4383 1873,4385 1872,4386 1870,4387 1869,4388 1867,4389 1864,4390 1861,4390 1858,4390 1854,4390 1849,4390 1844,4390 1840,4390 1837,4390 1834,4390 1832,4389 1829,4388 1828,4387 1826,4386 1825,4385 1825,4383 1824,4382 1824,4380 L 1824,4175 C 1824,4174 1825,4172 1825,4171 1826,4170 1827,4169 1829,4168 1830,4168 1833,4167 1836,4166 1838,4166 1841,4166 1845,4166 1850,4166 1853,4166 1856,4166 1858,4167 1861,4168 1862,4168 1864,4169 1865,4170 1866,4171 1866,4172 1866,4174 1866,4175 L 1866,4201 C 1871,4193 1876,4187 1880,4182 1884,4177 1888,4173 1891,4170 1895,4167 1898,4165 1902,4164 1906,4163 1910,4162 1913,4162 1915,4162 1917,4162 1919,4162 1921,4163 1923,4163 1925,4164 1927,4164 1929,4165 1931,4166 1932,4166 1933,4167 1934,4168 1935,4169 1935,4169 1936,4170 1936,4171 1936,4173 1937,4174 1937,4176 1937,4178 1937,4181 1937,4185 1937,4189 1937,4195 Z M 2141,4276 C 2141,4294 2139,4310 2135,4324 2131,4338 2125,4351 2117,4361 2109,4371 2099,4379 2087,4385 2075,4391 2060,4394 2044,4394 2028,4394 2015,4391 2003,4386 1992,4381 1982,4374 1975,4364 1967,4354 1961,4342 1957,4328 1954,4314 1952,4298 1952,4280 1952,4263 1954,4247 1958,4232 1962,4217 1968,4205 1976,4195 1984,4185 1994,4177 2006,4171 2018,4165 2032,4162 2048,4162 2064,4162 2078,4165 2090,4170 2101,4175 2111,4182 2118,4192 2126,4201 2131,4213 2135,4227 2139,4241 2141,4257 2141,4276 Z M 2090,4278 C 2090,4268 2089,4259 2088,4250 2086,4241 2084,4235 2081,4228 2078,4222 2073,4217 2068,4213 2062,4210 2055,4208 2047,4208 2039,4208 2033,4209 2027,4213 2022,4216 2017,4220 2013,4227 2010,4233 2007,4240 2005,4248 2004,4257 2003,4267 2003,4277 2003,4288 2004,4297 2005,4306 2007,4314 2009,4322 2012,4328 2015,4334 2020,4339 2026,4342 2031,4346 2038,4347 2046,4347 2054,4347 2060,4346 2066,4343 2071,4339 2076,4335 2079,4329 2083,4323 2086,4316 2087,4307 2089,4299 2090,4289 2090,4278 Z M 2439,4380 C 2439,4382 2439,4384 2438,4385 2437,4386 2436,4387 2435,4389 2433,4389 2431,4390 2428,4390 2426,4390 2422,4390 2418,4390 2414,4390 2411,4390 2408,4390 2405,4390 2403,4389 2401,4389 2400,4387 2399,4386 2398,4385 2397,4384 2397,4382 2397,4380 L 2397,4358 C 2388,4369 2378,4378 2368,4384 2358,4391 2347,4394 2335,4394 2322,4394 2311,4391 2301,4385 2292,4378 2284,4370 2278,4360 2273,4350 2268,4338 2266,4324 2263,4310 2262,4296 2262,4281 2262,4263 2264,4246 2266,4232 2270,4217 2275,4205 2281,4195 2288,4184 2296,4176 2305,4170 2315,4165 2326,4162 2339,4162 2348,4162 2357,4165 2365,4169 2373,4174 2381,4181 2389,4190 L 2389,4079 C 2389,4077 2389,4076 2391,4075 2391,4074 2392,4073 2395,4071 2396,4071 2399,4070 2402,4070 2405,4069 2410,4069 2414,4069 2419,4069 2423,4069 2426,4070 2429,4070 2432,4071 2434,4071 2435,4073 2437,4074 2438,4075 2438,4076 2439,4077 2439,4079 L 2439,4380 Z M 2389,4244 C 2383,4233 2376,4225 2369,4220 2363,4214 2356,4211 2348,4211 2342,4211 2336,4213 2332,4217 2327,4221 2324,4225 2321,4232 2318,4239 2316,4245 2315,4253 2313,4261 2312,4269 2312,4277 2312,4285 2313,4294 2314,4302 2315,4310 2317,4317 2320,4323 2323,4330 2326,4335 2331,4339 2335,4343 2341,4344 2348,4344 2351,4344 2355,4344 2357,4343 2361,4342 2364,4340 2367,4337 2371,4335 2374,4331 2378,4327 2381,4323 2385,4318 2389,4312 L 2389,4244 Z M 2652,4272 C 2652,4279 2650,4284 2647,4288 2645,4291 2641,4293 2636,4293 L 2529,4293 C 2529,4302 2530,4310 2531,4316 2533,4323 2536,4330 2540,4335 2544,4339 2549,4343 2555,4346 2561,4348 2569,4350 2577,4350 2586,4350 2593,4349 2600,4347 2606,4346 2612,4344 2617,4343 2622,4341 2626,4339 2629,4338 2632,4336 2634,4336 2637,4336 2638,4336 2638,4336 2640,4336 2640,4337 2641,4338 2641,4339 2642,4340 2642,4343 2642,4345 2643,4348 2643,4351 2643,4355 2643,4358 2643,4361 2642,4363 2642,4366 2642,4368 2642,4369 2642,4371 2641,4372 2641,4374 2640,4375 2640,4376 2639,4377 2638,4378 2636,4379 2632,4381 2628,4383 2623,4385 2617,4387 2611,4389 2605,4391 2597,4392 2589,4394 2581,4394 2573,4394 2557,4394 2543,4392 2531,4387 2519,4382 2510,4375 2502,4366 2494,4356 2488,4344 2484,4330 2480,4316 2478,4299 2478,4280 2478,4262 2480,4245 2484,4231 2488,4216 2494,4204 2502,4194 2510,4184 2519,4176 2530,4170 2542,4165 2554,4162 2568,4162 2583,4162 2595,4165 2606,4170 2617,4175 2625,4182 2632,4191 2638,4200 2644,4211 2646,4223 2650,4235 2652,4248 2652,4263 L 2652,4272 Z M 2603,4256 C 2604,4239 2601,4227 2595,4217 2589,4208 2579,4203 2567,4203 2561,4203 2555,4205 2550,4208 2546,4210 2542,4214 2539,4219 2535,4223 2533,4229 2531,4235 2530,4241 2529,4248 2529,4256 L 2603,4256 Z M 2962,4181 C 2962,4198 2959,4213 2955,4225 2950,4239 2944,4249 2935,4258 2927,4267 2916,4273 2904,4278 2891,4283 2876,4285 2860,4285 L 2838,4285 2838,4380 C 2838,4382 2838,4383 2837,4385 2836,4386 2835,4386 2833,4388 2831,4389 2828,4389 2825,4390 2822,4390 2818,4390 2812,4390 2807,4390 2803,4390 2800,4390 2796,4389 2794,4389 2792,4388 2790,4386 2788,4386 2788,4385 2787,4383 2787,4382 2787,4380 L 2787,4113 C 2787,4105 2788,4100 2791,4096 2795,4093 2799,4091 2804,4091 L 2864,4091 C 2870,4091 2876,4091 2882,4091 2887,4092 2894,4093 2902,4095 2909,4097 2917,4100 2925,4105 2933,4109 2939,4116 2945,4123 2950,4130 2954,4138 2957,4148 2960,4158 2962,4169 2962,4181 Z M 2907,4185 C 2907,4175 2906,4166 2903,4160 2899,4153 2895,4148 2891,4145 2886,4141 2882,4140 2876,4138 2871,4138 2866,4137 2860,4137 L 2838,4137 2838,4239 2862,4239 C 2870,4239 2877,4237 2883,4235 2888,4232 2893,4228 2897,4224 2900,4219 2903,4213 2905,4207 2906,4200 2907,4193 2907,4185 Z M 3112,4195 C 3112,4200 3112,4204 3112,4208 3112,4212 3111,4215 3111,4216 3110,4218 3109,4220 3108,4220 3108,4221 3107,4221 3105,4221 3104,4221 3103,4221 3101,4221 3100,4220 3099,4220 3097,4219 3096,4219 3094,4218 3092,4217 3090,4217 3088,4216 3085,4216 3082,4216 3080,4217 3077,4219 3074,4220 3071,4222 3068,4225 3065,4227 3062,4231 3059,4236 3056,4240 3052,4246 3049,4252 L 3049,4380 C 3049,4382 3048,4383 3048,4385 3046,4386 3045,4387 3044,4388 3041,4389 3039,4390 3036,4390 3033,4390 3029,4390 3024,4390 3019,4390 3015,4390 3012,4390 3009,4390 3006,4389 3004,4388 3002,4387 3001,4386 3000,4385 3000,4383 2999,4382 2999,4380 L 2999,4175 C 2999,4174 2999,4172 3000,4171 3001,4170 3002,4169 3004,4168 3005,4168 3008,4167 3010,4166 3013,4166 3016,4166 3020,4166 3025,4166 3028,4166 3030,4166 3033,4167 3036,4168 3037,4168 3038,4169 3040,4170 3040,4171 3041,4172 3041,4174 3041,4175 L 3041,4201 C 3046,4193 3050,4187 3054,4182 3058,4177 3062,4173 3066,4170 3070,4167 3073,4165 3077,4164 3081,4163 3084,4162 3088,4162 3090,4162 3092,4162 3094,4162 3096,4163 3098,4163 3100,4164 3102,4164 3104,4165 3105,4166 3107,4166 3108,4167 3109,4168 3109,4169 3110,4169 3111,4170 3111,4171 3111,4173 3111,4174 3112,4176 3112,4178 3112,4181 3112,4185 3112,4189 3112,4195 Z M 3315,4276 C 3315,4294 3314,4310 3310,4324 3306,4338 3300,4351 3292,4361 3284,4371 3274,4379 3262,4385 3250,4391 3235,4394 3219,4394 3203,4394 3190,4391 3178,4386 3167,4381 3157,4374 3149,4364 3141,4354 3136,4342 3132,4328 3129,4314 3127,4298 3127,4280 3127,4263 3129,4247 3133,4232 3137,4217 3143,4205 3151,4195 3159,4185 3169,4177 3181,4171 3193,4165 3207,4162 3223,4162 3239,4162 3253,4165 3264,4170 3276,4175 3286,4182 3293,4192 3301,4201 3306,4213 3310,4227 3314,4241 3315,4257 3315,4276 Z M 3264,4278 C 3264,4268 3264,4259 3263,4250 3261,4241 3259,4235 3255,4228 3252,4222 3248,4217 3242,4213 3237,4210 3230,4208 3222,4208 3214,4208 3208,4209 3202,4213 3196,4216 3192,4220 3188,4227 3185,4233 3182,4240 3180,4248 3179,4257 3177,4267 3177,4277 3177,4288 3179,4297 3180,4306 3182,4314 3184,4322 3187,4328 3190,4334 3195,4339 3200,4342 3206,4346 3212,4347 3221,4347 3228,4347 3235,4346 3240,4343 3246,4339 3251,4335 3254,4329 3258,4323 3260,4316 3262,4307 3264,4299 3264,4289 3264,4278 Z M 3533,4106 C 3533,4112 3532,4117 3531,4121 3531,4125 3529,4128 3527,4130 3525,4133 3522,4134 3518,4136 3515,4136 3510,4137 3505,4137 3499,4137 3495,4136 3491,4136 3488,4134 3484,4133 3483,4130 3480,4128 3479,4125 3478,4121 3477,4117 3476,4112 3476,4106 3476,4101 3477,4096 3478,4093 3479,4089 3480,4085 3483,4083 3484,4081 3488,4079 3491,4078 3495,4077 3499,4076 3505,4076 3510,4076 3515,4077 3518,4078 3522,4079 3525,4081 3527,4083 3529,4085 3531,4089 3531,4093 3532,4096 3533,4101 3533,4106 Z M 3529,4380 C 3529,4382 3528,4383 3528,4385 3527,4386 3525,4387 3524,4388 3522,4389 3519,4390 3516,4390 3513,4390 3509,4390 3504,4390 3499,4390 3495,4390 3492,4390 3489,4390 3487,4389 3484,4388 3483,4387 3481,4386 3480,4385 3480,4383 3479,4382 3479,4380 L 3479,4215 3414,4215 3414,4380 C 3414,4382 3414,4383 3413,4385 3412,4386 3411,4387 3409,4388 3407,4389 3405,4390 3401,4390 3398,4390 3394,4390 3389,4390 3385,4390 3381,4390 3377,4390 3374,4390 3371,4389 3369,4388 3367,4387 3366,4386 3365,4385 3365,4383 3365,4382 3365,4380 L 3365,4215 3342,4215 C 3340,4215 3338,4213 3337,4209 3335,4205 3335,4200 3335,4191 3335,4186 3335,4183 3335,4180 3335,4177 3336,4174 3337,4172 3337,4170 3338,4169 3339,4169 3340,4168 3341,4168 3342,4168 L 3365,4168 3365,4149 C 3365,4136 3366,4123 3368,4113 3370,4102 3374,4094 3379,4086 3384,4079 3390,4074 3398,4071 3406,4067 3414,4066 3425,4066 3428,4066 3431,4066 3434,4066 3437,4066 3440,4067 3442,4067 3445,4068 3447,4069 3449,4070 3451,4070 3452,4071 3453,4072 3454,4073 3454,4074 3455,4075 3456,4076 3456,4077 3456,4079 3456,4081 3457,4083 3457,4086 3457,4089 3457,4091 3457,4096 3457,4103 3457,4108 3456,4112 3455,4114 3454,4116 3452,4116 3451,4116 3450,4116 3449,4116 3448,4115 3447,4114 3445,4114 3444,4114 3442,4113 3441,4113 3439,4113 3437,4113 3434,4113 3427,4113 3422,4115 3419,4121 3416,4126 3414,4135 3414,4148 L 3414,4168 3514,4168 C 3519,4168 3523,4169 3525,4171 3528,4174 3529,4178 3529,4184 L 3529,4380 Z"/>
       </g>
      </g>
      <g class="com.sun.star.drawing.ClosedBezierShape">
       <g id="id12">
        <rect class="BoundingBox" stroke="none" fill="none" x="3568" y="4068" width="1755" height="406"/>
        <path fill="rgb(34,74,121)" stroke="none" d="M 3703,4323 C 3703,4335 3701,4345 3697,4354 3693,4363 3688,4370 3681,4376 3674,4382 3666,4387 3657,4390 3647,4393 3638,4394 3626,4394 3620,4394 3614,4394 3607,4393 3602,4391 3596,4390 3591,4388 3587,4386 3583,4385 3580,4383 3576,4380 3574,4379 3573,4377 3571,4375 3570,4373 3570,4370 3568,4366 3568,4361 3568,4354 3568,4350 3568,4347 3568,4344 3569,4341 3569,4339 3570,4338 3570,4336 3571,4335 3572,4334 3572,4334 3574,4334 3575,4334 3576,4334 3578,4334 3581,4336 3584,4338 3587,4340 3592,4343 3596,4345 3601,4347 3606,4349 3612,4351 3618,4352 3626,4352 3630,4352 3634,4352 3637,4351 3641,4350 3644,4348 3646,4346 3649,4344 3651,4342 3652,4338 3654,4335 3654,4332 3654,4328 3654,4323 3653,4319 3651,4316 3648,4312 3645,4310 3641,4307 3637,4305 3632,4303 3627,4300 3622,4298 3617,4296 3611,4293 3606,4291 3601,4288 3596,4284 3591,4281 3586,4277 3582,4272 3578,4267 3575,4261 3572,4254 3570,4247 3569,4239 3569,4229 3569,4219 3571,4210 3574,4202 3577,4193 3582,4186 3588,4181 3594,4175 3602,4170 3611,4167 3620,4164 3630,4162 3641,4162 3646,4162 3652,4163 3657,4164 3662,4165 3667,4166 3671,4167 3675,4169 3679,4170 3682,4172 3685,4173 3687,4174 3688,4176 3690,4177 3690,4178 3691,4179 3691,4180 3692,4182 3692,4183 3693,4185 3693,4187 3693,4189 3693,4192 3693,4195 3693,4198 3693,4203 3693,4205 3693,4208 3693,4211 3692,4213 3692,4215 3691,4216 3691,4217 3690,4217 3689,4218 3688,4219 3687,4219 3686,4219 3684,4217 3682,4216 3679,4215 3676,4213 3672,4211 3669,4209 3664,4207 3659,4206 3654,4204 3648,4203 3642,4203 3638,4203 3634,4204 3630,4205 3627,4206 3624,4208 3622,4209 3620,4212 3619,4214 3618,4216 3616,4219 3616,4222 3616,4225 3616,4230 3617,4235 3620,4237 3622,4241 3626,4244 3630,4246 3634,4248 3638,4251 3643,4253 3648,4255 3654,4257 3659,4260 3664,4263 3670,4265 3675,4269 3681,4272 3685,4276 3689,4281 3693,4286 3697,4292 3699,4299 3702,4306 3703,4314 3703,4323 Z M 3864,4323 C 3864,4335 3862,4345 3858,4354 3854,4363 3849,4370 3842,4376 3836,4382 3828,4387 3818,4390 3809,4393 3799,4394 3788,4394 3781,4394 3775,4394 3769,4393 3763,4391 3758,4390 3753,4388 3748,4386 3744,4385 3741,4383 3738,4380 3735,4379 3734,4377 3733,4375 3731,4373 3731,4370 3730,4366 3729,4361 3729,4354 3729,4350 3730,4347 3730,4344 3730,4341 3730,4339 3731,4338 3731,4336 3732,4335 3733,4334 3734,4334 3735,4334 3736,4334 3737,4334 3739,4334 3742,4336 3745,4338 3749,4340 3753,4343 3757,4345 3762,4347 3768,4349 3773,4351 3780,4352 3787,4352 3791,4352 3795,4352 3798,4351 3802,4350 3805,4348 3808,4346 3810,4344 3812,4342 3814,4338 3815,4335 3816,4332 3816,4328 3816,4323 3814,4319 3812,4316 3809,4312 3806,4310 3802,4307 3798,4305 3794,4303 3789,4300 3784,4298 3778,4296 3773,4293 3768,4291 3762,4288 3757,4284 3752,4281 3747,4277 3743,4272 3739,4267 3737,4261 3734,4254 3731,4247 3730,4239 3730,4229 3730,4219 3732,4210 3735,4202 3738,4193 3743,4186 3749,4181 3755,4175 3764,4170 3772,4167 3781,4164 3791,4162 3802,4162 3808,4162 3813,4163 3818,4164 3824,4165 3828,4166 3833,4167 3837,4169 3840,4170 3843,4172 3846,4173 3848,4174 3849,4176 3851,4177 3852,4178 3852,4179 3853,4180 3853,4182 3853,4183 3853,4185 3854,4187 3854,4189 3854,4192 3854,4195 3854,4198 3854,4203 3854,4205 3854,4208 3854,4211 3853,4213 3853,4215 3853,4216 3852,4217 3851,4217 3850,4218 3849,4219 3848,4219 3847,4219 3845,4217 3843,4216 3840,4215 3837,4213 3833,4211 3830,4209 3825,4207 3820,4206 3816,4204 3810,4203 3804,4203 3799,4203 3795,4204 3792,4205 3788,4206 3786,4208 3784,4209 3781,4212 3780,4214 3779,4216 3778,4219 3777,4222 3777,4225 3777,4230 3778,4235 3781,4237 3784,4241 3787,4244 3791,4246 3795,4248 3800,4251 3805,4253 3810,4255 3815,4257 3821,4260 3826,4263 3831,4265 3836,4269 3842,4272 3846,4276 3850,4281 3854,4286 3858,4292 3860,4299 3863,4306 3864,4314 3864,4323 Z M 3951,4381 C 3951,4383 3951,4384 3950,4385 3949,4386 3948,4387 3945,4388 3944,4389 3941,4390 3938,4390 3935,4390 3931,4390 3926,4390 3921,4390 3917,4390 3914,4390 3911,4390 3908,4389 3907,4388 3905,4387 3903,4386 3903,4385 3901,4384 3901,4383 3901,4381 L 3901,4176 C 3901,4174 3901,4173 3903,4172 3903,4170 3905,4169 3907,4169 3908,4168 3911,4167 3914,4167 3917,4166 3921,4166 3926,4166 3931,4166 3935,4166 3938,4167 3941,4167 3944,4168 3945,4169 3948,4169 3949,4170 3950,4172 3951,4173 3951,4174 3951,4176 L 3951,4381 Z M 3955,4106 C 3955,4117 3953,4125 3949,4130 3945,4134 3937,4136 3926,4136 3915,4136 3907,4134 3904,4130 3900,4126 3897,4118 3897,4107 3897,4095 3900,4087 3904,4082 3908,4078 3915,4075 3927,4075 3937,4075 3945,4078 3949,4082 3953,4086 3955,4094 3955,4106 Z M 4178,4276 C 4178,4294 4177,4310 4173,4324 4169,4339 4162,4351 4154,4362 4146,4372 4137,4380 4125,4386 4112,4391 4098,4394 4082,4394 4066,4394 4053,4391 4041,4387 4030,4382 4020,4374 4012,4364 4004,4355 3999,4343 3995,4329 3991,4315 3990,4299 3990,4280 3990,4263 3992,4247 3996,4233 4000,4217 4006,4205 4014,4195 4022,4185 4032,4177 4044,4171 4056,4165 4070,4162 4086,4162 4102,4162 4116,4165 4127,4170 4139,4175 4149,4182 4156,4192 4164,4201 4169,4213 4173,4227 4177,4242 4178,4258 4178,4276 Z M 4127,4279 C 4127,4269 4127,4259 4126,4251 4124,4242 4122,4235 4118,4228 4115,4222 4111,4217 4105,4213 4100,4210 4093,4208 4085,4208 4077,4208 4071,4209 4065,4213 4059,4216 4055,4220 4051,4227 4048,4233 4045,4240 4043,4249 4042,4257 4040,4267 4040,4278 4040,4288 4042,4298 4043,4306 4044,4315 4047,4322 4050,4328 4053,4335 4058,4339 4063,4343 4069,4346 4075,4348 4083,4348 4091,4348 4098,4346 4103,4343 4109,4340 4114,4336 4117,4330 4121,4324 4123,4316 4125,4308 4127,4299 4127,4290 4127,4279 Z M 4386,4381 C 4386,4383 4386,4384 4385,4385 4384,4386 4383,4387 4381,4388 4379,4389 4376,4390 4374,4390 4370,4390 4366,4390 4362,4390 4356,4390 4352,4390 4350,4390 4346,4390 4343,4389 4341,4388 4340,4387 4339,4386 4337,4385 4337,4384 4336,4383 4336,4381 L 4336,4264 C 4336,4254 4336,4247 4335,4241 4333,4235 4332,4229 4329,4225 4327,4221 4324,4219 4320,4216 4316,4214 4312,4213 4307,4213 4301,4213 4294,4215 4288,4221 4281,4226 4275,4235 4268,4245 L 4268,4381 C 4268,4383 4267,4384 4267,4385 4266,4386 4264,4387 4263,4388 4261,4389 4258,4390 4255,4390 4252,4390 4248,4390 4243,4390 4238,4390 4234,4390 4231,4390 4228,4390 4225,4389 4223,4388 4221,4387 4220,4386 4219,4385 4218,4384 4218,4383 4218,4381 L 4218,4175 C 4218,4174 4218,4172 4219,4171 4220,4170 4221,4169 4222,4168 4224,4168 4226,4167 4229,4166 4232,4166 4235,4166 4239,4166 4244,4166 4247,4166 4250,4166 4252,4167 4255,4168 4256,4168 4258,4169 4259,4170 4260,4171 4260,4172 4260,4174 4260,4175 L 4260,4199 C 4270,4186 4280,4178 4290,4172 4300,4165 4311,4162 4321,4162 4333,4162 4344,4165 4352,4169 4360,4174 4367,4180 4372,4188 4377,4196 4380,4205 4383,4216 4385,4227 4386,4240 4386,4255 L 4386,4381 Z M 4585,4382 C 4585,4384 4584,4386 4583,4387 4582,4388 4580,4389 4577,4390 4574,4390 4570,4390 4564,4390 4558,4390 4554,4390 4551,4390 4549,4389 4546,4388 4545,4387 4544,4386 4544,4384 4544,4382 L 4544,4366 C 4537,4375 4528,4382 4519,4387 4510,4391 4499,4394 4488,4394 4479,4394 4470,4393 4462,4390 4455,4387 4448,4383 4442,4377 4436,4371 4432,4364 4429,4356 4426,4348 4424,4339 4424,4327 4424,4315 4426,4305 4430,4296 4434,4287 4440,4280 4448,4275 4456,4269 4466,4264 4478,4261 4490,4259 4503,4257 4519,4257 L 4536,4257 4536,4245 C 4536,4239 4535,4233 4534,4228 4533,4223 4531,4219 4529,4216 4526,4212 4523,4210 4518,4208 4514,4207 4509,4206 4503,4206 4494,4206 4487,4207 4481,4209 4474,4212 4469,4214 4463,4216 4458,4219 4454,4221 4451,4224 4447,4226 4445,4227 4443,4227 4441,4227 4440,4227 4439,4225 4438,4224 4436,4223 4436,4221 4435,4219 4435,4216 4434,4213 4434,4211 4434,4207 4434,4204 4434,4199 4434,4195 4435,4192 4435,4189 4436,4187 4438,4185 4441,4182 4443,4180 4448,4178 4453,4175 4458,4172 4465,4170 4471,4168 4477,4166 4485,4165 4492,4163 4499,4162 4507,4162 4521,4162 4533,4164 4543,4167 4553,4170 4561,4175 4567,4181 4573,4188 4578,4196 4581,4207 4584,4217 4585,4229 4585,4244 L 4585,4382 Z M 4536,4294 L 4517,4294 C 4509,4294 4502,4295 4497,4296 4491,4298 4486,4299 4483,4302 4479,4305 4477,4308 4475,4312 4473,4316 4473,4320 4473,4326 4473,4334 4475,4341 4479,4346 4484,4351 4491,4353 4499,4353 4506,4353 4513,4351 4518,4347 4524,4343 4530,4337 4536,4329 L 4536,4294 Z M 4685,4381 C 4685,4383 4684,4384 4684,4385 4683,4386 4681,4387 4680,4388 4678,4389 4675,4390 4672,4390 4669,4390 4665,4390 4660,4390 4655,4390 4651,4390 4648,4390 4645,4390 4643,4389 4640,4388 4639,4387 4637,4386 4636,4385 4636,4384 4635,4383 4635,4381 L 4635,4078 C 4635,4077 4636,4075 4636,4074 4637,4073 4639,4071 4640,4071 4643,4070 4645,4069 4648,4069 4651,4069 4655,4068 4660,4068 4665,4068 4669,4069 4672,4069 4675,4069 4678,4070 4680,4071 4681,4071 4683,4073 4684,4074 4684,4075 4685,4077 4685,4078 L 4685,4381 Z M 4784,4381 C 4784,4383 4784,4384 4783,4385 4782,4386 4781,4387 4779,4388 4777,4389 4775,4390 4771,4390 4768,4390 4764,4390 4759,4390 4755,4390 4751,4390 4747,4390 4744,4390 4742,4389 4740,4388 4738,4387 4736,4386 4736,4385 4735,4384 4735,4383 4735,4381 L 4735,4176 C 4735,4174 4735,4173 4736,4172 4736,4170 4738,4169 4740,4169 4742,4168 4744,4167 4747,4167 4751,4166 4755,4166 4759,4166 4764,4166 4768,4166 4771,4167 4775,4167 4777,4168 4779,4169 4781,4169 4782,4170 4783,4172 4784,4173 4784,4174 4784,4176 L 4784,4381 Z M 4788,4106 C 4788,4117 4786,4125 4782,4130 4778,4134 4771,4136 4759,4136 4748,4136 4740,4134 4737,4130 4733,4126 4731,4118 4731,4107 4731,4095 4733,4087 4737,4082 4741,4078 4748,4075 4760,4075 4771,4075 4778,4078 4782,4082 4786,4086 4788,4094 4788,4106 Z M 4957,4365 C 4957,4370 4957,4374 4957,4376 4956,4380 4956,4382 4955,4384 4954,4386 4953,4387 4953,4388 4952,4389 4950,4389 4949,4389 L 4834,4389 C 4830,4389 4827,4387 4826,4385 4823,4382 4823,4378 4823,4371 L 4823,4360 C 4823,4358 4823,4355 4823,4353 4823,4351 4823,4348 4824,4347 4824,4344 4826,4342 4826,4340 4827,4338 4829,4336 4830,4333 L 4897,4214 4834,4214 C 4831,4214 4829,4212 4827,4209 4826,4205 4825,4199 4825,4191 4825,4186 4826,4182 4826,4180 4826,4177 4827,4174 4827,4172 4828,4170 4829,4169 4830,4169 4831,4168 4832,4168 4834,4168 L 4942,4168 C 4944,4168 4945,4168 4946,4168 4948,4169 4949,4169 4950,4170 4950,4172 4951,4174 4952,4176 4952,4178 4952,4181 4952,4184 L 4952,4195 C 4952,4199 4952,4201 4952,4203 4952,4206 4951,4208 4950,4210 4950,4212 4949,4215 4949,4217 4948,4219 4946,4221 4945,4224 L 4879,4342 4949,4342 C 4950,4342 4951,4343 4952,4343 4953,4344 4954,4345 4955,4347 4956,4348 4956,4351 4957,4354 4957,4357 4957,4360 4957,4365 Z M 5139,4382 C 5139,4384 5139,4386 5138,4387 5136,4388 5134,4389 5131,4390 5128,4390 5124,4390 5119,4390 5113,4390 5108,4390 5105,4390 5103,4389 5101,4388 5100,4387 5099,4386 5098,4384 5098,4382 L 5098,4366 C 5091,4375 5083,4382 5073,4387 5064,4391 5054,4394 5043,4394 5033,4394 5025,4393 5017,4390 5009,4387 5002,4383 4997,4377 4991,4371 4986,4364 4983,4356 4980,4348 4978,4339 4978,4327 4978,4315 4981,4305 4985,4296 4989,4287 4994,4280 5002,4275 5010,4269 5020,4264 5032,4261 5044,4259 5057,4257 5073,4257 L 5091,4257 5091,4245 C 5091,4239 5090,4233 5089,4228 5088,4223 5086,4219 5083,4216 5081,4212 5077,4210 5073,4208 5069,4207 5064,4206 5057,4206 5049,4206 5041,4207 5035,4209 5028,4212 5023,4214 5018,4216 5013,4219 5009,4221 5005,4224 5002,4226 4999,4227 4997,4227 4996,4227 4994,4227 4993,4225 4992,4224 4991,4223 4990,4221 4990,4219 4989,4216 4989,4213 4988,4211 4988,4207 4988,4204 4988,4199 4989,4195 4989,4192 4990,4189 4991,4187 4993,4185 4995,4182 4998,4180 5002,4178 5007,4175 5013,4172 5019,4170 5025,4168 5032,4166 5039,4165 5047,4163 5054,4162 5061,4162 5076,4162 5087,4164 5097,4167 5107,4170 5115,4175 5122,4181 5128,4188 5132,4196 5135,4207 5138,4217 5139,4229 5139,4244 L 5139,4382 Z M 5091,4294 L 5072,4294 C 5064,4294 5057,4295 5051,4296 5045,4298 5041,4299 5037,4302 5034,4305 5031,4308 5029,4312 5028,4316 5027,4320 5027,4326 5027,4334 5029,4341 5034,4346 5039,4351 5045,4353 5053,4353 5060,4353 5067,4351 5073,4347 5079,4343 5084,4337 5091,4329 L 5091,4294 Z M 5322,4348 C 5322,4352 5322,4355 5322,4358 5322,4361 5321,4363 5321,4365 5321,4367 5320,4368 5320,4370 5320,4371 5318,4372 5317,4374 5315,4376 5312,4378 5309,4380 5305,4383 5299,4386 5294,4388 5289,4390 5283,4392 5277,4393 L 5281,4404 C 5283,4410 5285,4415 5286,4420 5287,4424 5288,4429 5288,4433 5288,4439 5287,4446 5285,4451 5283,4456 5279,4460 5276,4463 5272,4466 5267,4469 5262,4470 5257,4472 5252,4473 5246,4473 5240,4473 5235,4472 5230,4471 5225,4470 5221,4470 5218,4469 5214,4467 5212,4466 5210,4466 5209,4465 5208,4464 5207,4463 5207,4461 5207,4460 5206,4458 5206,4456 5206,4453 5206,4450 5206,4444 5206,4439 5207,4437 5208,4435 5210,4434 5213,4434 L 5235,4434 C 5239,4434 5242,4433 5244,4431 5246,4429 5247,4426 5247,4423 5247,4421 5247,4419 5246,4417 5245,4414 5245,4412 5243,4410 L 5236,4390 C 5223,4386 5212,4379 5204,4370 5195,4360 5189,4348 5184,4334 5180,4319 5178,4302 5178,4283 5178,4262 5180,4244 5184,4229 5189,4213 5195,4201 5203,4192 5211,4181 5221,4174 5231,4169 5242,4165 5254,4162 5267,4162 5272,4162 5277,4163 5282,4164 5287,4165 5292,4166 5297,4168 5301,4170 5305,4172 5308,4174 5312,4177 5314,4179 5316,4181 5317,4182 5318,4184 5319,4185 5320,4186 5320,4188 5320,4189 5321,4191 5321,4193 5321,4196 5321,4199 5321,4202 5321,4206 5321,4215 5321,4221 5320,4225 5318,4228 5316,4230 5314,4230 5312,4230 5310,4229 5307,4227 5305,4225 5302,4223 5298,4220 5295,4217 5291,4215 5286,4213 5281,4211 5275,4209 5269,4209 5256,4209 5246,4215 5239,4227 5233,4239 5229,4256 5229,4278 5229,4290 5230,4299 5231,4307 5233,4316 5236,4323 5239,4328 5243,4334 5247,4339 5252,4342 5257,4344 5263,4346 5270,4346 5277,4346 5282,4344 5287,4342 5292,4340 5297,4337 5300,4334 5304,4331 5307,4328 5309,4326 5312,4324 5314,4323 5316,4323 5317,4323 5318,4323 5319,4324 5320,4324 5320,4326 5321,4328 5321,4330 5321,4332 5322,4336 5322,4339 5322,4343 5322,4348 Z"/>
       </g>
      </g>
      <g class="com.sun.star.drawing.ClosedBezierShape">
       <g id="id13">
        <rect class="BoundingBox" stroke="none" fill="none" x="5344" y="4069" width="2125" height="405"/>
        <path fill="rgb(34,74,121)" stroke="none" d="M 5506,4382 C 5506,4384 5504,4386 5503,4387 5502,4388 5500,4389 5497,4390 5494,4390 5490,4390 5484,4390 5479,4390 5474,4390 5472,4390 5469,4389 5467,4388 5466,4387 5465,4386 5464,4384 5464,4382 L 5464,4366 C 5457,4375 5449,4382 5439,4387 5430,4391 5420,4394 5408,4394 5399,4394 5390,4393 5382,4390 5375,4387 5368,4383 5362,4377 5357,4371 5352,4364 5349,4356 5346,4348 5344,4339 5344,4327 5344,4315 5346,4305 5350,4296 5354,4287 5360,4280 5368,4275 5376,4269 5386,4264 5398,4261 5410,4259 5424,4257 5439,4257 L 5456,4257 5456,4245 C 5456,4239 5456,4233 5455,4228 5453,4223 5452,4219 5449,4216 5447,4212 5443,4210 5439,4208 5435,4207 5429,4206 5423,4206 5415,4206 5408,4207 5401,4209 5394,4212 5389,4214 5384,4216 5378,4219 5374,4221 5371,4224 5368,4227 5365,4228 5363,4228 5361,4228 5360,4227 5359,4226 5358,4225 5357,4223 5356,4221 5356,4219 5355,4216 5354,4213 5354,4211 5354,4207 5354,4204 5354,4199 5354,4195 5355,4192 5356,4189 5357,4187 5359,4185 5361,4182 5364,4180 5369,4178 5373,4175 5378,4172 5385,4170 5391,4168 5397,4166 5405,4165 5412,4163 5420,4162 5428,4162 5441,4162 5453,4164 5463,4167 5473,4170 5481,4175 5487,4181 5493,4188 5498,4196 5501,4207 5504,4217 5506,4230 5506,4244 L 5506,4382 Z M 5456,4294 L 5437,4294 C 5429,4294 5423,4295 5417,4296 5411,4298 5406,4299 5403,4302 5400,4305 5397,4308 5396,4312 5394,4316 5393,4320 5393,4326 5393,4334 5395,4341 5400,4346 5405,4351 5411,4353 5419,4353 5427,4353 5433,4351 5439,4347 5444,4343 5451,4337 5456,4329 L 5456,4294 Z M 5501,4081 C 5501,4100 5497,4114 5489,4124 5482,4133 5472,4138 5458,4138 5453,4138 5448,4138 5444,4137 5440,4135 5437,4134 5434,4132 5431,4130 5428,4128 5425,4125 5423,4123 5420,4121 5418,4119 5416,4117 5413,4116 5411,4114 5408,4113 5406,4113 5404,4113 5399,4113 5396,4114 5394,4118 5392,4121 5391,4126 5391,4132 5391,4133 5391,4134 5390,4135 5390,4136 5389,4137 5388,4137 5387,4138 5385,4138 5384,4138 5381,4138 5379,4138 5376,4138 5373,4138 5370,4138 5369,4138 5367,4138 5365,4137 5364,4137 5363,4136 5362,4135 5362,4134 5361,4133 5361,4131 5361,4129 5361,4111 5365,4097 5372,4087 5380,4077 5390,4072 5404,4072 5411,4072 5417,4073 5423,4076 5428,4078 5432,4082 5436,4085 5440,4088 5444,4091 5448,4094 5451,4097 5455,4098 5458,4098 5462,4098 5465,4096 5467,4093 5469,4090 5471,4085 5471,4078 5471,4075 5472,4074 5473,4073 5476,4072 5479,4072 5485,4072 5491,4072 5495,4073 5497,4074 5500,4075 5501,4077 5501,4081 Z M 5733,4276 C 5733,4294 5732,4310 5728,4324 5724,4339 5718,4351 5709,4362 5701,4372 5691,4380 5679,4386 5667,4391 5653,4394 5637,4394 5621,4394 5607,4391 5596,4387 5584,4382 5575,4374 5567,4364 5559,4355 5554,4343 5550,4329 5546,4315 5544,4299 5544,4280 5544,4263 5547,4247 5551,4233 5555,4217 5560,4205 5568,4195 5576,4185 5587,4177 5599,4171 5611,4165 5625,4162 5641,4162 5657,4162 5671,4165 5682,4170 5694,4175 5704,4182 5711,4192 5718,4201 5724,4213 5728,4228 5732,4242 5733,4258 5733,4276 Z M 5682,4279 C 5682,4269 5682,4259 5681,4251 5679,4242 5677,4235 5673,4229 5670,4222 5666,4217 5660,4213 5655,4210 5648,4208 5639,4208 5632,4208 5626,4209 5620,4213 5614,4216 5610,4220 5606,4227 5603,4233 5600,4240 5598,4249 5596,4257 5595,4267 5595,4278 5595,4288 5596,4298 5598,4306 5599,4315 5602,4322 5605,4328 5608,4335 5613,4339 5618,4343 5623,4346 5630,4348 5639,4348 5646,4348 5653,4346 5658,4343 5664,4340 5669,4336 5672,4330 5675,4324 5678,4316 5680,4308 5682,4299 5682,4290 5682,4279 Z M 6027,4273 C 6027,4280 6026,4285 6023,4288 6020,4292 6017,4294 6011,4294 L 5904,4294 C 5904,4302 5905,4310 5907,4317 5909,4324 5912,4330 5915,4335 5919,4340 5924,4344 5931,4346 5936,4349 5944,4350 5952,4350 5961,4350 5968,4350 5975,4348 5982,4347 5987,4345 5993,4343 5997,4342 6001,4340 6005,4338 6007,4337 6010,4336 6012,4336 6013,4336 6014,4336 6015,4337 6016,4338 6017,4339 6017,4340 6018,4341 6018,4343 6018,4346 6018,4348 6018,4351 6018,4355 6018,4359 6018,4362 6018,4364 6018,4366 6018,4368 6018,4370 6017,4371 6017,4373 6017,4374 6016,4375 6015,4376 6014,4378 6013,4379 6011,4380 6007,4382 6003,4384 5999,4386 5993,4387 5987,4389 5980,4391 5972,4392 5964,4394 5956,4394 5948,4394 5932,4394 5919,4392 5907,4387 5895,4383 5885,4376 5877,4366 5869,4357 5863,4345 5860,4331 5856,4316 5854,4300 5854,4281 5854,4263 5856,4246 5860,4232 5864,4216 5870,4204 5877,4194 5885,4184 5895,4176 5906,4170 5917,4165 5930,4162 5944,4162 5958,4162 5971,4165 5982,4170 5992,4175 6001,4182 6007,4191 6014,4200 6019,4211 6022,4223 6025,4236 6027,4249 6027,4263 L 6027,4273 Z M 5979,4256 C 5979,4240 5976,4227 5970,4217 5964,4208 5955,4203 5943,4203 5936,4203 5931,4205 5926,4208 5922,4210 5918,4214 5914,4219 5911,4223 5909,4229 5907,4236 5906,4242 5904,4249 5904,4256 L 5979,4256 Z M 6314,4365 C 6314,4370 6313,4373 6313,4376 6312,4379 6312,4382 6311,4383 6311,4386 6310,4387 6309,4388 6308,4389 6307,4389 6306,4389 L 6177,4389 C 6173,4389 6169,4387 6166,4385 6164,4382 6162,4376 6162,4370 L 6162,4110 C 6162,4103 6164,4098 6166,4095 6169,4092 6173,4091 6177,4091 L 6305,4091 C 6306,4091 6307,4091 6308,4092 6309,4093 6310,4094 6311,4096 6311,4098 6312,4100 6312,4104 6312,4106 6312,4110 6312,4115 6312,4119 6312,4122 6312,4126 6312,4129 6311,4131 6311,4133 6310,4135 6309,4136 6308,4137 6307,4138 6306,4138 6305,4138 L 6214,4138 6214,4211 6291,4211 C 6292,4211 6293,4211 6294,4212 6295,4213 6296,4214 6296,4216 6297,4218 6298,4220 6298,4223 6298,4227 6298,4231 6298,4235 6298,4239 6298,4243 6298,4245 6298,4248 6297,4251 6296,4253 6296,4255 6295,4256 6294,4256 6293,4257 6292,4257 6291,4257 L 6214,4257 6214,4342 6306,4342 C 6307,4342 6308,4342 6309,4343 6310,4343 6311,4345 6311,4347 6312,4348 6312,4351 6313,4354 6313,4357 6314,4360 6314,4365 Z M 6517,4381 C 6517,4383 6517,4385 6517,4386 6516,4387 6515,4387 6513,4389 6512,4389 6509,4390 6507,4390 6504,4390 6501,4390 6497,4390 6493,4390 6489,4390 6486,4390 6484,4390 6482,4389 6480,4389 6478,4387 6477,4387 6477,4386 6476,4385 6476,4383 6476,4381 L 6476,4358 C 6466,4370 6457,4378 6447,4385 6437,4391 6426,4394 6414,4394 6401,4394 6389,4391 6380,4385 6371,4379 6363,4371 6357,4360 6351,4350 6347,4338 6344,4324 6342,4311 6340,4296 6340,4281 6340,4263 6342,4247 6346,4232 6349,4217 6354,4205 6360,4195 6367,4184 6375,4176 6385,4170 6394,4165 6405,4162 6418,4162 6427,4162 6436,4165 6444,4169 6453,4174 6460,4181 6468,4190 L 6468,4079 C 6468,4077 6469,4076 6469,4075 6470,4074 6471,4073 6473,4071 6475,4071 6478,4070 6481,4070 6484,4069 6488,4069 6493,4069 6498,4069 6502,4069 6505,4070 6508,4070 6510,4071 6512,4071 6514,4073 6516,4074 6516,4075 6517,4076 6517,4077 6517,4079 L 6517,4381 Z M 6468,4244 C 6461,4233 6454,4225 6448,4220 6441,4214 6434,4211 6427,4211 6421,4211 6415,4213 6411,4217 6406,4221 6402,4226 6399,4232 6397,4239 6394,4246 6393,4253 6391,4261 6391,4269 6391,4277 6391,4286 6391,4294 6393,4303 6394,4311 6396,4318 6399,4324 6401,4331 6405,4336 6409,4339 6414,4343 6419,4345 6426,4345 6430,4345 6433,4344 6437,4343 6439,4342 6443,4340 6446,4338 6450,4335 6453,4332 6457,4328 6460,4323 6464,4318 6468,4312 L 6468,4244 Z M 6735,4381 C 6735,4383 6734,4384 6734,4385 6733,4386 6732,4387 6730,4388 6728,4389 6726,4390 6723,4390 6721,4390 6718,4390 6714,4390 6709,4390 6706,4390 6703,4390 6700,4390 6698,4389 6696,4388 6695,4387 6694,4386 6693,4385 6692,4384 6692,4383 6692,4381 L 6692,4358 C 6682,4370 6672,4379 6662,4385 6652,4391 6642,4394 6631,4394 6619,4394 6609,4392 6600,4387 6592,4383 6585,4376 6580,4368 6576,4360 6572,4351 6569,4340 6568,4330 6566,4317 6566,4302 L 6566,4175 C 6566,4174 6566,4172 6568,4171 6568,4170 6569,4169 6572,4168 6573,4168 6576,4167 6579,4166 6583,4166 6587,4166 6591,4166 6596,4166 6600,4166 6603,4166 6607,4167 6609,4168 6611,4168 6613,4169 6614,4170 6615,4171 6616,4172 6616,4174 6616,4175 L 6616,4292 C 6616,4303 6617,4311 6618,4316 6619,4322 6621,4327 6623,4331 6625,4335 6629,4338 6632,4340 6636,4343 6641,4344 6645,4344 6652,4344 6659,4341 6665,4336 6671,4330 6678,4323 6685,4312 L 6685,4175 C 6685,4174 6686,4172 6686,4171 6687,4170 6688,4169 6690,4168 6692,4168 6695,4167 6698,4166 6701,4166 6705,4166 6710,4166 6715,4166 6719,4166 6722,4166 6725,4167 6727,4168 6730,4168 6731,4169 6732,4170 6733,4171 6734,4172 6735,4174 6735,4175 L 6735,4381 Z M 6917,4348 C 6917,4352 6917,4356 6917,4359 6917,4361 6917,4363 6917,4366 6916,4367 6916,4368 6915,4370 6915,4371 6914,4372 6912,4374 6910,4376 6908,4378 6904,4380 6900,4383 6896,4386 6891,4387 6886,4390 6881,4391 6875,4393 6869,4394 6864,4394 6858,4394 6844,4394 6832,4392 6822,4387 6811,4382 6802,4375 6795,4365 6788,4355 6783,4344 6779,4330 6775,4316 6774,4300 6774,4283 6774,4262 6776,4244 6780,4229 6785,4213 6791,4201 6799,4192 6806,4181 6816,4174 6827,4169 6838,4165 6849,4162 6862,4162 6868,4162 6873,4163 6878,4164 6883,4165 6888,4166 6892,4168 6896,4170 6900,4172 6904,4174 6908,4177 6910,4179 6911,4181 6913,4182 6914,4184 6914,4185 6915,4186 6916,4188 6916,4189 6916,4191 6916,4193 6917,4196 6917,4199 6917,4202 6917,4206 6917,4215 6916,4221 6915,4225 6913,4229 6912,4231 6910,4231 6908,4231 6905,4229 6902,4228 6900,4225 6897,4223 6894,4220 6890,4217 6886,4215 6881,4213 6877,4211 6871,4209 6865,4209 6851,4209 6842,4215 6835,4227 6828,4239 6825,4256 6825,4278 6825,4290 6825,4299 6827,4307 6829,4316 6831,4323 6835,4328 6838,4334 6842,4339 6847,4342 6853,4344 6858,4346 6865,4346 6872,4346 6878,4344 6883,4342 6888,4340 6892,4337 6896,4334 6900,4331 6902,4328 6905,4326 6908,4324 6909,4323 6911,4323 6912,4323 6913,4323 6914,4324 6915,4324 6916,4326 6916,4328 6917,4330 6917,4333 6917,4336 6917,4339 6917,4343 6917,4348 Z M 7102,4382 C 7102,4384 7101,4386 7099,4387 7098,4388 7096,4389 7093,4390 7090,4390 7086,4390 7080,4390 7075,4390 7070,4390 7068,4390 7065,4389 7063,4388 7062,4387 7061,4386 7060,4384 7060,4382 L 7060,4366 C 7053,4375 7045,4382 7035,4387 7026,4391 7016,4394 7004,4394 6995,4394 6987,4393 6979,4390 6971,4387 6964,4383 6959,4377 6953,4371 6948,4364 6945,4356 6942,4348 6940,4339 6940,4327 6940,4315 6942,4305 6946,4296 6950,4287 6956,4280 6964,4275 6972,4269 6982,4264 6994,4261 7006,4259 7020,4257 7035,4257 L 7052,4257 7052,4245 C 7052,4239 7052,4233 7051,4228 7049,4223 7048,4219 7045,4216 7043,4212 7039,4210 7035,4208 7031,4207 7025,4206 7019,4206 7011,4206 7004,4207 6997,4209 6991,4212 6985,4214 6980,4216 6975,4219 6971,4221 6967,4224 6964,4227 6961,4228 6959,4228 6957,4228 6956,4227 6955,4226 6954,4225 6953,4223 6952,4221 6952,4219 6951,4216 6950,4213 6950,4211 6950,4207 6950,4204 6950,4199 6950,4195 6951,4192 6952,4189 6953,4187 6955,4185 6957,4182 6960,4180 6965,4178 6969,4175 6975,4172 6981,4170 6987,4168 6993,4166 7001,4165 7008,4163 7016,4162 7024,4162 7037,4162 7049,4164 7059,4167 7069,4170 7077,4175 7083,4181 7090,4188 7094,4196 7097,4207 7100,4217 7102,4230 7102,4244 L 7102,4382 Z M 7052,4294 L 7033,4294 C 7025,4294 7019,4295 7013,4296 7007,4298 7003,4299 6999,4302 6996,4305 6993,4308 6992,4312 6990,4316 6989,4320 6989,4326 6989,4334 6991,4341 6996,4346 7001,4351 7007,4353 7015,4353 7023,4353 7029,4351 7035,4347 7040,4343 7047,4337 7052,4329 L 7052,4294 Z M 7284,4348 C 7284,4352 7284,4355 7284,4358 7284,4361 7283,4363 7283,4365 7282,4367 7282,4368 7282,4370 7281,4371 7280,4372 7278,4374 7277,4376 7274,4378 7270,4380 7266,4383 7262,4386 7256,4388 7251,4390 7245,4392 7239,4393 L 7243,4404 C 7246,4410 7248,4415 7249,4420 7250,4424 7250,4429 7250,4433 7250,4439 7249,4446 7247,4451 7245,4456 7242,4460 7238,4463 7234,4466 7229,4469 7224,4470 7219,4472 7214,4473 7208,4473 7202,4473 7197,4472 7192,4471 7187,4470 7183,4470 7179,4469 7176,4467 7174,4466 7173,4466 7171,4465 7170,4464 7170,4463 7169,4461 7169,4460 7169,4458 7168,4456 7168,4453 7168,4450 7168,4444 7169,4439 7170,4437 7170,4435 7172,4434 7175,4434 L 7198,4434 C 7201,4434 7204,4433 7206,4431 7208,4429 7209,4426 7209,4423 7209,4421 7209,4419 7208,4417 7207,4414 7206,4412 7206,4410 L 7198,4390 C 7185,4386 7174,4379 7166,4370 7157,4360 7151,4348 7146,4334 7142,4319 7140,4302 7140,4283 7140,4262 7142,4244 7147,4229 7151,4213 7157,4201 7165,4192 7173,4181 7182,4174 7193,4169 7204,4165 7216,4162 7229,4162 7234,4162 7239,4163 7244,4164 7249,4165 7254,4166 7258,4168 7263,4170 7267,4172 7270,4174 7274,4177 7276,4179 7278,4181 7279,4182 7280,4184 7281,4185 7281,4186 7282,4188 7282,4189 7282,4191 7283,4193 7283,4196 7283,4199 7283,4202 7283,4206 7283,4215 7282,4221 7281,4225 7280,4229 7278,4231 7276,4231 7274,4231 7272,4229 7269,4228 7266,4225 7264,4223 7260,4220 7257,4217 7253,4215 7248,4213 7243,4211 7238,4209 7231,4209 7218,4209 7208,4215 7201,4227 7194,4239 7191,4256 7191,4278 7191,4290 7192,4299 7194,4307 7195,4316 7198,4323 7201,4328 7205,4334 7209,4339 7214,4342 7219,4344 7225,4346 7231,4346 7238,4346 7244,4344 7249,4342 7254,4340 7258,4337 7262,4334 7266,4331 7269,4328 7272,4326 7274,4324 7276,4323 7278,4323 7279,4323 7280,4323 7281,4324 7281,4324 7282,4326 7282,4328 7283,4330 7284,4332 7284,4336 7284,4339 7284,4343 7284,4348 Z M 7468,4382 C 7468,4384 7467,4386 7466,4387 7464,4388 7463,4389 7460,4390 7457,4390 7452,4390 7447,4390 7441,4390 7437,4390 7434,4390 7431,4389 7429,4388 7428,4387 7427,4386 7427,4384 7427,4382 L 7427,4366 C 7419,4375 7411,4382 7402,4387 7393,4391 7383,4394 7371,4394 7362,4394 7353,4393 7345,4390 7337,4387 7330,4383 7325,4377 7319,4371 7315,4364 7312,4356 7309,4348 7307,4339 7307,4327 7307,4315 7309,4305 7313,4296 7317,4287 7323,4280 7331,4275 7339,4269 7349,4264 7361,4261 7372,4259 7386,4257 7402,4257 L 7419,4257 7419,4245 C 7419,4239 7419,4233 7417,4228 7416,4223 7414,4219 7412,4216 7409,4212 7406,4210 7401,4208 7397,4207 7392,4206 7385,4206 7377,4206 7370,4207 7364,4209 7357,4212 7351,4214 7346,4216 7341,4219 7337,4221 7334,4224 7330,4227 7328,4228 7325,4228 7324,4228 7322,4227 7322,4226 7321,4225 7320,4223 7319,4221 7318,4219 7318,4216 7317,4213 7317,4211 7317,4207 7317,4204 7317,4199 7317,4195 7318,4192 7318,4189 7320,4187 7321,4185 7323,4182 7326,4180 7331,4178 7336,4175 7341,4172 7347,4170 7353,4168 7360,4166 7368,4165 7375,4163 7383,4162 7390,4162 7404,4162 7416,4164 7425,4167 7435,4170 7443,4175 7450,4181 7456,4188 7460,4196 7463,4207 7467,4217 7468,4230 7468,4244 L 7468,4382 Z M 7419,4294 L 7400,4294 C 7392,4294 7385,4295 7380,4296 7374,4298 7369,4299 7365,4302 7362,4305 7360,4308 7358,4312 7356,4316 7356,4320 7356,4326 7356,4334 7358,4341 7363,4346 7367,4351 7373,4353 7382,4353 7389,4353 7395,4351 7401,4347 7407,4343 7413,4337 7419,4329 L 7419,4294 Z M 7463,4081 C 7463,4100 7460,4114 7452,4124 7444,4133 7434,4138 7420,4138 7415,4138 7411,4138 7407,4137 7403,4135 7400,4134 7396,4132 7393,4130 7390,4128 7388,4125 7385,4123 7383,4121 7380,4119 7378,4117 7376,4116 7373,4114 7371,4113 7369,4113 7366,4113 7361,4113 7359,4114 7357,4118 7355,4121 7354,4126 7354,4132 7354,4133 7353,4134 7353,4135 7353,4136 7352,4137 7351,4137 7349,4138 7348,4138 7346,4138 7344,4138 7341,4138 7338,4138 7336,4138 7333,4138 7331,4138 7329,4138 7328,4137 7326,4137 7326,4136 7325,4135 7324,4134 7324,4133 7324,4131 7324,4129 7324,4111 7327,4097 7334,4087 7342,4077 7352,4072 7366,4072 7373,4072 7380,4073 7385,4076 7391,4078 7395,4082 7399,4085 7403,4088 7407,4091 7410,4094 7413,4097 7417,4098 7421,4098 7425,4098 7428,4096 7430,4093 7432,4090 7433,4085 7433,4078 7433,4075 7434,4074 7436,4073 7438,4072 7442,4072 7448,4072 7454,4072 7458,4073 7460,4074 7462,4075 7463,4077 7463,4081 Z"/>
       </g>
      </g>
      <g class="com.sun.star.drawing.ClosedBezierShape">
       <g id="id14">
        <rect class="BoundingBox" stroke="none" fill="none" x="7506" y="4065" width="1493" height="331"/>
        <path fill="rgb(34,74,121)" stroke="none" d="M 7695,4276 C 7695,4294 7693,4310 7689,4324 7685,4338 7679,4351 7671,4361 7663,4371 7653,4379 7641,4385 7629,4391 7614,4394 7598,4394 7582,4394 7569,4391 7557,4386 7546,4381 7536,4374 7528,4364 7521,4354 7515,4342 7511,4328 7508,4314 7506,4298 7506,4280 7506,4263 7508,4247 7512,4232 7516,4217 7522,4205 7530,4195 7538,4185 7548,4177 7560,4171 7572,4165 7586,4162 7602,4162 7618,4162 7632,4165 7644,4170 7655,4175 7665,4182 7672,4192 7680,4201 7685,4213 7689,4227 7693,4241 7695,4257 7695,4276 Z M 7644,4278 C 7644,4268 7643,4259 7642,4250 7640,4241 7638,4235 7635,4228 7631,4222 7627,4217 7622,4213 7616,4210 7609,4208 7601,4208 7593,4208 7587,4209 7581,4213 7576,4216 7571,4220 7567,4227 7564,4233 7561,4240 7559,4248 7558,4257 7557,4267 7557,4277 7557,4288 7558,4297 7559,4306 7561,4314 7563,4322 7566,4328 7569,4334 7574,4339 7579,4342 7585,4346 7592,4347 7600,4347 7607,4347 7614,4346 7619,4343 7625,4339 7630,4335 7633,4329 7637,4323 7640,4316 7641,4307 7643,4299 7644,4289 7644,4278 Z M 7998,4116 C 7998,4120 7998,4124 7998,4127 7998,4130 7997,4133 7997,4134 7995,4137 7995,4138 7994,4139 7993,4140 7992,4140 7991,4140 L 7927,4140 7927,4380 C 7927,4382 7926,4383 7926,4385 7924,4386 7923,4386 7921,4387 7919,4388 7916,4389 7913,4389 7910,4390 7906,4390 7900,4390 7896,4390 7891,4390 7888,4389 7885,4389 7882,4388 7880,4387 7878,4386 7877,4386 7876,4385 7875,4383 7875,4382 7875,4380 L 7875,4140 7811,4140 C 7809,4140 7808,4140 7807,4139 7807,4138 7805,4137 7805,4134 7804,4133 7804,4130 7804,4127 7803,4124 7803,4120 7803,4116 7803,4111 7803,4107 7804,4104 7804,4101 7804,4098 7805,4096 7805,4094 7807,4093 7807,4092 7808,4091 7809,4091 7811,4091 L 7991,4091 C 7992,4091 7993,4091 7994,4092 7995,4093 7995,4094 7997,4096 7997,4098 7998,4101 7998,4104 7998,4107 7998,4111 7998,4116 Z M 8153,4272 C 8153,4279 8152,4284 8149,4288 8147,4291 8143,4293 8138,4293 L 8031,4293 C 8031,4302 8032,4310 8034,4316 8036,4323 8038,4330 8042,4335 8046,4339 8051,4343 8057,4346 8063,4348 8070,4350 8079,4350 8088,4350 8096,4349 8102,4347 8108,4346 8114,4344 8119,4343 8124,4341 8128,4339 8131,4338 8134,4336 8137,4336 8139,4336 8140,4336 8141,4336 8141,4336 8143,4337 8143,4338 8144,4339 8144,4340 8144,4343 8145,4345 8145,4348 8145,4351 8145,4355 8145,4358 8145,4361 8145,4363 8145,4366 8144,4368 8144,4369 8144,4371 8144,4372 8143,4374 8143,4375 8142,4376 8141,4377 8140,4378 8138,4379 8134,4381 8130,4383 8125,4385 8119,4387 8113,4389 8106,4390 8099,4391 8092,4394 8083,4394 8074,4394 8059,4394 8045,4391 8033,4387 8022,4382 8012,4375 8004,4366 7996,4356 7990,4344 7986,4330 7982,4316 7981,4299 7981,4280 7981,4262 7982,4245 7986,4231 7990,4216 7997,4204 8004,4194 8012,4184 8021,4176 8033,4170 8044,4165 8056,4162 8070,4162 8085,4162 8098,4165 8108,4170 8118,4175 8127,4182 8134,4191 8141,4200 8145,4211 8149,4223 8152,4235 8153,4248 8153,4263 L 8153,4272 Z M 8105,4256 C 8106,4239 8103,4227 8097,4217 8091,4208 8082,4203 8069,4203 8063,4203 8057,4205 8053,4208 8048,4210 8044,4214 8041,4219 8038,4223 8036,4229 8034,4235 8032,4241 8031,4248 8031,4256 L 8105,4256 Z M 8077,4074 C 8078,4073 8079,4071 8081,4070 8082,4069 8084,4068 8085,4067 8088,4066 8090,4066 8093,4066 8096,4065 8100,4065 8104,4065 8110,4065 8115,4066 8118,4066 8122,4067 8124,4067 8126,4069 8127,4070 8128,4071 8128,4073 8128,4074 8127,4076 8126,4078 L 8088,4131 C 8086,4133 8086,4134 8085,4135 8084,4136 8082,4137 8081,4137 8079,4138 8077,4138 8074,4139 8072,4139 8069,4139 8065,4139 8060,4139 8057,4139 8054,4138 8051,4138 8049,4137 8048,4136 8048,4136 8047,4134 8047,4133 8047,4131 8048,4129 8049,4127 L 8077,4074 Z M 8327,4348 C 8327,4352 8327,4355 8327,4358 8327,4360 8327,4363 8326,4365 8326,4367 8326,4368 8325,4369 8325,4370 8324,4372 8322,4374 8321,4375 8318,4378 8314,4380 8310,4383 8306,4385 8301,4387 8296,4389 8291,4391 8285,4392 8279,4394 8274,4394 8267,4394 8254,4394 8242,4391 8231,4386 8221,4381 8212,4374 8205,4364 8198,4355 8192,4343 8189,4329 8185,4315 8184,4300 8184,4282 8184,4261 8186,4244 8190,4229 8195,4213 8201,4201 8208,4192 8216,4181 8226,4174 8236,4169 8247,4165 8259,4162 8272,4162 8278,4162 8283,4163 8288,4164 8293,4165 8298,4166 8302,4168 8306,4170 8310,4172 8314,4174 8317,4177 8320,4179 8321,4181 8323,4182 8323,4184 8325,4185 8325,4186 8325,4188 8326,4189 8326,4191 8326,4193 8326,4196 8327,4199 8327,4202 8327,4206 8327,4215 8326,4221 8325,4225 8323,4228 8322,4230 8319,4230 8318,4230 8315,4229 8313,4227 8310,4225 8307,4223 8303,4220 8300,4217 8296,4215 8291,4213 8287,4211 8281,4209 8274,4209 8262,4209 8252,4215 8245,4227 8238,4239 8235,4255 8235,4277 8235,4289 8235,4299 8237,4307 8239,4315 8242,4322 8244,4328 8248,4334 8252,4338 8257,4341 8262,4344 8268,4345 8275,4345 8282,4345 8288,4344 8292,4342 8298,4339 8302,4336 8306,4334 8309,4331 8313,4328 8315,4326 8318,4323 8319,4322 8321,4322 8322,4322 8323,4322 8324,4323 8325,4324 8326,4326 8326,4327 8326,4330 8327,4332 8327,4335 8327,4339 8327,4343 8327,4348 Z M 8532,4380 C 8532,4382 8532,4383 8531,4385 8531,4386 8529,4387 8527,4387 8525,4389 8523,4389 8520,4389 8516,4390 8512,4390 8508,4390 8503,4390 8498,4390 8496,4389 8492,4389 8490,4389 8488,4387 8486,4387 8485,4386 8484,4385 8483,4383 8482,4382 8482,4380 L 8482,4264 C 8482,4253 8482,4246 8481,4240 8480,4235 8478,4229 8476,4225 8473,4221 8470,4219 8466,4216 8462,4214 8458,4213 8453,4213 8447,4213 8441,4215 8434,4221 8428,4226 8421,4234 8414,4244 L 8414,4380 C 8414,4382 8414,4383 8413,4385 8412,4386 8411,4387 8409,4387 8406,4389 8403,4389 8401,4389 8397,4390 8393,4390 8389,4390 8383,4390 8379,4390 8377,4389 8373,4389 8371,4389 8369,4387 8367,4387 8366,4386 8365,4385 8364,4383 8363,4382 8363,4380 L 8363,4175 C 8363,4174 8364,4172 8365,4171 8365,4170 8366,4169 8368,4168 8370,4168 8372,4167 8375,4166 8378,4166 8381,4166 8385,4166 8389,4166 8393,4166 8395,4166 8398,4167 8400,4168 8402,4168 8403,4169 8405,4170 8405,4171 8406,4172 8406,4174 8406,4175 L 8406,4199 C 8417,4186 8426,4178 8437,4172 8446,4165 8457,4162 8468,4162 8480,4162 8490,4165 8498,4169 8507,4174 8513,4180 8518,4188 8523,4196 8527,4205 8529,4216 8531,4227 8532,4239 8532,4254 L 8532,4380 Z M 8631,4380 C 8631,4382 8631,4383 8630,4385 8629,4386 8628,4387 8626,4387 8624,4389 8622,4389 8618,4389 8615,4390 8611,4390 8606,4390 8601,4390 8597,4390 8594,4389 8591,4389 8588,4389 8587,4387 8584,4387 8583,4386 8583,4385 8581,4383 8581,4382 8581,4380 L 8581,4176 C 8581,4174 8581,4173 8583,4172 8583,4170 8584,4169 8587,4169 8588,4168 8591,4167 8594,4167 8597,4166 8601,4166 8606,4166 8611,4166 8615,4166 8618,4167 8622,4167 8624,4168 8626,4169 8628,4169 8629,4170 8630,4172 8631,4173 8631,4174 8631,4176 L 8631,4380 Z M 8635,4106 C 8635,4117 8633,4125 8629,4130 8625,4134 8617,4136 8606,4136 8595,4136 8587,4134 8583,4130 8580,4126 8577,4118 8577,4107 8577,4095 8580,4087 8584,4082 8588,4078 8595,4075 8607,4075 8618,4075 8625,4078 8629,4082 8633,4086 8635,4094 8635,4106 Z M 8814,4348 C 8814,4352 8814,4355 8813,4358 8813,4360 8813,4363 8813,4365 8812,4367 8812,4368 8812,4369 8811,4370 8810,4372 8808,4374 8807,4375 8804,4378 8800,4380 8796,4383 8792,4385 8787,4387 8782,4389 8777,4391 8771,4392 8766,4394 8759,4394 8754,4394 8740,4394 8728,4391 8718,4386 8707,4381 8698,4374 8691,4364 8684,4355 8679,4343 8675,4329 8671,4315 8670,4300 8670,4282 8670,4261 8672,4244 8676,4229 8680,4213 8687,4201 8695,4192 8703,4181 8712,4174 8723,4169 8734,4165 8745,4162 8758,4162 8763,4162 8769,4163 8774,4164 8779,4165 8783,4166 8788,4168 8793,4170 8797,4172 8800,4174 8804,4177 8806,4179 8808,4181 8809,4182 8810,4184 8810,4185 8811,4186 8812,4188 8812,4189 8812,4191 8812,4193 8813,4196 8813,4199 8813,4202 8813,4206 8813,4215 8812,4221 8811,4225 8809,4228 8808,4230 8806,4230 8804,4230 8801,4229 8798,4227 8796,4225 8793,4223 8790,4220 8786,4217 8782,4215 8778,4213 8773,4211 8767,4209 8761,4209 8747,4209 8738,4215 8731,4227 8724,4239 8721,4255 8721,4277 8721,4289 8722,4299 8723,4307 8725,4315 8727,4322 8731,4328 8734,4334 8738,4338 8743,4341 8749,4344 8754,4345 8761,4345 8768,4345 8774,4344 8779,4342 8783,4339 8788,4336 8791,4334 8795,4331 8798,4328 8801,4326 8804,4323 8806,4322 8808,4322 8809,4322 8809,4322 8810,4323 8811,4324 8812,4326 8812,4327 8813,4330 8813,4332 8813,4335 8813,4339 8814,4343 8814,4348 Z M 8998,4381 C 8998,4383 8997,4385 8995,4386 8994,4387 8992,4389 8989,4389 8987,4390 8982,4390 8976,4390 8971,4390 8967,4390 8964,4389 8961,4389 8959,4387 8958,4386 8957,4385 8956,4383 8956,4381 L 8956,4365 C 8949,4374 8941,4381 8932,4386 8922,4391 8912,4394 8901,4394 8891,4394 8882,4392 8875,4389 8867,4386 8860,4382 8854,4376 8849,4371 8844,4364 8841,4356 8838,4347 8837,4338 8837,4327 8837,4315 8838,4304 8842,4296 8846,4287 8853,4280 8861,4274 8868,4268 8878,4264 8890,4261 8902,4259 8916,4257 8931,4257 L 8948,4257 8948,4245 C 8948,4238 8948,4232 8947,4228 8946,4223 8944,4219 8941,4216 8939,4212 8935,4210 8931,4208 8927,4207 8921,4206 8915,4206 8907,4206 8900,4207 8893,4209 8886,4212 8881,4214 8876,4216 8871,4219 8866,4221 8863,4224 8860,4226 8857,4227 8855,4227 8854,4227 8852,4227 8851,4225 8850,4224 8849,4223 8849,4221 8848,4219 8847,4216 8847,4213 8846,4211 8846,4207 8846,4204 8846,4199 8846,4195 8847,4192 8848,4189 8849,4187 8851,4185 8853,4182 8856,4180 8861,4178 8865,4175 8870,4172 8877,4170 8883,4168 8890,4166 8897,4165 8904,4163 8912,4162 8920,4162 8933,4162 8945,4164 8955,4167 8965,4170 8973,4175 8979,4181 8985,4188 8990,4196 8993,4207 8996,4217 8998,4229 8998,4243 L 8998,4381 Z M 8948,4294 L 8929,4294 C 8921,4294 8915,4294 8909,4295 8904,4297 8899,4299 8895,4302 8892,4304 8889,4308 8888,4312 8886,4315 8885,4320 8885,4325 8885,4334 8888,4340 8892,4345 8897,4350 8903,4352 8912,4352 8919,4352 8925,4351 8931,4346 8936,4342 8943,4336 8948,4328 L 8948,4294 Z"/>
       </g>
      </g>
     </g>
    </g>
   </g>
  </g>
 </g>
</svg>